G04 ================== begin FILE IDENTIFICATION RECORD ==================*
G04 Layout Name:  lcdpower.brd*
G04 Film Name:    BOTTOM*
G04 File Format:  Gerber RS274X*
G04 File Origin:  Cadence Allegro 16.5-P002*
G04 Origin Date:  Tue Jun 09 14:50:47 2015*
G04 *
G04 Layer:  VIA CLASS/BOTTOM*
G04 Layer:  PIN/BOTTOM*
G04 Layer:  ETCH/BOTTOM*
G04 Layer:  BOARD GEOMETRY/OUTLINE*
G04 *
G04 Offset:    (0.000 0.000)*
G04 Mirror:    No*
G04 Mode:      Positive*
G04 Rotation:  0*
G04 FullContactRelief:  No*
G04 UndefLineWidth:     0.100*
G04 ================== end FILE IDENTIFICATION RECORD ====================*
%FSLAX35Y35*MOIN*%
%IR0*IPPOS*OFA0.00000B0.00000*MIA0B0*SFA1.00000B1.00000*%
%ADD12C,.023622*%
%ADD11C,.059055*%
%ADD10R,.059055X.059055*%
%ADD13C,.008*%
%ADD14C,.02*%
%ADD15C,.000394*%
%ADD18C,.07506*%
%ADD17C,.06906*%
%ADD16R,.07506X.07506*%
%ADD19R,.07506X.075058*%
G75*
%LPD*%
G75*
G36*
G01X77466Y36358D02*
X77281Y36543D01*
Y39190D01*
X83430D01*
Y47390D01*
X110490D01*
Y50230D01*
G02X111104Y50569I400J0D01*
G03Y56912I2006J3172D01*
G02X110490Y57250I-214J338D01*
G01Y60230D01*
G02X111104Y60568I400J0D01*
G03Y66912I2006J3172D01*
G02X110490Y67250I-214J338D01*
G01Y70230D01*
G02X111104Y70568I400J0D01*
G03Y76912I2006J3172D01*
G02X110490Y77250I-214J338D01*
G01Y80230D01*
G02X111104Y80568I400J0D01*
G03Y86912I2006J3172D01*
G02X110490Y87250I-214J338D01*
G01Y90230D01*
G02X111104Y90568I400J0D01*
G03Y96912I2006J3172D01*
G02X110490Y97250I-214J338D01*
G01Y100230D01*
G02X111104Y100568I400J0D01*
G03Y106912I2006J3172D01*
G02X110490Y107250I-214J338D01*
G01Y109830D01*
X106880D01*
Y118387D01*
X101397Y123870D01*
Y124357D01*
X102824Y125785D01*
X102825Y125785D01*
G03X97564Y125790I-2628J2679D01*
G01X98997Y124357D01*
Y122876D01*
X104480Y117393D01*
Y115783D01*
G02X103797Y115500I-400J0D01*
G01X96987Y122310D01*
X92697D01*
X91397Y123610D01*
Y124357D01*
X92824Y125785D01*
X92825Y125785D01*
G03X87569I-2628J2679D01*
G01X87570Y125785D01*
X88997Y124357D01*
Y123846D01*
G02X88314Y123564I-400J0D01*
G01X87197Y124680D01*
X82604D01*
G02X82372Y125406I0J400D01*
G03X78022I-2175J3058D01*
G02X77790Y124680I-232J-326D01*
G01X72686D01*
G02X72403Y125363I0J400D01*
G01X72830Y125790D01*
X72830Y125791D01*
G03X67569Y125785I-2633J2674D01*
G01X67570Y125785D01*
X68997Y124357D01*
Y124115D01*
X69348Y123763D01*
G02X69066Y123080I-283J-283D01*
G01X63426D01*
X61773Y124733D01*
X62830Y125790D01*
X62830Y125791D01*
G03X57569Y125785I-2633J2674D01*
G01X57570Y125785D01*
X58997Y124357D01*
Y124115D01*
X60948Y122163D01*
G02X60665Y121480I-283J-283D01*
G01X53657D01*
X51397Y123740D01*
Y124357D01*
X52824Y125785D01*
X52825Y125785D01*
G03X47564Y125790I-2628J2679D01*
G01X48997Y124357D01*
Y122746D01*
X52020Y119723D01*
G02X51737Y119040I-283J-283D01*
G01X45697D01*
X41793Y122944D01*
X43491Y124712D01*
X43950D01*
Y132218D01*
X36444D01*
Y125835D01*
X36133Y125514D01*
X38997Y122532D01*
Y122346D01*
X44703Y116640D01*
X80753D01*
X93340Y104053D01*
Y79343D01*
X96570Y76113D01*
Y61112D01*
X96385Y60927D01*
X96384Y60926D01*
G03X99156I1386J-1416D01*
G01X99155Y60927D01*
X98970Y61112D01*
Y77107D01*
X95740Y80337D01*
Y80607D01*
G02X96423Y80890I400J0D01*
G01X100080Y77233D01*
Y66773D01*
X104313Y62540D01*
X104530D01*
Y61807D01*
X99343Y56620D01*
X55963D01*
X54854Y55511D01*
X54570D01*
G03X53655Y55287I0J-1981D01*
G02X53070Y55642I-185J355D01*
G01Y59098D01*
X53255Y59283D01*
X53256Y59284D01*
G03X53742Y61350I-1386J1416D01*
G02X54120Y61881I378J131D01*
G01X56431D01*
X56470Y61864D01*
G03Y65498I790J1817D01*
G01X56431Y65481D01*
X49096D01*
X47650Y66927D01*
Y74111D01*
X47667Y74150D01*
G03Y75730I-1817J790D01*
G01X47650Y75769D01*
Y91560D01*
X49950D01*
G02X50300Y90965I0J-400D01*
G03X52030Y88019I1730J-965D01*
G01X52314D01*
X64583Y75750D01*
X88638D01*
X88823Y75565D01*
X88824Y75564D01*
G03Y78336I1416J1386D01*
G01X88823Y78335D01*
X88638Y78150D01*
X65577D01*
X54011Y89716D01*
Y90000D01*
G03X53760Y90965I-1981J0D01*
G02X54110Y91560I349J195D01*
G01X74794D01*
X75700Y90654D01*
Y87700D01*
X90000D01*
Y101100D01*
X83000D01*
Y94300D01*
X77146D01*
X76286Y95160D01*
X46765D01*
G03X45094Y95244I-915J-1550D01*
G01X45054Y95225D01*
X35713D01*
X33132Y97450D01*
X32837Y97178D01*
X26444D01*
Y89672D01*
X32837D01*
X33132Y89401D01*
X35713Y91625D01*
X44050D01*
Y75769D01*
X44033Y75730D01*
G03Y74150I1817J-790D01*
G01X44050Y74111D01*
Y46986D01*
X42604Y45540D01*
X16659D01*
X16620Y45557D01*
G03Y41923I-790J-1817D01*
G01X16659Y41940D01*
X42604D01*
X44050Y40494D01*
Y28980D01*
X24270D01*
Y17690D01*
X1575D01*
Y146295D01*
X5982Y150702D01*
G02X6665Y150420I283J-283D01*
G01Y146153D01*
X13571D01*
Y153059D01*
X9305D01*
G02X9022Y153742I0J400D01*
G01X11185Y155905D01*
X104530D01*
Y155900D01*
X122810D01*
Y155905D01*
X221645D01*
X223714Y153836D01*
G02X223431Y153153I-283J-283D01*
G01X223247D01*
Y151194D01*
X222700Y150640D01*
X192593D01*
X181800Y139847D01*
Y90619D01*
G02X181117Y90336I-400J0D01*
G01X173853Y97600D01*
X168774D01*
G02X168407Y98160I0J400D01*
G03X168571Y98984I-1817J790D01*
G02X169062Y99380I400J7D01*
G03X169510Y103291I449J1930D01*
G01X169226D01*
X167577Y104940D01*
X127217D01*
X125786Y106371D01*
X125786Y106372D01*
G03X125785Y101108I-2676J-2632D01*
G01X125786Y101108D01*
X127217Y102540D01*
X129247D01*
G02X129530Y101857I0J-400D01*
G01X125166Y97493D01*
X123110D01*
G03X125468Y90821I0J-3753D01*
G02X126120Y90510I251J-311D01*
G01Y88447D01*
X125166Y87493D01*
X123110D01*
G03X126863Y83766I0J-3753D01*
G01Y83768D01*
X126863Y85796D01*
X127037Y85970D01*
G02X127720Y85687I283J-283D01*
G01Y80047D01*
X125166Y77493D01*
X123110D01*
G03X126863Y73766I0J-3753D01*
G01Y73768D01*
X126863Y75796D01*
X128637Y77570D01*
G02X129320Y77287I283J-283D01*
G01Y71647D01*
X125166Y67493D01*
X123110D01*
G03X126863Y63766I0J-3753D01*
G01Y63768D01*
X126863Y65796D01*
X130237Y69170D01*
G02X130920Y68887I283J-283D01*
G01Y63247D01*
X125166Y57493D01*
X119357D01*
Y49987D01*
X126863D01*
Y55796D01*
X133320Y62253D01*
Y86323D01*
X138997Y92000D01*
X171533D01*
X176240Y87293D01*
Y81437D01*
X174153Y79350D01*
X168923D01*
X162990Y73417D01*
Y60533D01*
X164519Y59004D01*
Y58720D01*
G03X168432Y59160I1981J0D01*
G02X168885Y59644I390J89D01*
G03X169200Y63581I315J1956D01*
G01X168916D01*
X168000Y64497D01*
Y64760D01*
G02X168626Y65090I400J0D01*
G03X171129Y68142I1119J1635D01*
G01X171129Y68143D01*
X170945Y68327D01*
Y70928D01*
X172057Y72040D01*
X178247D01*
X182310Y76103D01*
Y77067D01*
G02X182993Y77350I400J0D01*
G01X188073Y72270D01*
X192313D01*
X194580Y70003D01*
Y68512D01*
X194396Y68328D01*
X194396Y68327D01*
G03X193840Y67312I1384J-1417D01*
G02X193322Y67013I-392J81D01*
G03X191339Y63690I-625J-1880D01*
G02X191386Y63161I-274J-291D01*
G03X191532Y60630I1593J-1178D01*
G02X191500Y60054I-292J-273D01*
G03X194207Y57166I1290J-1504D01*
G01X194208Y57166D01*
X194392Y57350D01*
X199067D01*
X203190Y61473D01*
Y74727D01*
X197937Y79980D01*
X190553D01*
X189000Y81533D01*
Y111383D01*
X195817Y118200D01*
X222893D01*
X224324Y116768D01*
X224325Y116768D01*
G03X224324Y122032I2675J2632D01*
G01X224324Y122031D01*
X222893Y120600D01*
X194823D01*
X188083Y113860D01*
G02X187400Y114143I-283J283D01*
G01Y120943D01*
X194657Y128200D01*
X222893D01*
X224324Y126768D01*
X224325Y126768D01*
G03X224324Y132032I2675J2632D01*
G01X224324Y132031D01*
X222893Y130600D01*
X193663D01*
X186483Y123420D01*
G02X185800Y123703I-283J283D01*
G01Y129993D01*
X193917Y138110D01*
X222983D01*
X224324Y136769D01*
X224324Y136768D01*
G03Y142032I2676J2632D01*
G01X224324Y142031D01*
X222893Y140600D01*
X222650D01*
X222560Y140510D01*
X192923D01*
X184883Y132470D01*
G02X184200Y132753I-283J283D01*
G01Y138853D01*
X193587Y148240D01*
X222610D01*
X222650Y148200D01*
X222660D01*
X223247Y147606D01*
Y145647D01*
X230753D01*
Y145831D01*
G02X231436Y146114I400J0D01*
G01X234580Y142970D01*
Y112470D01*
X234646D01*
Y42120D01*
X234580D01*
Y39190D01*
X234646D01*
Y16146D01*
X220170Y1670D01*
X13150D01*
X1575Y13245D01*
Y13780D01*
X22008D01*
G02X22296Y13103I0J-400D01*
G03X27704I2704J-2603D01*
G02X27992Y13780I288J277D01*
G01X28620D01*
Y24040D01*
X58610D01*
Y29310D01*
X79251D01*
X79290Y29294D01*
G03Y32927I790J1817D01*
G01X79251Y32911D01*
X77817D01*
G02X77525Y33585I0J400D01*
G03X77467Y36357I-1444J1356D01*
G01X77466Y36358D01*
G37*
G36*
G01X16793Y44447D02*
X16665Y44575D01*
X15580Y43740D01*
X16665Y42905D01*
X16793Y43033D01*
G03Y44447I-707J707D01*
G37*
G36*
G01X35936Y93977D02*
X33150Y96378D01*
X29947Y93425D01*
X33150Y90472D01*
X35936Y92874D01*
G03Y93977I-834J552D01*
G37*
G36*
G01X42643Y43033D02*
X45143Y40533D01*
X46100Y42740D01*
Y44740D01*
X45143Y46947D01*
X42643Y44447D01*
G03Y43033I707J-707D01*
G37*
G36*
G01X52153Y59313D02*
X52705Y59865D01*
X51870Y60800D01*
X51035Y59865D01*
X51587Y59313D01*
G03X52153I283J283D01*
G37*
G36*
G01X49057Y64388D02*
X46557Y66888D01*
X45600Y64681D01*
Y62681D01*
X46557Y60474D01*
X49057Y62974D01*
G03Y64388I-707J707D01*
G37*
G36*
G01X45143Y75903D02*
X45015Y75775D01*
X45850Y74690D01*
X46685Y75775D01*
X46557Y75903D01*
G03X45143I-707J-707D01*
G37*
G36*
G01X46557Y73977D02*
X46685Y74105D01*
X45850Y75190D01*
X45015Y74105D01*
X45143Y73977D01*
G03X46557I707J707D01*
G37*
G36*
G01X50480Y124572D02*
X52285Y126377D01*
X50197Y128565D01*
X48109Y126377D01*
X49914Y124572D01*
G03X50480I283J283D01*
G37*
G36*
G01X40455Y122706D02*
X43150Y125512D01*
X40197Y128565D01*
X37244Y125512D01*
X39938Y122706D01*
G03X40455I259J305D01*
G37*
G36*
G01X57971Y52311D02*
X57190D01*
X57119Y51059D01*
X58371Y51130D01*
Y51911D01*
G03X57971Y52311I-400J0D01*
G37*
G36*
G01X55351Y54711D02*
X54570D01*
X54499Y53459D01*
X55751Y53530D01*
Y54311D01*
G03X55351Y54711I-400J0D01*
G37*
G36*
G01X56297Y62974D02*
X56425Y62846D01*
X57510Y63681D01*
X56425Y64516D01*
X56297Y64388D01*
G03Y62974I707J-707D01*
G37*
G36*
G01X53211Y89219D02*
Y90000D01*
X51959Y90071D01*
X52030Y88819D01*
X52811D01*
G03X53211Y89219I0J400D01*
G37*
G36*
G01X70480Y124572D02*
X72285Y126377D01*
X70197Y128565D01*
X68109Y126377D01*
X69914Y124572D01*
G03X70480I283J283D01*
G37*
G36*
G01X60480D02*
X62285Y126377D01*
X60197Y128565D01*
X58109Y126377D01*
X59914Y124572D01*
G03X60480I283J283D01*
G37*
G36*
G01X79117Y30403D02*
X79245Y30275D01*
X80330Y31110D01*
X79245Y31945D01*
X79117Y31818D01*
G03Y30403I707J-707D01*
G37*
G36*
G01X75798Y36328D02*
X75246Y35776D01*
X76081Y34841D01*
X76916Y35776D01*
X76364Y36328D01*
G03X75798I-283J-283D01*
G37*
G36*
G01X76333Y39563D02*
X76885Y40115D01*
X76050Y41050D01*
X75215Y40115D01*
X75767Y39563D01*
G03X76333I283J283D01*
G37*
G36*
G01X88853Y76667D02*
X89405Y76115D01*
X90340Y76950D01*
X89405Y77785D01*
X88853Y77233D01*
G03Y76667I283J-283D01*
G37*
G36*
G01X83800Y100300D02*
X89200D01*
Y88500D01*
X76500D01*
Y93500D01*
X83800D01*
Y100300D01*
G37*
G36*
G01X90480Y124572D02*
X92285Y126377D01*
X90197Y128565D01*
X88109Y126377D01*
X89914Y124572D01*
G03X90480I283J283D01*
G37*
G36*
G01X107029Y62609D02*
X108160Y63740D01*
X106629D01*
Y62609D01*
X107029D01*
G37*
G36*
G01X109217Y63457D02*
X111022Y61652D01*
X113210Y63740D01*
X111022Y65828D01*
X109217Y64023D01*
G03Y63457I283J-283D01*
G37*
G36*
G01X97487Y60897D02*
X96935Y60345D01*
X97770Y59410D01*
X98605Y60345D01*
X98053Y60897D01*
G03X97487I-283J-283D01*
G37*
G36*
G01X109217Y53457D02*
X111022Y51652D01*
X113210Y53740D01*
X111022Y55828D01*
X109217Y54023D01*
G03Y53457I283J-283D01*
G37*
G36*
G01Y83457D02*
X111022Y81652D01*
X113210Y83740D01*
X111022Y85828D01*
X109217Y84023D01*
G03Y83457I283J-283D01*
G37*
G36*
G01Y73457D02*
X111022Y71652D01*
X113210Y73740D01*
X111022Y75828D01*
X109217Y74023D01*
G03Y73457I283J-283D01*
G37*
G36*
G01Y103457D02*
X111022Y101652D01*
X113210Y103740D01*
X111022Y105828D01*
X109217Y104023D01*
G03Y103457I283J-283D01*
G37*
G36*
G01Y93457D02*
X111022Y91652D01*
X113210Y93740D01*
X111022Y95828D01*
X109217Y94023D01*
G03Y93457I283J-283D01*
G37*
G36*
G01X100480Y124572D02*
X102285Y126377D01*
X100197Y128565D01*
X98109Y126377D01*
X99914Y124572D01*
G03X100480I283J283D01*
G37*
G36*
G01X125663Y66693D02*
X123110Y66693D01*
X123039Y63670D01*
X126063Y63740D01*
X126063Y66293D01*
G03X125663Y66693I-400J0D01*
G37*
G36*
G01Y76693D02*
X123110Y76693D01*
X123039Y73670D01*
X126063Y73740D01*
X126063Y76293D01*
G03X125663Y76693I-400J0D01*
G37*
G36*
G01Y86693D02*
X123110Y86693D01*
X123039Y83670D01*
X126063Y83740D01*
X126063Y86293D01*
G03X125663Y86693I-400J0D01*
G37*
G36*
G01Y96693D02*
X123110Y96693D01*
X123039Y93670D01*
X126063Y93740D01*
X126063Y96293D01*
G03X125663Y96693I-400J0D01*
G37*
G36*
G01X127003Y104023D02*
X125198Y105828D01*
X123010Y103740D01*
X125198Y101652D01*
X127003Y103457D01*
G03Y104023I-283J283D01*
G37*
G36*
G01X169462Y68112D02*
X168910Y67560D01*
X169745Y66625D01*
X170580Y67560D01*
X170028Y68112D01*
G03X169462I-283J-283D01*
G37*
G36*
G01X168019Y62381D02*
Y61600D01*
X169271Y61529D01*
X169200Y62781D01*
X168419D01*
G03X168019Y62381I0J-400D01*
G37*
G36*
G01X165319Y59501D02*
Y58720D01*
X166571Y58649D01*
X166500Y59901D01*
X165719D01*
G03X165319Y59501I0J-400D01*
G37*
G36*
G01X160093Y98927D02*
X160645Y98375D01*
X161580Y99210D01*
X160645Y100045D01*
X160093Y99493D01*
G03Y98927I283J-283D01*
G37*
G36*
G01X165409Y99731D02*
Y98950D01*
X166661Y98879D01*
X166590Y100131D01*
X165809D01*
G03X165409Y99731I0J-400D01*
G37*
G36*
G01X168329Y102091D02*
Y101310D01*
X169581Y101239D01*
X169510Y102491D01*
X168729D01*
G03X168329Y102091I0J-400D01*
G37*
G36*
G01X194510Y64450D02*
X193827Y65133D01*
X192604Y65168D01*
X192796Y64050D01*
X194510Y64050D01*
Y64450D01*
G37*
G36*
G01X194367Y62266D02*
X193814Y62818D01*
X192879Y61983D01*
X193814Y61148D01*
X194367Y61700D01*
G03Y62266I-283J283D01*
G37*
G36*
G01X194177Y58833D02*
X193625Y59385D01*
X192690Y58550D01*
X193625Y57715D01*
X194177Y58267D01*
G03Y58833I-283J283D01*
G37*
G36*
G01X195497Y68297D02*
X194945Y67745D01*
X195780Y66810D01*
X196615Y67745D01*
X196063Y68297D01*
G03X195497I-283J-283D01*
G37*
G36*
G01X223107Y129117D02*
X224912Y127312D01*
X227100Y129400D01*
X224912Y131488D01*
X223107Y129683D01*
G03Y129117I283J-283D01*
G37*
G36*
G01Y119117D02*
X224912Y117312D01*
X227100Y119400D01*
X224912Y121488D01*
X223107Y119683D01*
G03Y119117I283J-283D01*
G37*
G36*
G01X222806Y149191D02*
X224047Y147934D01*
X227100Y149400D01*
X224047Y150866D01*
X222806Y149609D01*
G03Y149191I341J-209D01*
G37*
G36*
G01X223107Y139117D02*
X224912Y137312D01*
X227100Y139400D01*
X224912Y141488D01*
X223107Y139683D01*
G03Y139117I283J-283D01*
G37*
%LPC*%
G75*
G36*
G01X13480Y98405D02*
X16444Y101370D01*
X16444Y103398D01*
Y103399D01*
G02X21127Y99789I3753J27D01*
G01X20981Y99752D01*
X20979Y99672D01*
X18141D01*
X15880Y97411D01*
Y88942D01*
X16068Y88754D01*
G02X13292Y88754I-1387J-1414D01*
G01X13293Y88754D01*
X13480Y88942D01*
Y98405D01*
G37*
G54D18*
X7874Y83740D03*
Y73740D03*
Y63740D03*
Y113740D03*
Y103740D03*
Y93740D03*
X20197Y93425D03*
X35000Y10500D03*
X45000D03*
X55000D03*
X30197Y103425D03*
X50197Y138465D03*
X40197D03*
X50118Y149606D03*
X40118D03*
X65000Y10500D03*
X75000D03*
X85000D03*
X80197Y138465D03*
X70197D03*
X60197D03*
X80118Y149606D03*
X70118D03*
X60118D03*
X95000Y10500D03*
X105000D03*
X115000D03*
X110197Y138465D03*
Y128465D03*
X100197Y138465D03*
X90197D03*
X100118Y149606D03*
X90118D03*
X125000Y10500D03*
X135000D03*
X145000D03*
X155000D03*
X165000D03*
X175000D03*
X185000D03*
X195000D03*
X205000D03*
G54D17*
X7874Y53740D03*
Y32559D03*
X20118Y149606D03*
X30118D03*
G54D16*
X215000Y10500D03*
X7874Y43740D03*
G54D19*
Y22559D03*
%LPD*%
G75*
G36*
G01X14397Y88727D02*
X13845Y88175D01*
X14680Y87240D01*
X15515Y88175D01*
X14963Y88727D01*
G03X14397I-283J-283D01*
G37*
G36*
G01X17644Y100472D02*
X20197Y100473D01*
X20268Y103496D01*
X17244Y103425D01*
X17244Y100872D01*
G03X17644Y100472I400J0D01*
G37*
G36*
G01X76719Y91181D02*
Y91000D01*
X78077Y90823D01*
X77900Y92181D01*
X77719D01*
G03X76719Y91181I0J-1000D01*
G37*
G54D10*
X7874Y22559D03*
Y43740D03*
X10118Y149606D03*
X30197Y93425D03*
X40197Y128465D03*
X123110Y53740D03*
X215000Y10500D03*
X227000Y149400D03*
G54D11*
X7874Y32559D03*
Y53740D03*
Y73740D03*
Y63740D03*
Y93740D03*
Y83740D03*
Y113740D03*
Y103740D03*
X25000Y10500D03*
X20197Y93425D03*
Y103425D03*
X30197D03*
X30118Y149606D03*
X20118D03*
X35000Y10500D03*
X45000D03*
X50197Y128465D03*
Y138465D03*
X40197D03*
X50118Y149606D03*
X40118D03*
X55000Y10500D03*
X65000D03*
X70197Y128465D03*
X60197D03*
X70197Y138465D03*
X60197D03*
X70118Y149606D03*
X60118D03*
X75000Y10500D03*
X85000D03*
X90197Y128465D03*
X80197D03*
X90197Y138465D03*
X80197D03*
X90118Y149606D03*
X80118D03*
X95000Y10500D03*
X105000D03*
X113110Y53740D03*
Y73740D03*
Y63740D03*
Y93740D03*
Y83740D03*
Y103740D03*
X110197Y128465D03*
X100197D03*
X110197Y138465D03*
X100197D03*
X100118Y149606D03*
X115000Y10500D03*
X125000D03*
X123110Y73740D03*
Y63740D03*
Y93740D03*
Y83740D03*
Y103740D03*
X135000Y10500D03*
X145000D03*
X155000D03*
X165000D03*
X175000D03*
X185000D03*
X195000D03*
X205000D03*
X227000Y119400D03*
Y129400D03*
Y139400D03*
G54D12*
X15830Y43740D03*
X14680Y87340D03*
X50170Y45830D03*
X51870Y60700D03*
X52030Y90000D03*
X45850Y74940D03*
X60710Y45830D03*
X57190Y51130D03*
X67650Y67280D03*
X54570Y53530D03*
X57260Y63681D03*
X80080Y31110D03*
X73510Y45640D03*
X76050Y40950D03*
X76081Y34941D03*
X72580Y67330D03*
X90240Y76950D03*
X77900Y91000D03*
X86500Y98700D03*
X97770Y59510D03*
X169745Y66725D03*
X169200Y61600D03*
X166500Y58720D03*
X161480Y99210D03*
X166590Y98950D03*
X169510Y101310D03*
X179060Y52230D03*
X174470D03*
X192979Y61983D03*
X183750Y52380D03*
X192790Y58550D03*
X192697Y65133D03*
X174370Y104460D03*
X179840Y104680D03*
X195780Y66910D03*
G54D13*
G01X7874Y28906D02*
Y32559D01*
G01D02*
Y36212D01*
G01X4221Y32559D02*
X7874D01*
G01D02*
X11527D01*
G01X7874Y50087D02*
Y53740D01*
G01D02*
Y57393D01*
G01X4221Y53740D02*
X7874D01*
G01D02*
X11527D01*
G01X10118Y145953D02*
Y149606D01*
G01D02*
Y153259D01*
G01X6465Y149606D02*
X10118D01*
G01D02*
X13771D01*
G01X14680Y87340D02*
Y97908D01*
X20197Y103425D01*
G01X30118Y145953D02*
Y149606D01*
G01D02*
Y153259D01*
G01X26465Y149606D02*
X30118D01*
G01D02*
X33771D01*
G01X20118Y145953D02*
Y149606D01*
G01D02*
Y153259D01*
G01X16465Y149606D02*
X20118D01*
G01D02*
X23771D01*
G01X60710Y45830D02*
X50170D01*
G01X50197Y128465D02*
Y123243D01*
X53160Y120280D01*
X82480D01*
X96690Y106070D01*
Y82320D01*
X101280Y77730D01*
Y67270D01*
X104810Y63740D01*
X108160D01*
G01X97770Y59510D02*
Y76610D01*
X94540Y79840D01*
Y104550D01*
X81250Y117840D01*
X45200D01*
X40197Y122843D01*
Y128465D01*
G01X57190Y51130D02*
X59800Y53740D01*
X113110D01*
G01X76050Y40950D02*
Y46760D01*
X74340Y48470D01*
X54790D01*
X51870Y51390D01*
Y60700D01*
G01X54570Y53530D02*
X56460Y55420D01*
X99840D01*
X108160Y63740D01*
G01X90240Y76950D02*
X65080D01*
X52030Y90000D01*
G01X113110Y83740D02*
X109257D01*
X108917Y83400D01*
X105680D01*
X100990Y88090D01*
Y109190D01*
X86700Y123480D01*
X71329D01*
X70197Y124612D01*
Y128465D01*
G01X113110Y73740D02*
X109257D01*
X109137Y73620D01*
X107440D01*
X102940Y78120D01*
Y81830D01*
X98840Y85930D01*
Y107330D01*
X84290Y121880D01*
X62929D01*
X60197Y124612D01*
Y128465D01*
G01X76050Y40950D02*
Y38691D01*
X76081Y38660D01*
Y34941D01*
G01X90197Y128465D02*
Y123113D01*
X92200Y121110D01*
X96490D01*
X103240Y114360D01*
Y96770D01*
X106360Y93650D01*
X109167D01*
X109257Y93740D01*
X113110D01*
G01X108160Y63740D02*
X113110D01*
G01Y103740D02*
X109257D01*
X105680Y107318D01*
Y117890D01*
X100197Y123373D01*
Y128465D01*
G01X123110Y63740D02*
X130520Y71150D01*
Y87483D01*
X137837Y94800D01*
X172693D01*
X179490Y88003D01*
Y78720D01*
X176520Y75750D01*
X170820D01*
X166800Y71730D01*
Y64000D01*
X169200Y61600D01*
G01X123110Y53740D02*
X132120Y62750D01*
Y86820D01*
X138500Y93200D01*
X172030D01*
X177440Y87790D01*
Y80940D01*
X174650Y78150D01*
X169420D01*
X164190Y72920D01*
Y61030D01*
X166500Y58720D01*
G01X123110Y73740D02*
X128920Y79550D01*
Y88146D01*
X135300Y94526D01*
X137174Y96400D01*
X173356D01*
X181110Y88646D01*
Y76600D01*
X177750Y73240D01*
X171560D01*
X169745Y71425D01*
Y66725D01*
G01X123110Y83740D02*
X127320Y87950D01*
Y92560D01*
X133970Y99210D01*
X161480D01*
G01X166590Y98950D02*
X163710Y101830D01*
X131200D01*
X123110Y93740D01*
G01X169510Y101310D02*
X167080Y103740D01*
X123110D01*
G01X192979Y61983D02*
X198263D01*
X200390Y64110D01*
Y71810D01*
X195020Y77180D01*
X189393D01*
X186200Y80373D01*
Y121440D01*
X194160Y129400D01*
X227000D01*
G01X192790Y58550D02*
X198570D01*
X201990Y61970D01*
Y74230D01*
X197440Y78780D01*
X190056D01*
X187800Y81036D01*
Y111880D01*
X195320Y119400D01*
X227000D01*
G01X192697Y65133D02*
X193827D01*
X194510Y64450D01*
X196990D01*
X198280Y65740D01*
Y71000D01*
X194210Y75070D01*
X189240D01*
X184600Y79710D01*
Y130490D01*
X193420Y139310D01*
X223057D01*
X223147Y139400D01*
X227000D01*
G01X195780Y66910D02*
Y70500D01*
X192810Y73470D01*
X188570D01*
X183000Y79040D01*
Y139350D01*
X193090Y149440D01*
X223107D01*
X223147Y149400D01*
X227000D01*
G54D14*
G01X15830Y43740D02*
X45850D01*
G01X30197Y93425D02*
X45665D01*
X45850Y93610D01*
G01X80080Y31110D02*
X45850D01*
Y43740D01*
G01Y63681D02*
Y43740D01*
G01Y74940D02*
Y63681D01*
G01X57260D02*
X45850D01*
G01Y93610D02*
Y74940D01*
G01Y93610D02*
X46100Y93360D01*
X75540D01*
X77900Y91000D01*
G54D15*
G01X7874Y0D02*
X228346D01*
G03X236220Y7874I0J7874D01*
G01Y149606D01*
G03X228346Y157480I-7874J0D01*
G01X7874D01*
G03X0Y149606I0J-7874D01*
G01Y7874D01*
G03X7874Y0I7874J0D01*
M02*
