G04 ================== begin FILE IDENTIFICATION RECORD ==================*
G04 Layout Name:  lcdpower.brd*
G04 Film Name:    PASTERMASK_TOP*
G04 File Format:  Gerber RS274X*
G04 File Origin:  Cadence Allegro 16.5-P002*
G04 Origin Date:  Tue Jun 09 14:50:47 2015*
G04 *
G04 Layer:  PIN/PASTEMASK_TOP*
G04 Layer:  DRC ERROR CLASS/PASTEMASK_TOP*
G04 Layer:  BOARD GEOMETRY/OUTLINE*
G04 *
G04 Offset:    (0.000 0.000)*
G04 Mirror:    No*
G04 Mode:      Positive*
G04 Rotation:  0*
G04 FullContactRelief:  No*
G04 UndefLineWidth:     0.100*
G04 ================== end FILE IDENTIFICATION RECORD ====================*
%FSLAX35Y35*MOIN*%
%IR0*IPPOS*OFA0.00000B0.00000*MIA0B0*SFA1.00000B1.00000*%
%ADD27R,.023622X.009843*%
%ADD18R,.009843X.023622*%
%ADD22R,.007874X.023622*%
%ADD19R,.05X.037402*%
%ADD26R,.037402X.05*%
%ADD14R,.047244X.011811*%
%ADD25R,.011811X.047244*%
%ADD11C,.059055*%
%ADD24R,.047244X.025591*%
%ADD21R,.086614X.066142*%
%ADD12R,.031496X.025591*%
%ADD10R,.059055X.059055*%
%ADD15R,.025591X.031496*%
%ADD20R,.031496X.086614*%
%ADD13R,.047244X.019685*%
%ADD16R,.031496X.027559*%
%ADD23R,.027559X.031496*%
%ADD17R,.07874X.062992*%
%ADD28C,.000394*%
G75*
%LPD*%
G75*
G54D10*
X7874Y22559D03*
Y43740D03*
X10118Y149606D03*
X30197Y93425D03*
X40197Y128465D03*
X123110Y53740D03*
X215000Y10500D03*
X227000Y149400D03*
G54D20*
X68276Y81100D03*
X72441Y116535D03*
X77724Y81100D03*
X81890Y116535D03*
G54D11*
X7874Y32559D03*
Y53740D03*
Y73740D03*
Y63740D03*
Y93740D03*
Y83740D03*
Y113740D03*
Y103740D03*
X25000Y10500D03*
X20197Y93425D03*
Y103425D03*
X30197D03*
X30118Y149606D03*
X20118D03*
X35000Y10500D03*
X45000D03*
X50197Y128465D03*
Y138465D03*
X40197D03*
X50118Y149606D03*
X40118D03*
X55000Y10500D03*
X65000D03*
X70197Y128465D03*
X60197D03*
X70197Y138465D03*
X60197D03*
X70118Y149606D03*
X60118D03*
X75000Y10500D03*
X85000D03*
X90197Y128465D03*
X80197D03*
X90197Y138465D03*
X80197D03*
X90118Y149606D03*
X80118D03*
X95000Y10500D03*
X105000D03*
X113110Y53740D03*
Y73740D03*
Y63740D03*
Y93740D03*
Y83740D03*
Y103740D03*
X110197Y128465D03*
X100197D03*
X110197Y138465D03*
X100197D03*
X100118Y149606D03*
X115000Y10500D03*
X125000D03*
X123110Y73740D03*
Y63740D03*
Y93740D03*
Y83740D03*
Y103740D03*
X135000Y10500D03*
X145000D03*
X155000D03*
X165000D03*
X175000D03*
X185000D03*
X195000D03*
X205000D03*
X227000Y119400D03*
Y129400D03*
Y139400D03*
G54D12*
X29921Y27461D03*
Y22146D03*
X24409D03*
Y27461D03*
X50800Y79142D03*
Y84458D03*
X72047Y29626D03*
X67323D03*
X72047Y34941D03*
X67323D03*
X64173Y58366D03*
Y63681D03*
G54D21*
X66142Y98819D03*
G54D13*
X21801Y69488D03*
G54D22*
X62205Y104331D03*
X63780D03*
X65354D03*
X66929D03*
X68504D03*
X70079D03*
Y93307D03*
X68504D03*
X66929D03*
X65354D03*
X63780D03*
X62205D03*
G54D23*
X86417Y35433D03*
X81299D03*
G54D14*
X30167Y69094D03*
Y74213D03*
X21801D03*
X176181Y56299D03*
X186024D03*
X176181Y101181D03*
X186024D03*
G54D15*
X27067Y79528D03*
X21752D03*
G54D24*
X81102Y51476D03*
Y40650D03*
G54D16*
X38583Y62795D03*
Y67913D03*
Y80118D03*
Y75000D03*
X70800Y63529D03*
Y58411D03*
G54D25*
X81102Y66339D03*
Y56496D03*
G54D17*
X67323Y46457D03*
G54D26*
X87382Y90945D03*
X81122D03*
G54D18*
X71260Y40945D03*
X69291D03*
X67323D03*
X65354D03*
X63386D03*
Y51968D03*
X65354D03*
X67323D03*
X69291D03*
X71260D03*
G54D27*
X176181Y70866D03*
Y69291D03*
Y67716D03*
Y66142D03*
Y64567D03*
Y62992D03*
Y61417D03*
Y59842D03*
X186024D03*
Y61417D03*
Y62992D03*
Y64567D03*
Y66142D03*
Y67716D03*
Y69291D03*
Y70866D03*
X176181Y91339D03*
Y89764D03*
Y88189D03*
Y86614D03*
Y85039D03*
Y83465D03*
Y81890D03*
Y80315D03*
Y78740D03*
Y77165D03*
Y75591D03*
Y74016D03*
Y72441D03*
X186024D03*
Y74016D03*
Y75591D03*
Y77165D03*
Y78740D03*
Y80315D03*
Y81890D03*
Y83465D03*
Y85039D03*
Y86614D03*
Y88189D03*
Y89764D03*
Y91339D03*
X176181Y97638D03*
Y96063D03*
Y94488D03*
Y92913D03*
X186024D03*
Y94488D03*
Y96063D03*
Y97638D03*
G54D28*
G01X7874Y0D02*
X228346D01*
G03X236220Y7874I0J7874D01*
G01Y149606D01*
G03X228346Y157480I-7874J0D01*
G01X7874D01*
G03X0Y149606I0J-7874D01*
G01Y7874D01*
G03X7874Y0I7874J0D01*
G54D19*
X61900Y78570D03*
Y84830D03*
X61024Y112618D03*
Y118878D03*
X81102Y104705D03*
Y98445D03*
M02*
