G04 ================== begin FILE IDENTIFICATION RECORD ==================*
G04 Layout Name:  lcdpower.brd*
G04 Film Name:    SILKSCREEN_TOP*
G04 File Format:  Gerber RS274X*
G04 File Origin:  Cadence Allegro 16.5-P002*
G04 Origin Date:  Tue Jun 09 14:50:47 2015*
G04 *
G04 Layer:  MANUFACTURING/AUTOSILK_TOP*
G04 Layer:  MANUFACTURING/PEN3*
G04 Layer:  BOARD GEOMETRY/OUTLINE*
G04 *
G04 Offset:    (0.000 0.000)*
G04 Mirror:    No*
G04 Mode:      Positive*
G04 Rotation:  0*
G04 FullContactRelief:  No*
G04 UndefLineWidth:     0.100*
G04 ================== end FILE IDENTIFICATION RECORD ====================*
%FSLAX35Y35*MOIN*%
%IR0*IPPOS*OFA0.00000B0.00000*MIA0B0*SFA1.00000B1.00000*%
%ADD10C,.001*%
%ADD11C,.006*%
%ADD12C,.005906*%
%ADD13C,.012*%
%ADD14C,.0001*%
%ADD15C,.000394*%
G75*
%LPD*%
G75*
G54D10*
G01X6575Y140551D02*
X13175D01*
G01X6675Y140651D02*
X13075D01*
G01X6775Y140751D02*
X12975D01*
G01X6875Y140851D02*
X12875D01*
G01X6975Y140951D02*
X12775D01*
G01X7075Y141051D02*
X12675D01*
G01X7175Y141151D02*
X12575D01*
G01X7275Y141251D02*
X12475D01*
G01X7375Y141351D02*
X12375D01*
G01X7475Y141451D02*
X12275D01*
G01X7575Y141551D02*
X12175D01*
G01X7675Y141651D02*
X12075D01*
G01X7775Y141751D02*
X11975D01*
G01X7875Y141851D02*
X11875D01*
G01X7975Y141951D02*
X11775D01*
G01X8075Y142051D02*
X11675D01*
G01X8175Y142151D02*
X11575D01*
G01X8275Y142251D02*
X11475D01*
G01X8375Y142351D02*
X11375D01*
G01X8475Y142451D02*
X11275D01*
G01X8575Y142551D02*
X11175D01*
G01X8675Y142651D02*
X11075D01*
G01X8775Y142751D02*
X10975D01*
G01X8875Y142851D02*
X10875D01*
G01X8975Y142951D02*
X10775D01*
G01X9075Y143051D02*
X10675D01*
G01X9175Y143151D02*
X10575D01*
G01X9275Y143251D02*
X10475D01*
G01X9375Y143351D02*
X10375D01*
G01X9475Y143451D02*
X10275D01*
G01X9575Y143551D02*
X10175D01*
G01X9675Y143651D02*
X10075D01*
G01X9775Y143751D02*
X9975D01*
G01X16850Y19016D02*
Y25616D01*
G01X16750Y19116D02*
Y25516D01*
G01X16650Y19216D02*
Y25416D01*
G01X16550Y19316D02*
Y25316D01*
G01X16450Y19416D02*
Y25216D01*
G01X16350Y19516D02*
Y25116D01*
G01X16250Y19616D02*
Y25016D01*
G01X16150Y19716D02*
Y24916D01*
G01X16050Y19816D02*
Y24816D01*
G01X15950Y19916D02*
Y24716D01*
G01X15850Y20016D02*
Y24616D01*
G01X15750Y20116D02*
Y24516D01*
G01X15650Y20216D02*
Y24416D01*
G01X15550Y20316D02*
Y24316D01*
G01X15450Y20416D02*
Y24216D01*
G01X15350Y20516D02*
Y24116D01*
G01X15250Y20616D02*
Y24016D01*
G01X15150Y20716D02*
Y23916D01*
G01X15050Y20816D02*
Y23816D01*
G01X14950Y20916D02*
Y23716D01*
G01X14850Y21016D02*
Y23616D01*
G01X14750Y21116D02*
Y23516D01*
G01X14650Y21216D02*
Y23416D01*
G01X14550Y21316D02*
Y23316D01*
G01X14450Y21416D02*
Y23216D01*
G01X14350Y21516D02*
Y23116D01*
G01X14250Y21616D02*
Y23016D01*
G01X14150Y21716D02*
Y22916D01*
G01X14050Y21816D02*
Y22816D01*
G01X13950Y21916D02*
Y22716D01*
G01X13850Y22016D02*
Y22616D01*
G01X13750Y22116D02*
Y22516D01*
G01X13650Y22216D02*
Y22416D01*
G01X16929Y40591D02*
Y47191D01*
G01X16829Y40691D02*
Y47091D01*
G01X16729Y40791D02*
Y46991D01*
G01X16629Y40891D02*
Y46891D01*
G01X16529Y40991D02*
Y46791D01*
G01X16429Y41091D02*
Y46691D01*
G01X16329Y41191D02*
Y46591D01*
G01X16229Y41291D02*
Y46491D01*
G01X16129Y41391D02*
Y46391D01*
G01X16029Y41491D02*
Y46291D01*
G01X15929Y41591D02*
Y46191D01*
G01X15829Y41691D02*
Y46091D01*
G01X15729Y41791D02*
Y45991D01*
G01X15629Y41891D02*
Y45891D01*
G01X15529Y41991D02*
Y45791D01*
G01X15429Y42091D02*
Y45691D01*
G01X15329Y42191D02*
Y45591D01*
G01X15229Y42291D02*
Y45491D01*
G01X15129Y42391D02*
Y45391D01*
G01X15029Y42491D02*
Y45291D01*
G01X14929Y42591D02*
Y45191D01*
G01X14829Y42691D02*
Y45091D01*
G01X14729Y42791D02*
Y44991D01*
G01X14629Y42891D02*
Y44891D01*
G01X14529Y42991D02*
Y44791D01*
G01X14429Y43091D02*
Y44691D01*
G01X14329Y43191D02*
Y44591D01*
G01X14229Y43291D02*
Y44491D01*
G01X14129Y43391D02*
Y44391D01*
G01X14029Y43491D02*
Y44291D01*
G01X13929Y43591D02*
Y44191D01*
G01X13829Y43691D02*
Y44091D01*
G01X13729Y43791D02*
Y43991D01*
G01X15108Y77362D02*
Y70762D01*
G01X15208Y77262D02*
Y70862D01*
G01X15308Y77162D02*
Y70962D01*
G01X15408Y77062D02*
Y71062D01*
G01X15508Y76962D02*
Y71162D01*
G01X15608Y76862D02*
Y71262D01*
G01X15708Y76762D02*
Y71362D01*
G01X15808Y76662D02*
Y71462D01*
G01X15908Y76562D02*
Y71562D01*
G01X16008Y76462D02*
Y71662D01*
G01X16108Y76362D02*
Y71762D01*
G01X16208Y76262D02*
Y71862D01*
G01X16308Y76162D02*
Y71962D01*
G01X16408Y76062D02*
Y72062D01*
G01X16508Y75962D02*
Y72162D01*
G01X16608Y75862D02*
Y72262D01*
G01X16708Y75762D02*
Y72362D01*
G01X16808Y75662D02*
Y72462D01*
G01X16908Y75562D02*
Y72562D01*
G01X17008Y75462D02*
Y72662D01*
G01X17108Y75362D02*
Y72762D01*
G01X17208Y75262D02*
Y72862D01*
G01X17308Y75162D02*
Y72962D01*
G01X17408Y75062D02*
Y73062D01*
G01X17508Y74962D02*
Y73162D01*
G01X17608Y74862D02*
Y73262D01*
G01X17708Y74762D02*
Y73362D01*
G01X17808Y74662D02*
Y73462D01*
G01X17908Y74562D02*
Y73562D01*
G01X18008Y74462D02*
Y73662D01*
G01X18108Y74362D02*
Y73762D01*
G01X18208Y74262D02*
Y73862D01*
G01X18308Y74162D02*
Y73962D01*
G01X39646Y89882D02*
Y96482D01*
G01X39546Y89982D02*
Y96382D01*
G01X39446Y90082D02*
Y96282D01*
G01X39346Y90182D02*
Y96182D01*
G01X39246Y90282D02*
Y96082D01*
G01X39146Y90382D02*
Y95982D01*
G01X39046Y90482D02*
Y95882D01*
G01X38946Y90582D02*
Y95782D01*
G01X38846Y90682D02*
Y95682D01*
G01X38746Y90782D02*
Y95582D01*
G01X38646Y90882D02*
Y95482D01*
G01X38546Y90982D02*
Y95382D01*
G01X38446Y91082D02*
Y95282D01*
G01X38346Y91182D02*
Y95182D01*
G01X38246Y91282D02*
Y95082D01*
G01X38146Y91382D02*
Y94982D01*
G01X38046Y91482D02*
Y94882D01*
G01X37946Y91582D02*
Y94782D01*
G01X37846Y91682D02*
Y94682D01*
G01X37746Y91782D02*
Y94582D01*
G01X37646Y91882D02*
Y94482D01*
G01X37546Y91982D02*
Y94382D01*
G01X37446Y92082D02*
Y94282D01*
G01X37346Y92182D02*
Y94182D01*
G01X37246Y92282D02*
Y94082D01*
G01X37146Y92382D02*
Y93982D01*
G01X37046Y92482D02*
Y93882D01*
G01X36946Y92582D02*
Y93782D01*
G01X36846Y92682D02*
Y93682D01*
G01X36746Y92782D02*
Y93582D01*
G01X36646Y92882D02*
Y93482D01*
G01X36546Y92982D02*
Y93382D01*
G01X36446Y93082D02*
Y93282D01*
G01X36654Y119016D02*
X43254D01*
G01X36754Y119116D02*
X43154D01*
G01X36854Y119216D02*
X43054D01*
G01X36954Y119316D02*
X42954D01*
G01X37054Y119416D02*
X42854D01*
G01X37154Y119516D02*
X42754D01*
G01X37254Y119616D02*
X42654D01*
G01X37354Y119716D02*
X42554D01*
G01X37454Y119816D02*
X42454D01*
G01X37554Y119916D02*
X42354D01*
G01X37654Y120016D02*
X42254D01*
G01X37754Y120116D02*
X42154D01*
G01X37854Y120216D02*
X42054D01*
G01X37954Y120316D02*
X41954D01*
G01X38054Y120416D02*
X41854D01*
G01X38154Y120516D02*
X41754D01*
G01X38254Y120616D02*
X41654D01*
G01X38354Y120716D02*
X41554D01*
G01X38454Y120816D02*
X41454D01*
G01X38554Y120916D02*
X41354D01*
G01X38654Y121016D02*
X41254D01*
G01X38754Y121116D02*
X41154D01*
G01X38854Y121216D02*
X41054D01*
G01X38954Y121316D02*
X40954D01*
G01X39054Y121416D02*
X40854D01*
G01X39154Y121516D02*
X40754D01*
G01X39254Y121616D02*
X40654D01*
G01X39354Y121716D02*
X40554D01*
G01X39454Y121816D02*
X40454D01*
G01X39554Y121916D02*
X40354D01*
G01X39654Y122016D02*
X40254D01*
G01X39754Y122116D02*
X40154D01*
G01X39854Y122216D02*
X40054D01*
G01X59936Y36348D02*
X66536D01*
G01X60036Y36448D02*
X66436D01*
G01X60136Y36548D02*
X66336D01*
G01X60236Y36648D02*
X66236D01*
G01X60336Y36748D02*
X66136D01*
G01X60436Y36848D02*
X66036D01*
G01X60536Y36948D02*
X65936D01*
G01X60636Y37048D02*
X65836D01*
G01X60736Y37148D02*
X65736D01*
G01X60836Y37248D02*
X65636D01*
G01X60936Y37348D02*
X65536D01*
G01X61036Y37448D02*
X65436D01*
G01X61136Y37548D02*
X65336D01*
G01X61236Y37648D02*
X65236D01*
G01X61336Y37748D02*
X65136D01*
G01X61436Y37848D02*
X65036D01*
G01X61536Y37948D02*
X64936D01*
G01X61636Y38048D02*
X64836D01*
G01X61736Y38148D02*
X64736D01*
G01X61836Y38248D02*
X64636D01*
G01X61936Y38348D02*
X64536D01*
G01X62036Y38448D02*
X64436D01*
G01X62136Y38548D02*
X64336D01*
G01X62236Y38648D02*
X64236D01*
G01X62336Y38748D02*
X64136D01*
G01X62436Y38848D02*
X64036D01*
G01X62536Y38948D02*
X63936D01*
G01X62636Y39048D02*
X63836D01*
G01X62736Y39148D02*
X63736D01*
G01X62836Y39248D02*
X63636D01*
G01X62936Y39348D02*
X63536D01*
G01X63036Y39448D02*
X63436D01*
G01X63136Y39548D02*
X63336D01*
G01X73622Y110236D02*
X67022D01*
G01X73522Y110136D02*
X67122D01*
G01X73422Y110036D02*
X67222D01*
G01X73322Y109936D02*
X67322D01*
G01X73222Y109836D02*
X67422D01*
G01X73122Y109736D02*
X67522D01*
G01X73022Y109636D02*
X67622D01*
G01X72922Y109536D02*
X67722D01*
G01X72822Y109436D02*
X67822D01*
G01X72722Y109336D02*
X67922D01*
G01X72622Y109236D02*
X68022D01*
G01X72522Y109136D02*
X68122D01*
G01X72422Y109036D02*
X68222D01*
G01X72322Y108936D02*
X68322D01*
G01X72222Y108836D02*
X68422D01*
G01X72122Y108736D02*
X68522D01*
G01X72022Y108636D02*
X68622D01*
G01X71922Y108536D02*
X68722D01*
G01X71822Y108436D02*
X68822D01*
G01X71722Y108336D02*
X68922D01*
G01X71622Y108236D02*
X69022D01*
G01X71522Y108136D02*
X69122D01*
G01X71422Y108036D02*
X69222D01*
G01X71322Y107936D02*
X69322D01*
G01X71222Y107836D02*
X69422D01*
G01X71122Y107736D02*
X69522D01*
G01X71022Y107636D02*
X69622D01*
G01X70922Y107536D02*
X69722D01*
G01X70822Y107436D02*
X69822D01*
G01X70722Y107336D02*
X69922D01*
G01X70622Y107236D02*
X70022D01*
G01X70522Y107136D02*
X70122D01*
G01X70422Y107036D02*
X70222D01*
G01X131965Y50397D02*
Y56597D01*
G01X131865Y50497D02*
Y56497D01*
G01X131765Y50597D02*
Y56397D01*
G01X131665Y50697D02*
Y56297D01*
G01X131565Y50797D02*
Y56197D01*
G01X131465Y50897D02*
Y56097D01*
G01X131365Y50997D02*
Y55997D01*
G01X131265Y51097D02*
Y55897D01*
G01X131165Y51197D02*
Y55797D01*
G01X131065Y51297D02*
Y55697D01*
G01X130965Y51397D02*
Y55597D01*
G01X130865Y51497D02*
Y55497D01*
G01X130765Y51597D02*
Y55397D01*
G01X130665Y51697D02*
Y55297D01*
G01X130565Y51797D02*
Y55197D01*
G01X130465Y51897D02*
Y55097D01*
G01X130365Y51997D02*
Y54997D01*
G01X130265Y52097D02*
Y54897D01*
G01X130165Y52197D02*
Y54797D01*
G01X130065Y52297D02*
Y54697D01*
G01X129965Y52397D02*
Y54597D01*
G01X129865Y52497D02*
Y54497D01*
G01X129765Y52597D02*
Y54397D01*
G01X129665Y52697D02*
Y54297D01*
G01X129565Y52797D02*
Y54197D01*
G01X129465Y52897D02*
Y54097D01*
G01X129365Y52997D02*
Y53997D01*
G01X129265Y53097D02*
Y53897D01*
G01X129165Y53197D02*
Y53797D01*
G01X129065Y53297D02*
Y53697D01*
G01X128965Y53397D02*
Y53597D01*
G01X132165Y50197D02*
Y56797D01*
G01X132065Y50297D02*
Y56697D01*
G01X145970Y131910D02*
X152570D01*
G01X146070Y131810D02*
X152670D01*
G01X146070Y131710D02*
X152670D01*
G01X146170Y131610D02*
X152770D01*
G01X146170Y131510D02*
X152770D01*
G01X146270Y131410D02*
X152870D01*
G01X146270Y131310D02*
X152870D01*
G01X146270Y131210D02*
X152970D01*
G01X146370Y131110D02*
X152970D01*
G01X146470Y131010D02*
X153070D01*
G01X146470Y130910D02*
X153070D01*
G01X146570Y130810D02*
X153170D01*
G01X146570Y130710D02*
X153170D01*
G01X146670Y130610D02*
X153170D01*
G01X146670Y130510D02*
X153270D01*
G01X146770Y130410D02*
X153270D01*
G01X146770Y130310D02*
X153370D01*
G01X146870Y130210D02*
X153370D01*
G01X146870Y130110D02*
X153470D01*
G01X146970Y130010D02*
X153470D01*
G01X146970Y128810D02*
X162470D01*
G01X143170Y128710D02*
X162570D01*
G01X143170Y128610D02*
X162570D01*
G01X143170Y128510D02*
X162370D01*
G01X143170Y128410D02*
X162270D01*
G01X143170Y128310D02*
X162170D01*
G01X143170Y128210D02*
X162070D01*
G01X143170Y128110D02*
X161970D01*
G01X143170Y128010D02*
X161970D01*
G01X143170Y127910D02*
X161770D01*
G01X143170Y127810D02*
X161670D01*
G01X143170Y127710D02*
X161570D01*
G01X143170Y127610D02*
X161470D01*
G01X143170Y127510D02*
X161470D01*
G01X143170Y127410D02*
X161270D01*
G01X143170Y127310D02*
X161170D01*
G01X143170Y127210D02*
X161070D01*
G01X143170Y127110D02*
X160970D01*
G01X143170Y127010D02*
X160970D01*
G01X143170Y126910D02*
X160770D01*
G01X143170Y126810D02*
X160670D01*
G01X143170Y126710D02*
X160570D01*
G01X143170Y126610D02*
X160470D01*
G01X143170Y126510D02*
X160470D01*
G01X143170Y126410D02*
X160370D01*
G01X143170Y126310D02*
X160170D01*
G01X143170Y126210D02*
X160070D01*
G01X143170Y126110D02*
X159970D01*
G01X143170Y126010D02*
X159870D01*
G01X143170Y125910D02*
X159770D01*
G01X143170Y125810D02*
X159670D01*
G01X143170Y125710D02*
X159570D01*
G01X143170Y125610D02*
X159470D01*
G01X143170Y125510D02*
X159370D01*
G01X143170Y125410D02*
X159270D01*
G01X143170Y125310D02*
X159170D01*
G01X143170Y125210D02*
X159070D01*
G01X143170Y125110D02*
X158970D01*
G01X143170Y125010D02*
X158870D01*
G01X143170Y124910D02*
X158770D01*
G01X143170Y124810D02*
X158670D01*
G01X143170Y124710D02*
X158570D01*
G01X143170Y124610D02*
X158470D01*
G01X143170Y124510D02*
X158370D01*
G01X143170Y124410D02*
X158270D01*
G01X143170Y124310D02*
X158170D01*
G01X143170Y124210D02*
X158070D01*
G01X143170Y124110D02*
X157970D01*
G01X143170Y124010D02*
X157870D01*
G01X143170Y123910D02*
X157770D01*
G01X143170Y123810D02*
X157670D01*
G01X143170Y123710D02*
X157570D01*
G01X143170Y123610D02*
X157470D01*
G01X143170Y123510D02*
X157370D01*
G01X143170Y123410D02*
X155370D01*
G01X143170Y123310D02*
X145270D01*
G01X145370D02*
X145470D01*
G01X143970Y120910D02*
X145570D01*
G01X145870D02*
X146470D01*
G01X147770D02*
X148270D01*
G01X148870D02*
X150870D01*
G01X151470D02*
X153570D01*
G01X143670Y120810D02*
X145570D01*
G01X145870D02*
X146470D01*
G01X147770D02*
X148270D01*
G01X148670D02*
X150970D01*
G01X151370D02*
X153570D01*
G01X143470Y120710D02*
X145570D01*
G01X145870D02*
X146470D01*
G01X147770D02*
X148270D01*
G01X148570D02*
X150870D01*
G01X151170D02*
X153570D01*
G01X143470Y120610D02*
X145570D01*
G01X145870D02*
X146470D01*
G01X147770D02*
X148270D01*
G01X148570D02*
X150970D01*
G01X151170D02*
X153570D01*
G01X143370Y120510D02*
X143970D01*
G01X145870D02*
X146470D01*
G01X147770D02*
X148270D01*
G01X148570D02*
X149170D01*
G01X150470D02*
X150970D01*
G01X151170D02*
X151770D01*
G01X143270Y120410D02*
X143970D01*
G01X145870D02*
X146470D01*
G01X147770D02*
X148270D01*
G01X148570D02*
X149070D01*
G01X150470D02*
X150970D01*
G01X151170D02*
X151670D01*
G01X143270Y120310D02*
X143970D01*
G01X145870D02*
X146470D01*
G01X147770D02*
X148270D01*
G01X148570D02*
X149070D01*
G01X150470D02*
X150970D01*
G01X151170D02*
X151670D01*
G01X143270Y120210D02*
X145570D01*
G01X145870D02*
X148270D01*
G01X148570D02*
X149070D01*
G01X150470D02*
X150970D01*
G01X151170D02*
X151670D01*
G01X143270Y120110D02*
X145670D01*
G01X145870D02*
X148270D01*
G01X148570D02*
X149070D01*
G01X150470D02*
X150970D01*
G01X151170D02*
X151670D01*
G01X143170Y120010D02*
X145670D01*
G01X145870D02*
X148270D01*
G01X148570D02*
X149070D01*
G01X150470D02*
X150970D01*
G01X151170D02*
X151670D01*
G01X145070Y119910D02*
X145670D01*
G01X145870D02*
X146470D01*
G01X147770D02*
X148270D01*
G01X148570D02*
X149070D01*
G01X150470D02*
X150970D01*
G01X151170D02*
X151670D01*
G01X145070Y119810D02*
X145670D01*
G01X145870D02*
X146470D01*
G01X147770D02*
X148270D01*
G01X148570D02*
X149070D01*
G01X150370D02*
X150970D01*
G01X151170D02*
X151670D01*
G01X143170Y119710D02*
X145670D01*
G01X145870D02*
X146470D01*
G01X147770D02*
X148270D01*
G01X148570D02*
X150970D01*
G01X151170D02*
X153570D01*
G01X143170Y119610D02*
X145670D01*
G01X145870D02*
X146470D01*
G01X147770D02*
X148270D01*
G01X148570D02*
X150870D01*
G01X151170D02*
X153470D01*
G01X143170Y119510D02*
X145570D01*
G01X145870D02*
X146470D01*
G01X147770D02*
X148270D01*
G01X148570D02*
X150770D01*
G01X151170D02*
X153370D01*
G01X143170Y119410D02*
X145470D01*
G01X145870D02*
X146470D01*
G01X147770D02*
X148270D01*
G01X148570D02*
X150670D01*
G01X151170D02*
X153270D01*
G01X146870Y145410D02*
X160770D01*
G01X146770Y145310D02*
X160770D01*
G01X146670Y145210D02*
X160770D01*
G01X146570Y145110D02*
X160770D01*
G01X146470Y145010D02*
X160770D01*
G01X146370Y144910D02*
X160770D01*
G01X146270Y144810D02*
X160770D01*
G01X146170Y144710D02*
X160770D01*
G01X146070Y144610D02*
X160770D01*
G01X145970Y144510D02*
X160770D01*
G01X145870Y144410D02*
X160770D01*
G01X145770Y144310D02*
X160770D01*
G01X145670Y144210D02*
X160770D01*
G01X145570Y144110D02*
X160770D01*
G01X145470Y144010D02*
X160770D01*
G01X145370Y143910D02*
X160770D01*
G01X145270Y143810D02*
X160770D01*
G01X145170Y143710D02*
X160770D01*
G01X145070Y143610D02*
X160770D01*
G01X144970Y143510D02*
X160770D01*
G01X144870Y143410D02*
X160770D01*
G01X144770Y143310D02*
X160770D01*
G01X144670Y143210D02*
X160770D01*
G01X144570Y143110D02*
X160770D01*
G01X144470Y143010D02*
X160770D01*
G01X144370Y142910D02*
X160770D01*
G01X144270Y142810D02*
X160770D01*
G01X144170Y142710D02*
X160770D01*
G01X144070Y142610D02*
X160770D01*
G01X143970Y142510D02*
X160770D01*
G01X143870Y142410D02*
X160770D01*
G01X143770Y142310D02*
X160770D01*
G01X143670Y142210D02*
X160770D01*
G01X143570Y142110D02*
X160770D01*
G01X143470Y142010D02*
X160770D01*
G01X143370Y141910D02*
X160770D01*
G01X143270Y141810D02*
X160770D01*
G01X143170Y141710D02*
X160770D01*
G01X143070Y141610D02*
X160770D01*
G01X142970Y141510D02*
X160770D01*
G01X142870Y141410D02*
X160770D01*
G01X142770Y141310D02*
X160770D01*
G01X142670Y141210D02*
X160870D01*
G01X142570Y141110D02*
X160870D01*
G01X142470Y141010D02*
X160870D01*
G01X142370Y140910D02*
X160870D01*
G01X142270Y140810D02*
X160870D01*
G01X142170Y140710D02*
X160870D01*
G01X142070Y140610D02*
X160870D01*
G01X141970Y140510D02*
X160870D01*
G01X141870Y140410D02*
X160870D01*
G01X141770Y140310D02*
X160870D01*
G01X141670Y140210D02*
X160870D01*
G01X141670Y140110D02*
X160870D01*
G01X141770Y140010D02*
X155670D01*
G01X141770Y139910D02*
X148870D01*
G01X141870Y139810D02*
X148970D01*
G01X141870Y139710D02*
X148970D01*
G01X141970Y139610D02*
X148970D01*
G01X141970Y139510D02*
X149070D01*
G01X142070Y139410D02*
X149070D01*
G01X142070Y139310D02*
X149170D01*
G01X142170Y139210D02*
X149170D01*
G01X142170Y139110D02*
X149270D01*
G01X142270Y139010D02*
X149270D01*
G01X142370Y138910D02*
X149370D01*
G01X142370Y138810D02*
X149370D01*
G01X150570D02*
X157170D01*
G01X142370Y138710D02*
X149470D01*
G01X150570D02*
X157270D01*
G01X142470Y138610D02*
X149470D01*
G01X150670D02*
X157270D01*
G01X142470Y138510D02*
X149470D01*
G01X150670D02*
X157370D01*
G01X142570Y138410D02*
X149570D01*
G01X150770D02*
X157370D01*
G01X142670Y138310D02*
X149570D01*
G01X150870D02*
X157470D01*
G01X142670Y138210D02*
X149670D01*
G01X150870D02*
X157470D01*
G01X142670Y138110D02*
X149670D01*
G01X150870D02*
X157570D01*
G01X142770Y138010D02*
X149770D01*
G01X150970D02*
X157570D01*
G01X142870Y137910D02*
X149770D01*
G01X150970D02*
X157670D01*
G01X142870Y137810D02*
X149870D01*
G01X151070D02*
X157770D01*
G01X142970Y137710D02*
X149870D01*
G01X151070D02*
X157770D01*
G01X142970Y137610D02*
X149970D01*
G01X151170D02*
X157770D01*
G01X143070Y137510D02*
X149970D01*
G01X151170D02*
X157870D01*
G01X143070Y137410D02*
X150070D01*
G01X151270D02*
X157870D01*
G01X143170Y137310D02*
X150070D01*
G01X151270D02*
X157970D01*
G01X143170Y137210D02*
X150170D01*
G01X151370D02*
X158070D01*
G01X143270Y137110D02*
X150170D01*
G01X151370D02*
X158070D01*
G01X143270Y137010D02*
X150170D01*
G01X151470D02*
X158070D01*
G01X143370Y136910D02*
X150270D01*
G01X151470D02*
X158170D01*
G01X143470Y136810D02*
X150370D01*
G01X151570D02*
X158270D01*
G01X143470Y136710D02*
X150370D01*
G01X151570D02*
X158270D01*
G01X143570Y136610D02*
X150470D01*
G01X151670D02*
X158370D01*
G01X143570Y136510D02*
X150470D01*
G01X151670D02*
X158370D01*
G01X143570Y136410D02*
X150470D01*
G01X151670D02*
X158470D01*
G01X143670Y136310D02*
X150570D01*
G01X151770D02*
X158470D01*
G01X143670Y136210D02*
X150570D01*
G01X151870D02*
X158570D01*
G01X143770Y136110D02*
X150670D01*
G01X151870D02*
X158570D01*
G01X143770Y136010D02*
X150670D01*
G01X151870D02*
X158670D01*
G01X143870Y135910D02*
X150670D01*
G01X151970D02*
X158770D01*
G01X143970Y135810D02*
X150770D01*
G01X151970D02*
X158770D01*
G01X143970Y135710D02*
X150870D01*
G01X152070D02*
X158870D01*
G01X144070Y135610D02*
X150870D01*
G01X152070D02*
X158870D01*
G01X144070Y135510D02*
X150970D01*
G01X152170D02*
X158870D01*
G01X144170Y135410D02*
X150970D01*
G01X152170D02*
X158970D01*
G01X144170Y135310D02*
X150970D01*
G01X152170D02*
X158970D01*
G01X144270Y135210D02*
X151070D01*
G01X144270Y135110D02*
X151070D01*
G01X144370Y135010D02*
X151170D01*
G01X144370Y134910D02*
X151170D01*
G01X144470Y134810D02*
X151270D01*
G01X144470Y134710D02*
X151270D01*
G01X144570Y134610D02*
X151370D01*
G01X144570Y134510D02*
X151370D01*
G01X144670Y134410D02*
X151470D01*
G01X144670Y134310D02*
X151470D01*
G01X144770Y134210D02*
X151570D01*
G01X144770Y134110D02*
X151570D01*
G01X144870Y134010D02*
X151670D01*
G01X144870Y133910D02*
X151670D01*
G01X144970Y133810D02*
X151670D01*
G01X145070Y133710D02*
X151770D01*
G01X145070Y133610D02*
X151870D01*
G01X145170Y133510D02*
X151870D01*
G01X145170Y133410D02*
X151870D01*
G01X145270Y133310D02*
X151970D01*
G01X145270Y133210D02*
X151970D01*
G01X145370Y133110D02*
X152070D01*
G01X145370Y133010D02*
X152070D01*
G01X145470Y132910D02*
X152170D01*
G01X145470Y132810D02*
X152170D01*
G01X145570Y132710D02*
X152170D01*
G01X145570Y132610D02*
X152270D01*
G01X145670Y132510D02*
X152270D01*
G01X145670Y132410D02*
X152370D01*
G01X145770Y132310D02*
X152470D01*
G01X145770Y132210D02*
X152470D01*
G01X145870Y132110D02*
X152470D01*
G01X145870Y132010D02*
X152570D01*
G01X153870Y131910D02*
X160770D01*
G01X153870Y131810D02*
X160870D01*
G01X153870Y131710D02*
X160970D01*
G01X153970Y131610D02*
X160970D01*
G01X154070Y131510D02*
X161070D01*
G01X154070Y131410D02*
X161070D01*
G01X154170Y131310D02*
X161170D01*
G01X154170Y131210D02*
X161170D01*
G01X154170Y131110D02*
X161270D01*
G01X154270Y131010D02*
X161270D01*
G01X154270Y130910D02*
X161370D01*
G01X154370Y130810D02*
X161370D01*
G01X154370Y130710D02*
X161470D01*
G01X154470Y130610D02*
X161470D01*
G01X154470Y130510D02*
X161570D01*
G01X154570Y130410D02*
X161570D01*
G01X154570Y130310D02*
X161670D01*
G01X154670Y130210D02*
X161670D01*
G01X154670Y130110D02*
X161770D01*
G01X154770Y130010D02*
X161770D01*
G01X154770Y129910D02*
X161870D01*
G01X154870Y129810D02*
X161970D01*
G01X154870Y129710D02*
X161970D01*
G01X154870Y129610D02*
X162070D01*
G01X154970Y129510D02*
X162070D01*
G01X155070Y129410D02*
X162170D01*
G01X155070Y129310D02*
X162170D01*
G01X155170Y129210D02*
X162270D01*
G01X155170Y129110D02*
X162270D01*
G01X155170Y129010D02*
X162370D01*
G01X155270Y128910D02*
X162370D01*
G01X153770Y120910D02*
X155670D01*
G01X156670D02*
X158270D01*
G01X158570D02*
X160170D01*
G01X153770Y120810D02*
X155670D01*
G01X156370D02*
X158270D01*
G01X158570D02*
X160470D01*
G01X153770Y120710D02*
X155670D01*
G01X156270D02*
X158270D01*
G01X158570D02*
X160670D01*
G01X153770Y120610D02*
X155670D01*
G01X156170D02*
X158270D01*
G01X158570D02*
X160670D01*
G01X153070Y120510D02*
X153570D01*
G01X154470D02*
X154970D01*
G01X156070D02*
X156770D01*
G01X158570D02*
X159070D01*
G01X160070D02*
X160770D01*
G01X153070Y120410D02*
X153570D01*
G01X154470D02*
X154970D01*
G01X155970D02*
X156670D01*
G01X158570D02*
X159070D01*
G01X160170D02*
X160870D01*
G01X153070Y120310D02*
X153570D01*
G01X154470D02*
X154970D01*
G01X155870D02*
X156670D01*
G01X158570D02*
X159070D01*
G01X160270D02*
X160970D01*
G01X153070Y120210D02*
X153570D01*
G01X154470D02*
X154970D01*
G01X155870D02*
X158070D01*
G01X158570D02*
X160970D01*
G01X153070Y120110D02*
X153570D01*
G01X154470D02*
X154970D01*
G01X155870D02*
X158070D01*
G01X158570D02*
X161070D01*
G01X153070Y120010D02*
X153570D01*
G01X154470D02*
X154970D01*
G01X156170D02*
X158070D01*
G01X158570D02*
X160670D01*
G01X153070Y119910D02*
X153570D01*
G01X154470D02*
X154970D01*
G01X156070D02*
X156770D01*
G01X158570D02*
X159070D01*
G01X160170D02*
X160770D01*
G01X152970Y119810D02*
X153570D01*
G01X154470D02*
X154970D01*
G01X155970D02*
X156670D01*
G01X158570D02*
X159070D01*
G01X160170D02*
X160870D01*
G01X154470Y119710D02*
X154970D01*
G01X155970D02*
X158370D01*
G01X158570D02*
X159070D01*
G01X160270D02*
X160970D01*
G01X154470Y119610D02*
X154970D01*
G01X155870D02*
X158370D01*
G01X158570D02*
X159070D01*
G01X160370D02*
X160970D01*
G01X154470Y119510D02*
X154970D01*
G01X155870D02*
X158370D01*
G01X158570D02*
X159070D01*
G01X160370D02*
X160970D01*
G01X154470Y119410D02*
X154970D01*
G01X155870D02*
X158370D01*
G01X158570D02*
X159070D01*
G01X160370D02*
X161070D01*
G01X155770Y140010D02*
X155870D01*
G01X156770Y138910D02*
X157070D01*
G01X152270Y135210D02*
X159070D01*
G01X152270Y135110D02*
X159170D01*
G01X152370Y135010D02*
X159170D01*
G01X152470Y134910D02*
X159170D01*
G01X152470Y134810D02*
X159270D01*
G01X152470Y134710D02*
X159370D01*
G01X152570Y134610D02*
X159370D01*
G01X152570Y134510D02*
X159470D01*
G01X152670Y134410D02*
X159470D01*
G01X152670Y134310D02*
X159570D01*
G01X152770Y134210D02*
X159570D01*
G01X152770Y134110D02*
X159670D01*
G01X152870Y134010D02*
X159670D01*
G01X152870Y133910D02*
X159770D01*
G01X152970Y133810D02*
X159870D01*
G01X152970Y133710D02*
X159870D01*
G01X153070Y133610D02*
X159970D01*
G01X153070Y133510D02*
X159970D01*
G01X153070Y133410D02*
X159970D01*
G01X153170Y133310D02*
X160070D01*
G01X153170Y133210D02*
X160170D01*
G01X153270Y133110D02*
X160170D01*
G01X153270Y133010D02*
X160270D01*
G01X153370Y132910D02*
X160270D01*
G01X153370Y132810D02*
X160370D01*
G01X153470Y132710D02*
X160370D01*
G01X153470Y132610D02*
X160470D01*
G01X153570Y132510D02*
X160470D01*
G01X153570Y132410D02*
X160570D01*
G01X153670Y132310D02*
X160570D01*
G01X153670Y132210D02*
X160670D01*
G01X153770Y132110D02*
X160670D01*
G01X153770Y132010D02*
X160770D01*
G01X192591Y96188D02*
Y99388D01*
G01X192491Y96288D02*
Y99288D01*
G01X192391Y96388D02*
Y99188D01*
G01X192291Y96488D02*
Y99088D01*
G01X192191Y96588D02*
Y98988D01*
G01X192091Y96688D02*
Y98888D01*
G01X191991Y96788D02*
Y98788D01*
G01X191891Y96888D02*
Y98688D01*
G01X191791Y96988D02*
Y98588D01*
G01X191691Y97088D02*
Y98488D01*
G01X191591Y97188D02*
Y98388D01*
G01X191491Y97288D02*
Y98288D01*
G01X191391Y97388D02*
Y98188D01*
G01X191291Y97488D02*
Y98088D01*
G01X191191Y97588D02*
Y97988D01*
G01X191091Y97688D02*
Y97888D01*
G01X218543Y19949D02*
X211943D01*
G01X218443Y19849D02*
X212043D01*
G01X218343Y19749D02*
X212143D01*
G01X218243Y19649D02*
X212243D01*
G01X218143Y19549D02*
X212343D01*
G01X218043Y19449D02*
X212443D01*
G01X217943Y19349D02*
X212543D01*
G01X217843Y19249D02*
X212643D01*
G01X217743Y19149D02*
X212743D01*
G01X217643Y19049D02*
X212843D01*
G01X194291Y94488D02*
Y101088D01*
G01X194191Y94588D02*
Y100988D01*
G01X194091Y94688D02*
Y100888D01*
G01X193991Y94788D02*
Y100788D01*
G01X193891Y94888D02*
Y100688D01*
G01X193791Y94988D02*
Y100588D01*
G01X193691Y95088D02*
Y100488D01*
G01X193591Y95188D02*
Y100388D01*
G01X193491Y95288D02*
Y100288D01*
G01X193391Y95388D02*
Y100188D01*
G01X193291Y95488D02*
Y100088D01*
G01X193191Y95588D02*
Y99988D01*
G01X193091Y95688D02*
Y99888D01*
G01X192991Y95788D02*
Y99788D01*
G01X192891Y95888D02*
Y99688D01*
G01X192791Y95988D02*
Y99588D01*
G01X192691Y96088D02*
Y99488D01*
G01X217543Y18949D02*
X212943D01*
G01X217443Y18849D02*
X213043D01*
G01X217343Y18749D02*
X213143D01*
G01X217243Y18649D02*
X213243D01*
G01X217143Y18549D02*
X213343D01*
G01X217043Y18449D02*
X213443D01*
G01X216943Y18349D02*
X213543D01*
G01X216843Y18249D02*
X213643D01*
G01X216743Y18149D02*
X213743D01*
G01X216643Y18049D02*
X213843D01*
G01X216543Y17949D02*
X213943D01*
G01X216443Y17849D02*
X214043D01*
G01X216343Y17749D02*
X214143D01*
G01X216243Y17649D02*
X214243D01*
G01X216143Y17549D02*
X214343D01*
G01X216043Y17449D02*
X214443D01*
G01X215943Y17349D02*
X214543D01*
G01X215843Y17249D02*
X214643D01*
G01X215743Y17149D02*
X214743D01*
G01X215643Y17049D02*
X214843D01*
G01X215543Y16949D02*
X214943D01*
G01X215443Y16849D02*
X215043D01*
G01X215343Y16749D02*
X215143D01*
G01X217472Y152864D02*
Y146264D01*
G01X217572Y152764D02*
Y146364D01*
G01X217672Y152664D02*
Y146464D01*
G01X217772Y152564D02*
Y146564D01*
G01X217872Y152464D02*
Y146664D01*
G01X217972Y152364D02*
Y146764D01*
G01X218072Y152264D02*
Y146864D01*
G01X218172Y152164D02*
Y146964D01*
G01X218272Y152064D02*
Y147064D01*
G01X218372Y151964D02*
Y147164D01*
G01X218472Y151864D02*
Y147264D01*
G01X218572Y151764D02*
Y147364D01*
G01X218672Y151664D02*
Y147464D01*
G01X218772Y151564D02*
Y147564D01*
G01X218872Y151464D02*
Y147664D01*
G01X218972Y151364D02*
Y147764D01*
G01X219072Y151264D02*
Y147864D01*
G01X219172Y151164D02*
Y147964D01*
G01X219272Y151064D02*
Y148064D01*
G01X219372Y150964D02*
Y148164D01*
G01X219472Y150864D02*
Y148264D01*
G01X219572Y150764D02*
Y148364D01*
G01X219672Y150664D02*
Y148464D01*
G01X219772Y150564D02*
Y148564D01*
G01X219872Y150464D02*
Y148664D01*
G01X219972Y150364D02*
Y148764D01*
G01X220072Y150264D02*
Y148864D01*
G01X220172Y150164D02*
Y148964D01*
G01X220272Y150064D02*
Y149064D01*
G01X220372Y149964D02*
Y149164D01*
G01X220472Y149864D02*
Y149264D01*
G01X220572Y149764D02*
Y149364D01*
G01X220672Y149664D02*
Y149464D01*
G54D11*
G01X8723Y11537D02*
X9123Y11670D01*
X9390Y11830D01*
X9523Y12017D01*
X9390Y12230D01*
X9123Y12390D01*
X8723Y12550D01*
X8190Y12603D01*
X5523D01*
G01X7857Y13563D02*
X7390Y13750D01*
X7123Y13910D01*
X6990Y14123D01*
X7123Y14310D01*
X7390Y14443D01*
X7790Y14550D01*
X8257Y14577D01*
X8657Y14550D01*
X9057Y14443D01*
X9390Y14283D01*
X9523Y14097D01*
X9390Y13883D01*
X8990Y13697D01*
X8390Y13590D01*
X7723Y13563D01*
X6857Y13617D01*
X6390Y13697D01*
X5923Y13830D01*
X5590Y14017D01*
X5523Y14203D01*
X5657Y14390D01*
X5990Y14523D01*
G01X7267Y123963D02*
X6866Y123830D01*
X6600Y123670D01*
X6467Y123483D01*
X6600Y123270D01*
X6866Y123110D01*
X7267Y122950D01*
X7800Y122897D01*
X10467D01*
G01X6467Y121483D02*
X7333Y121430D01*
X8067Y121350D01*
X8733Y121243D01*
X9467Y121110D01*
X10467Y120897D01*
Y121963D01*
G01X23413Y18630D02*
X23520Y18830D01*
X23600Y19163D01*
X23653Y19630D01*
X23600Y20030D01*
X23493Y20297D01*
X23307Y20497D01*
X22587D01*
Y16497D01*
X23467D01*
X23653Y16763D01*
X23760Y17163D01*
X23813Y17630D01*
X23760Y18097D01*
X23600Y18497D01*
X23413Y18630D01*
X22587D01*
G01X24613Y16497D02*
Y20497D01*
X25147D01*
X25360Y20297D01*
X25520Y20030D01*
X25653Y19630D01*
X25760Y19163D01*
X25787Y18497D01*
X25760Y17830D01*
X25653Y17363D01*
X25520Y16963D01*
X25360Y16697D01*
X25147Y16497D01*
X24613D01*
G01X27200D02*
Y20497D01*
X26880Y19697D01*
G01Y16497D02*
X27520D01*
G01X28907Y17830D02*
X29547D01*
G01X29200Y18697D02*
Y16963D01*
G01X27488Y30810D02*
Y31450D01*
G01X26621Y31103D02*
X28355D01*
G01X28527Y36977D02*
X32527D01*
Y36443D01*
X32326Y36230D01*
X32060Y36070D01*
X31660Y35937D01*
X31193Y35830D01*
X30526Y35803D01*
X29860Y35830D01*
X29393Y35937D01*
X28993Y36070D01*
X28727Y36230D01*
X28527Y36443D01*
Y36977D01*
G01X31860Y34897D02*
X32260Y34737D01*
X32460Y34550D01*
X32527Y34337D01*
X32393Y34070D01*
X32060Y33883D01*
X31660Y33830D01*
X31260Y33857D01*
X30927Y33963D01*
X30260Y34497D01*
X29793Y34737D01*
X29126Y34897D01*
X28527Y34950D01*
Y33830D01*
G01X22667Y37023D02*
X26667D01*
Y36357D01*
X26467Y36143D01*
X26200Y36010D01*
X25667Y35957D01*
X25133Y36010D01*
X24800Y36170D01*
X24600Y36357D01*
Y37023D01*
G01Y36357D02*
X22667Y35957D01*
G01X23267Y35077D02*
X22933Y34917D01*
X22733Y34730D01*
X22667Y34490D01*
X22800Y34250D01*
X23067Y34063D01*
X23533Y33930D01*
X24067Y33903D01*
X24600Y33957D01*
X24933Y34090D01*
X25200Y34277D01*
X25267Y34463D01*
X25200Y34650D01*
X24933Y34890D01*
X26667Y34810D01*
Y34090D01*
G01X23723Y66677D02*
Y63810D01*
X23830Y63210D01*
X24043Y62810D01*
X24310Y62677D01*
X24577Y62810D01*
X24790Y63210D01*
X24897Y63810D01*
Y66677D01*
G01X26630Y62677D02*
Y66677D01*
X25643Y63810D01*
X26977D01*
G01X22797Y83097D02*
Y87097D01*
X23463D01*
X23677Y86897D01*
X23810Y86630D01*
X23863Y86097D01*
X23810Y85563D01*
X23650Y85230D01*
X23463Y85030D01*
X22797D01*
G01X23463D02*
X23863Y83097D01*
G01X24823Y84763D02*
X25010Y85230D01*
X25170Y85497D01*
X25383Y85630D01*
X25570Y85497D01*
X25703Y85230D01*
X25810Y84830D01*
X25837Y84363D01*
X25810Y83963D01*
X25703Y83563D01*
X25543Y83230D01*
X25357Y83097D01*
X25143Y83230D01*
X24957Y83630D01*
X24850Y84230D01*
X24823Y84897D01*
X24877Y85763D01*
X24957Y86230D01*
X25090Y86697D01*
X25277Y87030D01*
X25463Y87097D01*
X25650Y86963D01*
X25783Y86630D01*
G01X28927Y125987D02*
X29060Y125587D01*
X29220Y125320D01*
X29407Y125187D01*
X29620Y125320D01*
X29780Y125587D01*
X29940Y125987D01*
X29993Y126520D01*
Y129187D01*
G01X30873Y125787D02*
X31033Y125453D01*
X31220Y125253D01*
X31460Y125187D01*
X31700Y125320D01*
X31887Y125587D01*
X32020Y126053D01*
X32047Y126587D01*
X31993Y127120D01*
X31860Y127453D01*
X31673Y127720D01*
X31487Y127787D01*
X31300Y127720D01*
X31060Y127453D01*
X31140Y129187D01*
X31860D01*
G01X15047Y140057D02*
X15180Y139657D01*
X15340Y139390D01*
X15527Y139257D01*
X15740Y139390D01*
X15900Y139657D01*
X16060Y140057D01*
X16113Y140590D01*
Y143257D01*
G01X17900Y139257D02*
Y143257D01*
X16913Y140390D01*
X18247D01*
G01X43563Y18610D02*
X43670Y18810D01*
X43750Y19143D01*
X43803Y19610D01*
X43750Y20010D01*
X43643Y20277D01*
X43457Y20477D01*
X42737D01*
Y16477D01*
X43617D01*
X43803Y16743D01*
X43910Y17143D01*
X43963Y17610D01*
X43910Y18077D01*
X43750Y18477D01*
X43563Y18610D01*
X42737D01*
G01X44763Y16477D02*
Y20477D01*
X45297D01*
X45510Y20277D01*
X45670Y20010D01*
X45803Y19610D01*
X45910Y19143D01*
X45937Y18477D01*
X45910Y17810D01*
X45803Y17343D01*
X45670Y16943D01*
X45510Y16677D01*
X45297Y16477D01*
X44763D01*
G01X47350Y20477D02*
X47137Y20343D01*
X46977Y20010D01*
X46870Y19610D01*
X46790Y19077D01*
X46763Y18477D01*
X46790Y17877D01*
X46870Y17343D01*
X46977Y16943D01*
X47137Y16610D01*
X47350Y16477D01*
X47563Y16610D01*
X47723Y16943D01*
X47830Y17343D01*
X47910Y17877D01*
X47937Y18477D01*
X47910Y19077D01*
X47830Y19610D01*
X47723Y20010D01*
X47563Y20343D01*
X47350Y20477D01*
G01X49057Y17810D02*
X49697D01*
G01X49350Y18677D02*
Y16943D01*
G01X33623Y18610D02*
X33730Y18810D01*
X33810Y19143D01*
X33863Y19610D01*
X33810Y20010D01*
X33703Y20277D01*
X33517Y20477D01*
X32797D01*
Y16477D01*
X33677D01*
X33863Y16743D01*
X33970Y17143D01*
X34023Y17610D01*
X33970Y18077D01*
X33810Y18477D01*
X33623Y18610D01*
X32797D01*
G01X34823Y16477D02*
Y20477D01*
X35357D01*
X35570Y20277D01*
X35730Y20010D01*
X35863Y19610D01*
X35970Y19143D01*
X35997Y18477D01*
X35970Y17810D01*
X35863Y17343D01*
X35730Y16943D01*
X35570Y16677D01*
X35357Y16477D01*
X34823D01*
G01X37410D02*
Y20477D01*
X37090Y19677D01*
G01Y16477D02*
X37730D01*
G01X39063Y17810D02*
X39757D01*
G01X45433Y65993D02*
X45633Y66153D01*
X45767Y66340D01*
Y66553D01*
X45567Y66793D01*
X45233Y66980D01*
X44833Y67113D01*
X44167Y67220D01*
X43567Y67247D01*
X42967Y67193D01*
X42567Y67113D01*
X42167Y66953D01*
X41900Y66767D01*
X41767Y66580D01*
Y66393D01*
X41900Y66207D01*
X42100Y66047D01*
X42367Y65913D01*
G01X41767Y64633D02*
X42633Y64580D01*
X43367Y64500D01*
X44033Y64393D01*
X44767Y64260D01*
X45767Y64047D01*
Y65113D01*
G01X45333Y78503D02*
X45533Y78663D01*
X45667Y78850D01*
Y79063D01*
X45467Y79303D01*
X45133Y79490D01*
X44733Y79623D01*
X44067Y79730D01*
X43467Y79757D01*
X42867Y79703D01*
X42467Y79623D01*
X42067Y79463D01*
X41800Y79277D01*
X41667Y79090D01*
Y78903D01*
X41800Y78717D01*
X42000Y78557D01*
X42267Y78423D01*
G01X41667Y77090D02*
X41733Y76903D01*
X41933Y76690D01*
X42267Y76557D01*
X42733Y76503D01*
X43200Y76557D01*
X43600Y76717D01*
X43800Y76957D01*
Y77223D01*
X43933Y77383D01*
X44267Y77517D01*
X44733Y77570D01*
X45200Y77490D01*
X45533Y77303D01*
X45667Y77090D01*
X45533Y76877D01*
X45200Y76690D01*
X44733Y76610D01*
X44267Y76663D01*
X43933Y76797D01*
X43800Y76957D01*
Y77223D01*
X43600Y77463D01*
X43200Y77623D01*
X42733Y77677D01*
X42267Y77623D01*
X41933Y77490D01*
X41733Y77277D01*
X41667Y77090D01*
G01X48797Y75713D02*
X52797D01*
Y75047D01*
X52597Y74833D01*
X52330Y74700D01*
X51797Y74647D01*
X51263Y74700D01*
X50930Y74860D01*
X50730Y75047D01*
Y75713D01*
G01Y75047D02*
X48797Y74647D01*
G01Y73180D02*
X52797D01*
X51997Y73500D01*
G01X48797D02*
Y72860D01*
G01X37457Y107353D02*
X37056Y107220D01*
X36790Y107060D01*
X36657Y106873D01*
X36790Y106660D01*
X37056Y106500D01*
X37457Y106340D01*
X37990Y106287D01*
X40657D01*
G01X36657Y104820D02*
X36723Y104633D01*
X36923Y104420D01*
X37256Y104287D01*
X37723Y104233D01*
X38190Y104287D01*
X38590Y104447D01*
X38790Y104687D01*
Y104953D01*
X38923Y105113D01*
X39256Y105247D01*
X39723Y105300D01*
X40190Y105220D01*
X40523Y105033D01*
X40657Y104820D01*
X40523Y104607D01*
X40190Y104420D01*
X39723Y104340D01*
X39256Y104393D01*
X38923Y104527D01*
X38790Y104687D01*
Y104953D01*
X38590Y105193D01*
X38190Y105353D01*
X37723Y105407D01*
X37256Y105353D01*
X36923Y105220D01*
X36723Y105007D01*
X36657Y104820D01*
G01X53483Y18580D02*
X53590Y18780D01*
X53670Y19113D01*
X53723Y19580D01*
X53670Y19980D01*
X53563Y20247D01*
X53377Y20447D01*
X52657D01*
Y16447D01*
X53537D01*
X53723Y16713D01*
X53830Y17113D01*
X53883Y17580D01*
X53830Y18047D01*
X53670Y18447D01*
X53483Y18580D01*
X52657D01*
G01X54683Y16447D02*
Y20447D01*
X55217D01*
X55430Y20247D01*
X55590Y19980D01*
X55723Y19580D01*
X55830Y19113D01*
X55857Y18447D01*
X55830Y17780D01*
X55723Y17313D01*
X55590Y16913D01*
X55430Y16647D01*
X55217Y16447D01*
X54683D01*
G01X57270Y20447D02*
X57057Y20313D01*
X56897Y19980D01*
X56790Y19580D01*
X56710Y19047D01*
X56683Y18447D01*
X56710Y17847D01*
X56790Y17313D01*
X56897Y16913D01*
X57057Y16580D01*
X57270Y16447D01*
X57483Y16580D01*
X57643Y16913D01*
X57750Y17313D01*
X57830Y17847D01*
X57857Y18447D01*
X57830Y19047D01*
X57750Y19580D01*
X57643Y19980D01*
X57483Y20313D01*
X57270Y20447D01*
G01X58923Y17780D02*
X59617D01*
G01X62543Y16477D02*
X63210Y20477D01*
X63877Y16477D01*
G01X63637Y17877D02*
X62783D01*
G01X64623Y16477D02*
Y20477D01*
X65157D01*
X65370Y20277D01*
X65530Y20010D01*
X65663Y19610D01*
X65770Y19143D01*
X65797Y18477D01*
X65770Y17810D01*
X65663Y17343D01*
X65530Y16943D01*
X65370Y16677D01*
X65157Y16477D01*
X64623D01*
G01X66703Y19810D02*
X66863Y20210D01*
X67050Y20410D01*
X67263Y20477D01*
X67530Y20343D01*
X67717Y20010D01*
X67770Y19610D01*
X67743Y19210D01*
X67637Y18877D01*
X67103Y18210D01*
X66863Y17743D01*
X66703Y17077D01*
X66650Y16477D01*
X67770D01*
G01X68917Y17810D02*
X69557D01*
G01X69210Y18677D02*
Y16943D01*
G01X70537Y26373D02*
X74537D01*
Y25707D01*
X74336Y25493D01*
X74070Y25360D01*
X73537Y25307D01*
X73003Y25360D01*
X72670Y25520D01*
X72470Y25707D01*
Y26373D01*
G01Y25707D02*
X70537Y25307D01*
G01X73870Y24347D02*
X74270Y24187D01*
X74470Y24000D01*
X74537Y23787D01*
X74403Y23520D01*
X74070Y23333D01*
X73670Y23280D01*
X73270Y23307D01*
X72937Y23413D01*
X72270Y23947D01*
X71803Y24187D01*
X71136Y24347D01*
X70537Y24400D01*
Y23280D01*
G01X64877Y26273D02*
X68877D01*
Y25607D01*
X68677Y25393D01*
X68410Y25260D01*
X67877Y25207D01*
X67343Y25260D01*
X67010Y25420D01*
X66810Y25607D01*
Y26273D01*
G01Y25607D02*
X64877Y25207D01*
G01Y23420D02*
X68877D01*
X66010Y24407D01*
Y23073D01*
G01X59687Y47827D02*
X56820D01*
X56220Y47720D01*
X55820Y47507D01*
X55687Y47240D01*
X55820Y46973D01*
X56220Y46760D01*
X56820Y46653D01*
X59687D01*
G01X56487Y45827D02*
X56020Y45667D01*
X55753Y45453D01*
X55687Y45213D01*
X55753Y45000D01*
X56087Y44787D01*
X56487Y44653D01*
X56887Y44627D01*
X57353Y44680D01*
X57687Y44867D01*
X57820Y45053D01*
Y45293D01*
G01Y45053D02*
X58020Y44893D01*
X58353Y44760D01*
X58753Y44707D01*
X59153Y44760D01*
X59486Y44893D01*
X59687Y45133D01*
X59620Y45373D01*
X59353Y45613D01*
G01X63603Y72053D02*
X63803Y72213D01*
X63937Y72400D01*
Y72613D01*
X63737Y72853D01*
X63403Y73040D01*
X63003Y73173D01*
X62337Y73280D01*
X61737Y73307D01*
X61137Y73253D01*
X60737Y73173D01*
X60337Y73013D01*
X60070Y72827D01*
X59937Y72640D01*
Y72453D01*
X60070Y72267D01*
X60270Y72107D01*
X60537Y71973D01*
G01X59937Y70320D02*
X63937D01*
X61070Y71307D01*
Y69973D01*
G01X56467Y62623D02*
X60467D01*
Y61957D01*
X60266Y61743D01*
X60000Y61610D01*
X59467Y61557D01*
X58933Y61610D01*
X58600Y61770D01*
X58400Y61957D01*
Y62623D01*
G01Y61957D02*
X56467Y61557D01*
G01X57267Y60677D02*
X56800Y60517D01*
X56533Y60303D01*
X56467Y60063D01*
X56533Y59850D01*
X56866Y59637D01*
X57267Y59503D01*
X57667Y59477D01*
X58133Y59530D01*
X58466Y59717D01*
X58600Y59903D01*
Y60143D01*
G01Y59903D02*
X58800Y59743D01*
X59133Y59610D01*
X59533Y59557D01*
X59933Y59610D01*
X60266Y59743D01*
X60467Y59983D01*
X60400Y60223D01*
X60133Y60463D01*
G01X71357Y75667D02*
Y71667D01*
X72423D01*
G01X73383Y75000D02*
X73543Y75400D01*
X73730Y75600D01*
X73943Y75667D01*
X74210Y75533D01*
X74397Y75200D01*
X74450Y74800D01*
X74423Y74400D01*
X74317Y74067D01*
X73783Y73400D01*
X73543Y72933D01*
X73383Y72267D01*
X73330Y71667D01*
X74450D01*
G01X69073Y116613D02*
X69273Y116773D01*
X69407Y116960D01*
Y117173D01*
X69207Y117413D01*
X68873Y117600D01*
X68473Y117733D01*
X67807Y117840D01*
X67207Y117867D01*
X66607Y117813D01*
X66207Y117733D01*
X65807Y117573D01*
X65540Y117387D01*
X65407Y117200D01*
Y117013D01*
X65540Y116827D01*
X65740Y116667D01*
X66007Y116533D01*
G01X68740Y115707D02*
X69140Y115547D01*
X69340Y115360D01*
X69407Y115147D01*
X69273Y114880D01*
X68940Y114693D01*
X68540Y114640D01*
X68140Y114667D01*
X67807Y114773D01*
X67140Y115307D01*
X66673Y115547D01*
X66007Y115707D01*
X65407Y115760D01*
Y114640D01*
G01X72653Y16477D02*
X73320Y20477D01*
X73987Y16477D01*
G01X73747Y17877D02*
X72893D01*
G01X74733Y16477D02*
Y20477D01*
X75267D01*
X75480Y20277D01*
X75640Y20010D01*
X75773Y19610D01*
X75880Y19143D01*
X75907Y18477D01*
X75880Y17810D01*
X75773Y17343D01*
X75640Y16943D01*
X75480Y16677D01*
X75267Y16477D01*
X74733D01*
G01X76813Y19810D02*
X76973Y20210D01*
X77160Y20410D01*
X77373Y20477D01*
X77640Y20343D01*
X77827Y20010D01*
X77880Y19610D01*
X77853Y19210D01*
X77747Y18877D01*
X77213Y18210D01*
X76973Y17743D01*
X76813Y17077D01*
X76760Y16477D01*
X77880D01*
G01X78973Y17810D02*
X79667D01*
G01X82273Y16447D02*
X82940Y20447D01*
X83607Y16447D01*
G01X83367Y17847D02*
X82513D01*
G01X85527Y20113D02*
X85367Y20313D01*
X85180Y20447D01*
X84967D01*
X84727Y20247D01*
X84540Y19913D01*
X84407Y19513D01*
X84300Y18847D01*
X84273Y18247D01*
X84327Y17647D01*
X84407Y17247D01*
X84567Y16847D01*
X84753Y16580D01*
X84940Y16447D01*
X85127D01*
X85313Y16580D01*
X85473Y16780D01*
X85607Y17047D01*
G01X86353Y16447D02*
Y20447D01*
G01X87367D02*
X86353Y17980D01*
G01X87527Y16447D02*
X86807Y19113D01*
G01X88647Y17780D02*
X89287D01*
G01X88940Y18647D02*
Y16913D01*
G01X92657Y37033D02*
X92497Y37233D01*
X92310Y37367D01*
X92097D01*
X91857Y37167D01*
X91670Y36833D01*
X91537Y36433D01*
X91430Y35767D01*
X91403Y35167D01*
X91457Y34567D01*
X91537Y34167D01*
X91697Y33767D01*
X91883Y33500D01*
X92070Y33367D01*
X92257D01*
X92443Y33500D01*
X92603Y33700D01*
X92737Y33967D01*
G01X93483D02*
X93643Y33633D01*
X93830Y33433D01*
X94070Y33367D01*
X94310Y33500D01*
X94497Y33767D01*
X94630Y34233D01*
X94657Y34767D01*
X94603Y35300D01*
X94470Y35633D01*
X94283Y35900D01*
X94097Y35967D01*
X93910Y35900D01*
X93670Y35633D01*
X93750Y37367D01*
X94470D01*
G01X91247Y48703D02*
X87247D01*
Y47637D01*
G01X88047Y46757D02*
X87580Y46597D01*
X87313Y46383D01*
X87247Y46143D01*
X87313Y45930D01*
X87646Y45717D01*
X88047Y45583D01*
X88447Y45557D01*
X88913Y45610D01*
X89246Y45797D01*
X89380Y45983D01*
Y46223D01*
G01Y45983D02*
X89580Y45823D01*
X89913Y45690D01*
X90313Y45637D01*
X90713Y45690D01*
X91047Y45823D01*
X91247Y46063D01*
X91180Y46303D01*
X90913Y46543D01*
G01X77533Y62183D02*
X77733Y62343D01*
X77867Y62530D01*
Y62743D01*
X77666Y62983D01*
X77333Y63170D01*
X76933Y63303D01*
X76267Y63410D01*
X75667Y63437D01*
X75067Y63383D01*
X74667Y63303D01*
X74266Y63143D01*
X74000Y62957D01*
X73867Y62770D01*
Y62583D01*
X74000Y62397D01*
X74200Y62237D01*
X74466Y62103D01*
G01X75533Y61277D02*
X76000Y61090D01*
X76267Y60930D01*
X76400Y60717D01*
X76267Y60530D01*
X76000Y60397D01*
X75600Y60290D01*
X75133Y60263D01*
X74733Y60290D01*
X74333Y60397D01*
X74000Y60557D01*
X73867Y60743D01*
X74000Y60957D01*
X74400Y61143D01*
X75000Y61250D01*
X75667Y61277D01*
X76533Y61223D01*
X77000Y61143D01*
X77467Y61010D01*
X77800Y60823D01*
X77867Y60637D01*
X77733Y60450D01*
X77400Y60317D01*
G01X85147Y63267D02*
X89147D01*
Y62733D01*
X88946Y62520D01*
X88680Y62360D01*
X88280Y62227D01*
X87813Y62120D01*
X87146Y62093D01*
X86480Y62120D01*
X86013Y62227D01*
X85613Y62360D01*
X85347Y62520D01*
X85147Y62733D01*
Y63267D01*
G01Y60680D02*
X89147D01*
X88347Y61000D01*
G01X85147D02*
Y60360D01*
G01X89593Y102833D02*
X89793Y102993D01*
X89927Y103180D01*
Y103393D01*
X89726Y103633D01*
X89393Y103820D01*
X88993Y103953D01*
X88327Y104060D01*
X87727Y104087D01*
X87127Y104033D01*
X86727Y103953D01*
X86326Y103793D01*
X86060Y103607D01*
X85927Y103420D01*
Y103233D01*
X86060Y103047D01*
X86260Y102887D01*
X86526Y102753D01*
G01X85927Y101420D02*
X89927D01*
X89127Y101740D01*
G01X85927D02*
Y101100D01*
G01X84347Y118557D02*
Y114557D01*
X85413D01*
G01X86880D02*
Y118557D01*
X86560Y117757D01*
G01Y114557D02*
X87200D01*
G01X102303Y16477D02*
X102970Y20477D01*
X103637Y16477D01*
G01X103397Y17877D02*
X102543D01*
G01X104383Y16477D02*
Y20477D01*
X104917D01*
X105130Y20277D01*
X105290Y20010D01*
X105423Y19610D01*
X105530Y19143D01*
X105557Y18477D01*
X105530Y17810D01*
X105423Y17343D01*
X105290Y16943D01*
X105130Y16677D01*
X104917Y16477D01*
X104383D01*
G01X106383Y17277D02*
X106543Y16810D01*
X106757Y16543D01*
X106997Y16477D01*
X107210Y16543D01*
X107423Y16877D01*
X107557Y17277D01*
X107583Y17677D01*
X107530Y18143D01*
X107343Y18477D01*
X107157Y18610D01*
X106917D01*
G01X107157D02*
X107317Y18810D01*
X107450Y19143D01*
X107503Y19543D01*
X107450Y19943D01*
X107317Y20277D01*
X107077Y20477D01*
X106837Y20410D01*
X106597Y20143D01*
G01X108677Y17810D02*
X109317D01*
G01X108970Y18677D02*
Y16943D01*
G01X92363Y16497D02*
X93030Y20497D01*
X93697Y16497D01*
G01X93457Y17897D02*
X92603D01*
G01X95617Y20163D02*
X95457Y20363D01*
X95270Y20497D01*
X95057D01*
X94817Y20297D01*
X94630Y19963D01*
X94497Y19563D01*
X94390Y18897D01*
X94363Y18297D01*
X94417Y17697D01*
X94497Y17297D01*
X94657Y16897D01*
X94843Y16630D01*
X95030Y16497D01*
X95217D01*
X95403Y16630D01*
X95563Y16830D01*
X95697Y17097D01*
G01X96443Y16497D02*
Y20497D01*
G01X97457D02*
X96443Y18030D01*
G01X97617Y16497D02*
X96897Y19163D01*
G01X98683Y17830D02*
X99377D01*
G01X132203Y16487D02*
X132870Y20487D01*
X133537Y16487D01*
G01X133297Y17887D02*
X132443D01*
G01X134283Y16487D02*
Y20487D01*
X134817D01*
X135030Y20287D01*
X135190Y20020D01*
X135323Y19620D01*
X135430Y19153D01*
X135457Y18487D01*
X135430Y17820D01*
X135323Y17353D01*
X135190Y16953D01*
X135030Y16687D01*
X134817Y16487D01*
X134283D01*
G01X136870Y20487D02*
X136657Y20353D01*
X136497Y20020D01*
X136390Y19620D01*
X136310Y19087D01*
X136283Y18487D01*
X136310Y17887D01*
X136390Y17353D01*
X136497Y16953D01*
X136657Y16620D01*
X136870Y16487D01*
X137083Y16620D01*
X137243Y16953D01*
X137350Y17353D01*
X137430Y17887D01*
X137457Y18487D01*
X137430Y19087D01*
X137350Y19620D01*
X137243Y20020D01*
X137083Y20353D01*
X136870Y20487D01*
G01X138577Y17820D02*
X139217D01*
G01X138870Y18687D02*
Y16953D01*
G01X121653Y16597D02*
X122320Y20597D01*
X122987Y16597D01*
G01X122747Y17996D02*
X121893D01*
G01X123733Y16597D02*
Y20597D01*
X124267D01*
X124480Y20396D01*
X124640Y20130D01*
X124773Y19730D01*
X124880Y19263D01*
X124907Y18597D01*
X124880Y17930D01*
X124773Y17463D01*
X124640Y17063D01*
X124480Y16797D01*
X124267Y16597D01*
X123733D01*
G01X126320Y20597D02*
X126107Y20463D01*
X125947Y20130D01*
X125840Y19730D01*
X125760Y19196D01*
X125733Y18597D01*
X125760Y17996D01*
X125840Y17463D01*
X125947Y17063D01*
X126107Y16730D01*
X126320Y16597D01*
X126533Y16730D01*
X126693Y17063D01*
X126800Y17463D01*
X126880Y17996D01*
X126907Y18597D01*
X126880Y19196D01*
X126800Y19730D01*
X126693Y20130D01*
X126533Y20463D01*
X126320Y20597D01*
G01X127973Y17930D02*
X128667D01*
G01X112613Y16477D02*
X113280Y20477D01*
X113947Y16477D01*
G01X113707Y17877D02*
X112853D01*
G01X114693Y16477D02*
Y20477D01*
X115227D01*
X115440Y20277D01*
X115600Y20010D01*
X115733Y19610D01*
X115840Y19143D01*
X115867Y18477D01*
X115840Y17810D01*
X115733Y17343D01*
X115600Y16943D01*
X115440Y16677D01*
X115227Y16477D01*
X114693D01*
G01X116693Y17277D02*
X116853Y16810D01*
X117067Y16543D01*
X117307Y16477D01*
X117520Y16543D01*
X117733Y16877D01*
X117867Y17277D01*
X117893Y17677D01*
X117840Y18143D01*
X117653Y18477D01*
X117467Y18610D01*
X117227D01*
G01X117467D02*
X117627Y18810D01*
X117760Y19143D01*
X117813Y19543D01*
X117760Y19943D01*
X117627Y20277D01*
X117387Y20477D01*
X117147Y20410D01*
X116907Y20143D01*
G01X118933Y17810D02*
X119627D01*
G01X131777Y66087D02*
Y62087D01*
X132843D01*
G01X134843D02*
X133777D01*
Y66087D01*
X134843D01*
G01X134417Y64153D02*
X133777D01*
G01X135723Y62087D02*
Y66087D01*
X136257D01*
X136470Y65887D01*
X136630Y65620D01*
X136763Y65220D01*
X136870Y64753D01*
X136897Y64087D01*
X136870Y63420D01*
X136763Y62953D01*
X136630Y62553D01*
X136470Y62287D01*
X136257Y62087D01*
X135723D01*
G01X137803Y65420D02*
X137963Y65820D01*
X138150Y66020D01*
X138363Y66087D01*
X138630Y65953D01*
X138817Y65620D01*
X138870Y65220D01*
X138843Y64820D01*
X138737Y64487D01*
X138203Y63820D01*
X137963Y63353D01*
X137803Y62687D01*
X137750Y62087D01*
X138870D01*
G01X139963Y63420D02*
X140657D01*
G01X131557Y75837D02*
Y71837D01*
X132623D01*
G01X134623D02*
X133557D01*
Y75837D01*
X134623D01*
G01X134197Y73903D02*
X133557D01*
G01X135503Y71837D02*
Y75837D01*
X136037D01*
X136250Y75637D01*
X136410Y75370D01*
X136543Y74970D01*
X136650Y74503D01*
X136677Y73837D01*
X136650Y73170D01*
X136543Y72703D01*
X136410Y72303D01*
X136250Y72037D01*
X136037Y71837D01*
X135503D01*
G01X137797Y73170D02*
X138437D01*
G01X138090Y74037D02*
Y72303D01*
G01X131290Y82677D02*
Y86677D01*
X130970Y85877D01*
G01Y82677D02*
X131610D01*
G01X133290Y82543D02*
X133237Y82610D01*
Y82743D01*
X133290Y82810D01*
X133343Y82743D01*
Y82610D01*
X133290Y82543D01*
G01X135290Y82677D02*
X135477Y82743D01*
X135690Y82943D01*
X135823Y83277D01*
X135877Y83743D01*
X135823Y84210D01*
X135663Y84610D01*
X135423Y84810D01*
X135157D01*
X134997Y84943D01*
X134863Y85277D01*
X134810Y85743D01*
X134890Y86210D01*
X135077Y86543D01*
X135290Y86677D01*
X135503Y86543D01*
X135690Y86210D01*
X135770Y85743D01*
X135717Y85277D01*
X135583Y84943D01*
X135423Y84810D01*
X135157D01*
X134917Y84610D01*
X134757Y84210D01*
X134703Y83743D01*
X134757Y83277D01*
X134890Y82943D01*
X135103Y82743D01*
X135290Y82677D01*
G01X136623Y86677D02*
X137290Y82677D01*
X137957Y86677D01*
G01X130913Y93880D02*
X131607D01*
G01X132673Y93147D02*
X132833Y92813D01*
X133020Y92613D01*
X133260Y92547D01*
X133500Y92680D01*
X133687Y92947D01*
X133820Y93413D01*
X133847Y93947D01*
X133793Y94480D01*
X133660Y94813D01*
X133473Y95080D01*
X133287Y95147D01*
X133100Y95080D01*
X132860Y94813D01*
X132940Y96547D01*
X133660D01*
G01X134593D02*
X135260Y92547D01*
X135927Y96547D01*
G01X131157Y102970D02*
X131797D01*
G01X131450Y103837D02*
Y102103D01*
G01X132863Y102237D02*
X133023Y101903D01*
X133210Y101703D01*
X133450Y101637D01*
X133690Y101770D01*
X133877Y102037D01*
X134010Y102503D01*
X134037Y103037D01*
X133983Y103570D01*
X133850Y103903D01*
X133663Y104170D01*
X133477Y104237D01*
X133290Y104170D01*
X133050Y103903D01*
X133130Y105637D01*
X133850D01*
G01X134783D02*
X135450Y101637D01*
X136117Y105637D01*
G01X152493Y16447D02*
X153160Y20447D01*
X153827Y16447D01*
G01X153587Y17847D02*
X152733D01*
G01X154573Y16447D02*
Y20447D01*
X155107D01*
X155320Y20247D01*
X155480Y19980D01*
X155613Y19580D01*
X155720Y19113D01*
X155747Y18447D01*
X155720Y17780D01*
X155613Y17313D01*
X155480Y16913D01*
X155320Y16647D01*
X155107Y16447D01*
X154573D01*
G01X157160D02*
Y20447D01*
X156840Y19647D01*
G01Y16447D02*
X157480D01*
G01X158867Y17780D02*
X159507D01*
G01X159160Y18647D02*
Y16913D01*
G01X142743Y16437D02*
X143410Y20437D01*
X144077Y16437D01*
G01X143837Y17837D02*
X142983D01*
G01X144823Y16437D02*
Y20437D01*
X145357D01*
X145570Y20237D01*
X145730Y19970D01*
X145863Y19570D01*
X145970Y19103D01*
X145997Y18437D01*
X145970Y17770D01*
X145863Y17303D01*
X145730Y16903D01*
X145570Y16637D01*
X145357Y16437D01*
X144823D01*
G01X147410D02*
Y20437D01*
X147090Y19637D01*
G01Y16437D02*
X147730D01*
G01X149063Y17770D02*
X149757D01*
G01X133537Y55707D02*
Y51707D01*
X134603D01*
G01X136603D02*
X135537D01*
Y55707D01*
X136603D01*
G01X136177Y53773D02*
X135537D01*
G01X137483Y51707D02*
Y55707D01*
X138017D01*
X138230Y55507D01*
X138390Y55240D01*
X138523Y54840D01*
X138630Y54373D01*
X138657Y53707D01*
X138630Y53040D01*
X138523Y52573D01*
X138390Y52173D01*
X138230Y51907D01*
X138017Y51707D01*
X137483D01*
G01X140070D02*
Y55707D01*
X139750Y54907D01*
G01Y51707D02*
X140390D01*
G01X141723Y53040D02*
X142417D01*
G01X173463Y18660D02*
X173570Y18860D01*
X173650Y19193D01*
X173703Y19660D01*
X173650Y20060D01*
X173543Y20327D01*
X173357Y20527D01*
X172637D01*
Y16527D01*
X173517D01*
X173703Y16793D01*
X173810Y17193D01*
X173863Y17660D01*
X173810Y18127D01*
X173650Y18527D01*
X173463Y18660D01*
X172637D01*
G01X174663Y16527D02*
Y20527D01*
X175197D01*
X175410Y20327D01*
X175570Y20060D01*
X175703Y19660D01*
X175810Y19193D01*
X175837Y18527D01*
X175810Y17860D01*
X175703Y17393D01*
X175570Y16993D01*
X175410Y16727D01*
X175197Y16527D01*
X174663D01*
G01X176663Y17327D02*
X176823Y16860D01*
X177037Y16593D01*
X177277Y16527D01*
X177490Y16593D01*
X177703Y16927D01*
X177837Y17327D01*
X177863Y17727D01*
X177810Y18193D01*
X177623Y18527D01*
X177437Y18660D01*
X177197D01*
G01X177437D02*
X177597Y18860D01*
X177730Y19193D01*
X177783Y19593D01*
X177730Y19993D01*
X177597Y20327D01*
X177357Y20527D01*
X177117Y20460D01*
X176877Y20193D01*
G01X178957Y17860D02*
X179597D01*
G01X179250Y18727D02*
Y16993D01*
G01X163423Y18610D02*
X163530Y18810D01*
X163610Y19143D01*
X163663Y19610D01*
X163610Y20010D01*
X163503Y20277D01*
X163317Y20477D01*
X162597D01*
Y16477D01*
X163477D01*
X163663Y16743D01*
X163770Y17143D01*
X163823Y17610D01*
X163770Y18077D01*
X163610Y18477D01*
X163423Y18610D01*
X162597D01*
G01X164623Y16477D02*
Y20477D01*
X165157D01*
X165370Y20277D01*
X165530Y20010D01*
X165663Y19610D01*
X165770Y19143D01*
X165797Y18477D01*
X165770Y17810D01*
X165663Y17343D01*
X165530Y16943D01*
X165370Y16677D01*
X165157Y16477D01*
X164623D01*
G01X166623Y17277D02*
X166783Y16810D01*
X166997Y16543D01*
X167237Y16477D01*
X167450Y16543D01*
X167663Y16877D01*
X167797Y17277D01*
X167823Y17677D01*
X167770Y18143D01*
X167583Y18477D01*
X167397Y18610D01*
X167157D01*
G01X167397D02*
X167557Y18810D01*
X167690Y19143D01*
X167743Y19543D01*
X167690Y19943D01*
X167557Y20277D01*
X167317Y20477D01*
X167077Y20410D01*
X166837Y20143D01*
G01X168863Y17810D02*
X169557D01*
G01X192713Y18630D02*
X192820Y18830D01*
X192900Y19163D01*
X192953Y19630D01*
X192900Y20030D01*
X192793Y20297D01*
X192607Y20497D01*
X191887D01*
Y16497D01*
X192767D01*
X192953Y16763D01*
X193060Y17163D01*
X193113Y17630D01*
X193060Y18097D01*
X192900Y18497D01*
X192713Y18630D01*
X191887D01*
G01X195087Y20163D02*
X194927Y20363D01*
X194740Y20497D01*
X194527D01*
X194287Y20297D01*
X194100Y19963D01*
X193967Y19563D01*
X193860Y18897D01*
X193833Y18297D01*
X193887Y17697D01*
X193967Y17297D01*
X194127Y16897D01*
X194313Y16630D01*
X194500Y16497D01*
X194687D01*
X194873Y16630D01*
X195033Y16830D01*
X195167Y17097D01*
G01X195913Y16497D02*
Y20497D01*
G01X196927D02*
X195913Y18030D01*
G01X197087Y16497D02*
X196367Y19163D01*
G01X198207Y17830D02*
X198847D01*
G01X198500Y18697D02*
Y16963D01*
G01X183233Y18630D02*
X183340Y18830D01*
X183420Y19163D01*
X183473Y19630D01*
X183420Y20030D01*
X183313Y20297D01*
X183127Y20497D01*
X182407D01*
Y16497D01*
X183287D01*
X183473Y16763D01*
X183580Y17163D01*
X183633Y17630D01*
X183580Y18097D01*
X183420Y18497D01*
X183233Y18630D01*
X182407D01*
G01X185607Y20163D02*
X185447Y20363D01*
X185260Y20497D01*
X185047D01*
X184807Y20297D01*
X184620Y19963D01*
X184487Y19563D01*
X184380Y18897D01*
X184353Y18297D01*
X184407Y17697D01*
X184487Y17297D01*
X184647Y16897D01*
X184833Y16630D01*
X185020Y16497D01*
X185207D01*
X185393Y16630D01*
X185553Y16830D01*
X185687Y17097D01*
G01X186433Y16497D02*
Y20497D01*
G01X187447D02*
X186433Y18030D01*
G01X187607Y16497D02*
X186887Y19163D01*
G01X188673Y17830D02*
X189367D01*
G01X175193Y133827D02*
X175860Y129827D01*
X176527Y133827D01*
G01X177860Y129827D02*
Y133827D01*
X177540Y133027D01*
G01Y129827D02*
X178180D01*
G01X179860Y129693D02*
X179807Y129760D01*
Y129893D01*
X179860Y129960D01*
X179913Y129893D01*
Y129760D01*
X179860Y129693D01*
G01X181860Y133827D02*
X181647Y133693D01*
X181487Y133360D01*
X181380Y132960D01*
X181300Y132427D01*
X181273Y131827D01*
X181300Y131227D01*
X181380Y130693D01*
X181487Y130293D01*
X181647Y129960D01*
X181860Y129827D01*
X182073Y129960D01*
X182233Y130293D01*
X182340Y130693D01*
X182420Y131227D01*
X182447Y131827D01*
X182420Y132427D01*
X182340Y132960D01*
X182233Y133360D01*
X182073Y133693D01*
X181860Y133827D01*
G01X183860Y129827D02*
Y133827D01*
X183540Y133027D01*
G01Y129827D02*
X184180D01*
G01X174893Y127780D02*
X175053Y128180D01*
X175240Y128380D01*
X175453Y128447D01*
X175720Y128313D01*
X175907Y127980D01*
X175960Y127580D01*
X175933Y127180D01*
X175827Y126847D01*
X175293Y126180D01*
X175053Y125713D01*
X174893Y125047D01*
X174840Y124447D01*
X175960D01*
G01X177400Y128447D02*
X177187Y128313D01*
X177027Y127980D01*
X176920Y127580D01*
X176840Y127047D01*
X176813Y126447D01*
X176840Y125847D01*
X176920Y125313D01*
X177027Y124913D01*
X177187Y124580D01*
X177400Y124447D01*
X177613Y124580D01*
X177773Y124913D01*
X177880Y125313D01*
X177960Y125847D01*
X177987Y126447D01*
X177960Y127047D01*
X177880Y127580D01*
X177773Y127980D01*
X177613Y128313D01*
X177400Y128447D01*
G01X179400Y124447D02*
Y128447D01*
X179080Y127647D01*
G01Y124447D02*
X179720D01*
G01X180813Y125047D02*
X180973Y124713D01*
X181160Y124513D01*
X181400Y124447D01*
X181640Y124580D01*
X181827Y124847D01*
X181960Y125313D01*
X181987Y125847D01*
X181933Y126380D01*
X181800Y126713D01*
X181613Y126980D01*
X181427Y127047D01*
X181240Y126980D01*
X181000Y126713D01*
X181080Y128447D01*
X181800D01*
G01X183400Y124313D02*
X183347Y124380D01*
Y124513D01*
X183400Y124580D01*
X183453Y124513D01*
Y124380D01*
X183400Y124313D01*
G01X184893Y126113D02*
X185080Y126580D01*
X185240Y126847D01*
X185453Y126980D01*
X185640Y126847D01*
X185773Y126580D01*
X185880Y126180D01*
X185907Y125713D01*
X185880Y125313D01*
X185773Y124913D01*
X185613Y124580D01*
X185427Y124447D01*
X185213Y124580D01*
X185027Y124980D01*
X184920Y125580D01*
X184893Y126247D01*
X184947Y127113D01*
X185027Y127580D01*
X185160Y128047D01*
X185347Y128380D01*
X185533Y128447D01*
X185720Y128313D01*
X185853Y127980D01*
G01X187400Y124313D02*
X187347Y124380D01*
Y124513D01*
X187400Y124580D01*
X187453Y124513D01*
Y124380D01*
X187400Y124313D01*
G01X188947Y124913D02*
X189133Y124580D01*
X189347Y124447D01*
X189560Y124580D01*
X189747Y124980D01*
X189880Y125580D01*
X189933Y126180D01*
Y126913D01*
X189880Y127513D01*
X189747Y128047D01*
X189587Y128313D01*
X189400Y128447D01*
X189187Y128313D01*
X189027Y128047D01*
X188920Y127647D01*
X188867Y127113D01*
X188920Y126647D01*
X189053Y126180D01*
X189213Y125913D01*
X189400Y125847D01*
X189613Y125980D01*
X189773Y126313D01*
X189933Y126913D01*
G01X175207Y139787D02*
Y135787D01*
X176273D01*
G01X178327Y139453D02*
X178167Y139653D01*
X177980Y139787D01*
X177767D01*
X177527Y139587D01*
X177340Y139253D01*
X177207Y138853D01*
X177100Y138187D01*
X177073Y137587D01*
X177127Y136987D01*
X177207Y136587D01*
X177367Y136187D01*
X177553Y135920D01*
X177740Y135787D01*
X177927D01*
X178113Y135920D01*
X178273Y136120D01*
X178407Y136387D01*
G01X179153Y135787D02*
Y139787D01*
X179687D01*
X179900Y139587D01*
X180060Y139320D01*
X180193Y138920D01*
X180300Y138453D01*
X180327Y137787D01*
X180300Y137120D01*
X180193Y136653D01*
X180060Y136253D01*
X179900Y135987D01*
X179687Y135787D01*
X179153D01*
G01X180940Y134453D02*
X182540D01*
G01X183207Y135787D02*
Y139787D01*
X183847D01*
X184060Y139587D01*
X184220Y139120D01*
X184273Y138587D01*
X184220Y138053D01*
X184087Y137653D01*
X183847Y137453D01*
X183207D01*
G01X184940Y139787D02*
X185313Y135787D01*
X185740Y139787D01*
X186167Y135787D01*
X186540Y139787D01*
G01X213403Y22520D02*
X213510Y22720D01*
X213590Y23053D01*
X213643Y23520D01*
X213590Y23920D01*
X213483Y24187D01*
X213297Y24387D01*
X212577D01*
Y20387D01*
X213457D01*
X213643Y20653D01*
X213750Y21053D01*
X213803Y21520D01*
X213750Y21987D01*
X213590Y22387D01*
X213403Y22520D01*
X212577D01*
G01X214603Y20387D02*
Y24387D01*
X215137D01*
X215350Y24187D01*
X215510Y23920D01*
X215643Y23520D01*
X215750Y23053D01*
X215777Y22387D01*
X215750Y21720D01*
X215643Y21253D01*
X215510Y20853D01*
X215350Y20587D01*
X215137Y20387D01*
X214603D01*
G01X216683Y23720D02*
X216843Y24120D01*
X217030Y24320D01*
X217243Y24387D01*
X217510Y24253D01*
X217697Y23920D01*
X217750Y23520D01*
X217723Y23120D01*
X217617Y22787D01*
X217083Y22120D01*
X216843Y21653D01*
X216683Y20987D01*
X216630Y20387D01*
X217750D01*
G01X218897Y21720D02*
X219537D01*
G01X219190Y22587D02*
Y20853D01*
G01X203993Y18710D02*
X204100Y18910D01*
X204180Y19243D01*
X204233Y19710D01*
X204180Y20110D01*
X204073Y20377D01*
X203887Y20577D01*
X203167D01*
Y16577D01*
X204047D01*
X204233Y16843D01*
X204340Y17243D01*
X204393Y17710D01*
X204340Y18177D01*
X204180Y18577D01*
X203993Y18710D01*
X203167D01*
G01X205193Y16577D02*
Y20577D01*
X205727D01*
X205940Y20377D01*
X206100Y20110D01*
X206233Y19710D01*
X206340Y19243D01*
X206367Y18577D01*
X206340Y17910D01*
X206233Y17443D01*
X206100Y17043D01*
X205940Y16777D01*
X205727Y16577D01*
X205193D01*
G01X207273Y19910D02*
X207433Y20310D01*
X207620Y20510D01*
X207833Y20577D01*
X208100Y20443D01*
X208287Y20110D01*
X208340Y19710D01*
X208313Y19310D01*
X208207Y18977D01*
X207673Y18310D01*
X207433Y17843D01*
X207273Y17177D01*
X207220Y16577D01*
X208340D01*
G01X209433Y17910D02*
X210127D01*
G01X208210Y127677D02*
Y131677D01*
G01X209330D02*
Y127677D01*
G01Y129677D02*
X208210D01*
G01X210210Y128210D02*
X210423Y127877D01*
X210663Y127677D01*
X210877D01*
X211090Y127877D01*
X211250Y128210D01*
X211330Y128677D01*
X211277Y129143D01*
X211143Y129543D01*
X210903Y129810D01*
X210583Y129943D01*
X210397Y130210D01*
X210317Y130677D01*
X210370Y131143D01*
X210503Y131477D01*
X210690Y131677D01*
X210877D01*
X211063Y131543D01*
X211223Y131210D01*
G01X212770Y127677D02*
Y129477D01*
X212237Y131677D01*
G01X213303D02*
X212770Y129477D01*
G01X214157Y127677D02*
Y131677D01*
X215383Y127677D01*
Y131677D01*
G01X217357Y131343D02*
X217197Y131543D01*
X217010Y131677D01*
X216797D01*
X216557Y131477D01*
X216370Y131143D01*
X216237Y130743D01*
X216130Y130077D01*
X216103Y129477D01*
X216157Y128877D01*
X216237Y128477D01*
X216397Y128077D01*
X216583Y127810D01*
X216770Y127677D01*
X216957D01*
X217143Y127810D01*
X217303Y128010D01*
X217437Y128277D01*
G01X211607Y117707D02*
Y121707D01*
X212247D01*
X212460Y121507D01*
X212620Y121040D01*
X212673Y120507D01*
X212620Y119973D01*
X212487Y119573D01*
X212247Y119373D01*
X211607D01*
G01X213340Y121707D02*
X213713Y117707D01*
X214140Y121707D01*
X214567Y117707D01*
X214940Y121707D01*
G01X215447Y117707D02*
Y121707D01*
X216140Y118373D01*
X216833Y121707D01*
Y117707D01*
G01X206867Y147507D02*
Y151507D01*
X207533D01*
X207747Y151307D01*
X207880Y151040D01*
X207933Y150507D01*
X207880Y149973D01*
X207720Y149640D01*
X207533Y149440D01*
X206867D01*
G01X207533D02*
X207933Y147507D01*
G01X209933D02*
X208867D01*
Y151507D01*
X209933D01*
G01X209507Y149573D02*
X208867D01*
G01X210840Y148040D02*
X211053Y147707D01*
X211293Y147507D01*
X211507D01*
X211720Y147707D01*
X211880Y148040D01*
X211960Y148507D01*
X211907Y148973D01*
X211773Y149373D01*
X211533Y149640D01*
X211213Y149773D01*
X211027Y150040D01*
X210947Y150507D01*
X211000Y150973D01*
X211133Y151307D01*
X211320Y151507D01*
X211507D01*
X211693Y151373D01*
X211853Y151040D01*
G01X213933Y147507D02*
X212867D01*
Y151507D01*
X213933D01*
G01X213507Y149573D02*
X212867D01*
G01X215400Y151507D02*
Y147507D01*
G01X214787Y151507D02*
X216013D01*
G01X221507Y9807D02*
X221640Y9407D01*
X221800Y9140D01*
X221987Y9007D01*
X222200Y9140D01*
X222360Y9407D01*
X222520Y9807D01*
X222573Y10340D01*
Y13007D01*
G01X223453Y9807D02*
X223613Y9340D01*
X223827Y9073D01*
X224067Y9007D01*
X224280Y9073D01*
X224493Y9407D01*
X224627Y9807D01*
X224653Y10207D01*
X224600Y10673D01*
X224413Y11007D01*
X224227Y11140D01*
X223987D01*
G01X224227D02*
X224387Y11340D01*
X224520Y11673D01*
X224573Y12073D01*
X224520Y12473D01*
X224387Y12807D01*
X224147Y13007D01*
X223907Y12940D01*
X223667Y12673D01*
G01X225747Y112623D02*
X225347Y112490D01*
X225080Y112330D01*
X224947Y112143D01*
X225080Y111930D01*
X225347Y111770D01*
X225747Y111610D01*
X226280Y111557D01*
X228947D01*
G01X224947Y110090D02*
X228947D01*
X228147Y110410D01*
G01X224947D02*
Y109770D01*
G01X214020Y141737D02*
Y137737D01*
G01X213407Y141737D02*
X214633D01*
G01X216553Y137737D02*
X215487D01*
Y141737D01*
X216553D01*
G01X216127Y139803D02*
X215487D01*
G54D12*
G01X61417Y92913D02*
X60236D01*
Y104724D01*
X61417D01*
G01X70866Y92913D02*
X72047D01*
Y104724D01*
X70866D01*
G01X78464Y87657D02*
X90039D01*
G01X77050Y89793D02*
G03X78464Y87657I4058J1152D01*
G01X90039D02*
G03Y94232I-2644J3287D01*
G01X78464D02*
X90039D01*
G01X78464D02*
G03X77092Y92236I2644J-3287D01*
G01X128110Y48740D02*
Y108740D01*
X108110D01*
Y48740D01*
X128110D01*
G01X173401Y103346D02*
X172638D01*
Y54134D01*
X189567D01*
Y103346D01*
G01D02*
X180473D01*
G01X179207D02*
X175339D01*
G54D13*
G01X12874Y17559D02*
Y37559D01*
X2874D01*
Y17559D01*
X12874D01*
G01X2874Y38740D02*
Y118740D01*
X12874D01*
Y38740D01*
X2874D01*
G01X5120Y144620D02*
X105120D01*
Y154600D01*
X5120D01*
Y144620D01*
G01X220000Y5500D02*
X20000D01*
Y15500D01*
X220000D01*
Y5500D01*
G01X27559Y20079D02*
Y29528D01*
X32284D01*
Y20079D01*
X27559D01*
G01X26772Y29528D02*
Y20079D01*
X22047D01*
Y29528D01*
X26772D01*
G01X23524Y68209D02*
Y67716D01*
X28445D01*
Y68209D01*
G01X23524Y75098D02*
Y75591D01*
X28445D01*
Y75098D01*
G01X35197Y88425D02*
Y108425D01*
X15197D01*
Y88723D01*
G01X15681Y88425D02*
X35197D01*
G01X19685Y81890D02*
X29134D01*
Y77165D01*
X19685D01*
Y81890D01*
G01X36220Y70079D02*
Y60630D01*
G01X40945Y70079D02*
Y60630D01*
G01Y70079D02*
G03X36220I-2362J-984D01*
G01Y60630D02*
G03X40945I2362J984D01*
G01X36220Y72835D02*
G03X40945I2362J984D01*
G01D02*
Y82284D01*
G01X36220Y72835D02*
Y82284D01*
G01X40945D02*
G03X36220I-2362J-984D01*
G01X53162Y86524D02*
Y77076D01*
X48438D01*
Y86524D01*
X53162D01*
G01X35197Y123465D02*
X115197D01*
Y143465D01*
X35197D01*
Y123465D01*
G01X69685Y27559D02*
Y37008D01*
X74409D01*
Y27559D01*
X69685D01*
G01Y37008D02*
Y27559D01*
X64961D01*
Y37008D01*
X69685D01*
G01X62598Y52362D02*
X61417D01*
Y47126D01*
G01Y44534D02*
Y40551D01*
X62598D01*
G01X68438Y56246D02*
Y65694D01*
G01Y56246D02*
G03X73162I2362J984D01*
G01X71106Y67251D02*
G03X68438Y65694I-306J-2541D01*
G01X66535Y65748D02*
Y56299D01*
X61811D01*
Y65748D01*
X66535D01*
G01X58613Y87487D02*
Y75913D01*
G01X65187Y87487D02*
Y75913D01*
G01Y87487D02*
G03X58613I-3287J-2644D01*
G01Y75913D02*
G03X65187I3287J2644D01*
G01X70244Y77163D02*
X75756D01*
G01X70244Y85037D02*
X75756D01*
G01X57736Y121535D02*
Y109961D01*
G01X64311Y121535D02*
Y109961D01*
G01X57736D02*
G03X64311I3287J2644D01*
G01Y121535D02*
G03X57736I-3287J-2644D01*
G01X72047Y52362D02*
X73228D01*
Y47089D01*
G01Y44191D02*
Y40551D01*
X72047D01*
G01X79134Y33071D02*
X88583D01*
G01X79134Y37795D02*
X88583D01*
G01X79134D02*
G03Y33071I984J-2362D01*
G01X88583D02*
G03Y37795I-984J2362D01*
G01X78347Y40551D02*
X77471D01*
G01X75984Y42425D02*
Y51575D01*
X78347D01*
G01X83858Y40551D02*
X86221D01*
Y51575D01*
X83858D01*
G01X73162Y56246D02*
Y65694D01*
G01D02*
G03X73049Y65930I-2362J-985D01*
G01X84390Y95787D02*
Y107362D01*
G01X77815Y95787D02*
Y107362D01*
G01Y95787D02*
G03X84390I3287J2644D01*
G01Y107362D02*
G03X77815I-3287J-2644D01*
G01X79921Y120472D02*
X74410D01*
G01X79921Y112598D02*
X74410D01*
G01X222000Y154400D02*
Y114400D01*
X232000D01*
Y154400D01*
X222000D01*
G54D14*
G01X60346Y96307D02*
X58554D01*
X58179Y96201D01*
X57929Y95987D01*
X57846Y95721D01*
X57929Y95454D01*
X58179Y95241D01*
X58554Y95134D01*
X60346D01*
G01X57846Y93521D02*
X60346D01*
X59846Y93841D01*
G01X57846D02*
Y93201D01*
G01X77410Y91891D02*
X77535Y92051D01*
X77618Y92238D01*
Y92451D01*
X77493Y92691D01*
X77285Y92878D01*
X77035Y93011D01*
X76618Y93118D01*
X76243Y93145D01*
X75868Y93091D01*
X75618Y93011D01*
X75368Y92851D01*
X75202Y92665D01*
X75118Y92478D01*
Y92291D01*
X75202Y92105D01*
X75327Y91945D01*
X75493Y91811D01*
G01X75618Y90865D02*
X75327Y90705D01*
X75160Y90491D01*
X75118Y90251D01*
X75160Y90038D01*
X75368Y89825D01*
X75618Y89691D01*
X75868Y89665D01*
X76160Y89718D01*
X76368Y89905D01*
X76452Y90091D01*
Y90331D01*
G01Y90091D02*
X76577Y89931D01*
X76785Y89798D01*
X77035Y89745D01*
X77285Y89798D01*
X77493Y89931D01*
X77618Y90171D01*
X77577Y90411D01*
X77410Y90651D01*
G01X97413Y50070D02*
X97664Y50203D01*
X97830Y50363D01*
X97913Y50550D01*
X97830Y50763D01*
X97664Y50923D01*
X97413Y51083D01*
X97080Y51136D01*
X95413D01*
G01X95830Y52296D02*
X95580Y52456D01*
X95455Y52643D01*
X95413Y52856D01*
X95497Y53123D01*
X95705Y53310D01*
X95955Y53363D01*
X96205Y53336D01*
X96413Y53230D01*
X96830Y52696D01*
X97122Y52456D01*
X97538Y52296D01*
X97913Y52243D01*
Y53363D01*
G01X168057Y55440D02*
X167897Y55190D01*
X167710Y55065D01*
X167497Y55024D01*
X167230Y55107D01*
X167044Y55315D01*
X166990Y55565D01*
X167017Y55815D01*
X167124Y56024D01*
X167657Y56440D01*
X167897Y56732D01*
X168057Y57149D01*
X168110Y57524D01*
X166990D01*
G01X165857Y56482D02*
X165670Y56190D01*
X165510Y56024D01*
X165297Y55940D01*
X165110Y56024D01*
X164977Y56190D01*
X164870Y56440D01*
X164844Y56732D01*
X164870Y56982D01*
X164977Y57232D01*
X165137Y57440D01*
X165324Y57524D01*
X165537Y57440D01*
X165724Y57190D01*
X165830Y56815D01*
X165857Y56399D01*
X165804Y55857D01*
X165724Y55565D01*
X165590Y55274D01*
X165404Y55065D01*
X165217Y55024D01*
X165030Y55107D01*
X164897Y55315D01*
G01X171637Y98444D02*
X171477Y98652D01*
X171290Y98777D01*
X171050Y98819D01*
X170810Y98736D01*
X170624Y98569D01*
X170490Y98277D01*
X170464Y97944D01*
X170517Y97611D01*
X170650Y97402D01*
X170837Y97236D01*
X171024Y97194D01*
X171210Y97236D01*
X171450Y97402D01*
X171370Y96319D01*
X170650D01*
G01X168850D02*
X169064Y96402D01*
X169224Y96611D01*
X169330Y96860D01*
X169410Y97194D01*
X169437Y97569D01*
X169410Y97944D01*
X169330Y98277D01*
X169224Y98527D01*
X169064Y98736D01*
X168850Y98819D01*
X168637Y98736D01*
X168477Y98527D01*
X168370Y98277D01*
X168290Y97944D01*
X168264Y97569D01*
X168290Y97194D01*
X168370Y96860D01*
X168477Y96611D01*
X168637Y96402D01*
X168850Y96319D01*
G01X178957Y62484D02*
X180749D01*
X181124Y62590D01*
X181374Y62804D01*
X181457Y63071D01*
X181374Y63337D01*
X181124Y63550D01*
X180749Y63657D01*
X178957D01*
G01X179374Y64764D02*
X179124Y64924D01*
X178999Y65111D01*
X178957Y65324D01*
X179040Y65590D01*
X179249Y65777D01*
X179499Y65830D01*
X179749Y65804D01*
X179957Y65697D01*
X180374Y65164D01*
X180665Y64924D01*
X181082Y64764D01*
X181457Y64711D01*
Y65830D01*
G01X197892Y55440D02*
X197732Y55190D01*
X197545Y55065D01*
X197332Y55024D01*
X197065Y55107D01*
X196878Y55315D01*
X196825Y55565D01*
X196852Y55815D01*
X196958Y56024D01*
X197492Y56440D01*
X197732Y56732D01*
X197892Y57149D01*
X197945Y57524D01*
X196825D01*
G01X195772Y57149D02*
X195612Y57357D01*
X195425Y57482D01*
X195185Y57524D01*
X194945Y57440D01*
X194758Y57274D01*
X194625Y56982D01*
X194598Y56649D01*
X194652Y56315D01*
X194785Y56107D01*
X194972Y55940D01*
X195158Y55899D01*
X195345Y55940D01*
X195585Y56107D01*
X195505Y55024D01*
X194785D01*
G54D15*
G01X7874Y0D02*
X228346D01*
G03X236220Y7874I0J7874D01*
G01Y149606D01*
G03X228346Y157480I-7874J0D01*
G01X7874D01*
G03X0Y149606I0J-7874D01*
G01Y7874D01*
G03X7874Y0I7874J0D01*
M02*
