G04 ================== begin FILE IDENTIFICATION RECORD ==================*
G04 Layout Name:  lcdpower.brd*
G04 Film Name:    TOP*
G04 File Format:  Gerber RS274X*
G04 File Origin:  Cadence Allegro 16.5-P002*
G04 Origin Date:  Tue Jun 09 14:51:19 2015*
G04 *
G04 Layer:  VIA CLASS/TOP*
G04 Layer:  PIN/TOP*
G04 Layer:  ETCH/TOP*
G04 Layer:  BOARD GEOMETRY/OUTLINE*
G04 *
G04 Offset:    (0.000 0.000)*
G04 Mirror:    No*
G04 Mode:      Positive*
G04 Rotation:  0*
G04 FullContactRelief:  No*
G04 UndefLineWidth:     0.100*
G04 ================== end FILE IDENTIFICATION RECORD ====================*
%FSLAX35Y35*MOIN*%
%IR0*IPPOS*OFA0.00000B0.00000*MIA0B0*SFA1.00000B1.00000*%
%ADD19R,.009843X.023622*%
%ADD23R,.007874X.023622*%
%ADD28R,.062992X.007874*%
%ADD20R,.05X.037402*%
%ADD27R,.037402X.05*%
%ADD13C,.023622*%
%ADD15R,.047244X.011811*%
%ADD26R,.011811X.047244*%
%ADD11C,.059055*%
%ADD25R,.047244X.025591*%
%ADD22R,.086614X.066142*%
%ADD12R,.031496X.025591*%
%ADD10R,.059055X.059055*%
%ADD16R,.025591X.031496*%
%ADD21R,.031496X.086614*%
%ADD14R,.047244X.019685*%
%ADD17R,.031496X.027559*%
%ADD24R,.027559X.031496*%
%ADD18R,.07874X.062992*%
%ADD29C,.008*%
%ADD30C,.0082*%
%ADD31C,.02*%
%ADD32C,.000394*%
%ADD33C,.07506*%
%ADD34C,.06906*%
%ADD35R,.075058X.07506*%
%ADD37R,.059248X.023814*%
%ADD36R,.059248X.023816*%
G75*
%LPD*%
G75*
G36*
G01X9930Y69987D02*
X21834Y58083D01*
G02X21551Y57400I-283J-283D01*
G01X15911D01*
X11627Y61685D01*
X11627Y63702D01*
Y63703D01*
G03Y63777I-3753J37D01*
G01Y64540D01*
X11544D01*
X11505Y64690D01*
G03X6944Y60104I-3631J-950D01*
G01X7090Y60067D01*
X7092Y59987D01*
X9930D01*
X14917Y55000D01*
X52443D01*
G02X52800Y54420I0J-400D01*
G03X53186Y52113I1770J-890D01*
G01X53186Y52112D01*
X53370Y51928D01*
Y40383D01*
X54510Y39243D01*
Y29120D01*
X32296D01*
Y29540D01*
X28617D01*
X28313Y29772D01*
X27564Y29120D01*
X26767D01*
X26017Y29772D01*
X25713Y29540D01*
X22034D01*
Y25381D01*
X24220D01*
Y24225D01*
X23087D01*
X22788Y24435D01*
X22282Y24006D01*
X22105D01*
X21692Y24419D01*
X19016D01*
X17630Y25805D01*
Y42912D01*
X17647Y42950D01*
G03X15040Y45557I-1817J790D01*
G01X15001Y45540D01*
X13390D01*
X10809Y47765D01*
X10514Y47493D01*
X4121D01*
Y39987D01*
X10514D01*
X10809Y39716D01*
X13390Y41940D01*
X14030D01*
Y25805D01*
X12957Y24732D01*
X11627Y25879D01*
Y26312D01*
X4121D01*
Y18806D01*
X10514D01*
X10809Y18535D01*
X13390Y20759D01*
X15361D01*
X15384Y20753D01*
G03X15830Y20699I446J1806D01*
G01X20151D01*
X20564Y20285D01*
X22282D01*
X22788Y19856D01*
X23087Y20066D01*
X24220D01*
Y17680D01*
X1575D01*
Y146215D01*
X5982Y150622D01*
G02X6665Y150340I283J-283D01*
G01Y146153D01*
X13571D01*
Y153059D01*
X9385D01*
G02X9102Y153742I0J400D01*
G01X11265Y155905D01*
X104560D01*
Y104940D01*
X104063D01*
X98760Y99637D01*
Y81757D01*
X95153Y78150D01*
X91842D01*
X91658Y78334D01*
X91657Y78334D01*
G03Y75566I-1417J-1384D01*
G01X91658Y75566D01*
X91842Y75750D01*
X96147D01*
X100497Y80100D01*
G02X101180Y79817I283J-283D01*
G01Y76177D01*
X98743Y73740D01*
X59080D01*
Y82160D01*
X65200D01*
X65900Y82160D01*
Y76000D01*
X65901D01*
Y75969D01*
X70651D01*
Y76000D01*
X70700D01*
Y88700D01*
X75700D01*
Y87700D01*
X78452D01*
Y87644D01*
X83792D01*
Y87700D01*
X83800D01*
Y94300D01*
X76200D01*
Y95800D01*
X77802D01*
Y95775D01*
X84403D01*
Y95800D01*
X90000D01*
Y101100D01*
X84403D01*
Y101115D01*
X78000D01*
Y107900D01*
X84300D01*
Y121700D01*
X79500D01*
Y112200D01*
X74816D01*
Y121666D01*
X74800D01*
Y121700D01*
X68900D01*
Y103300D01*
X69085D01*
Y102549D01*
X71073D01*
Y103300D01*
X71300D01*
Y111400D01*
X71900D01*
Y95300D01*
X65700D01*
Y95290D01*
X64140D01*
Y87510D01*
X62633D01*
G02X62350Y88193I0J400D01*
G01X63405Y89248D01*
Y93307D01*
G03X63199Y93980I-1200J0D01*
G01Y95088D01*
X61211D01*
Y93980D01*
G03X61004Y93307I994J-673D01*
G01Y90242D01*
X60803Y90040D01*
G02X60120Y90323I-283J283D01*
G01Y106800D01*
X65700D01*
Y102400D01*
X68100D01*
Y115300D01*
X49800D01*
Y86537D01*
X48425D01*
Y86101D01*
X47916Y85658D01*
X30530D01*
X30387Y85800D01*
X29519D01*
X23950Y91370D01*
X23950Y93387D01*
Y93388D01*
G03X17522Y96058I-3753J38D01*
G01X17521Y96057D01*
X16090Y94625D01*
X12539D01*
X12224Y94940D01*
X11981D01*
X10550Y96372D01*
X10549Y96373D01*
G03Y91108I-2675J-2632D01*
G01X10550Y91108D01*
X11666Y92225D01*
X16090D01*
X17521Y90793D01*
X17522Y90793D01*
G03X20197Y89672I2675J2632D01*
G01X22253D01*
X28525Y83400D01*
X29393D01*
X29535Y83257D01*
X47916D01*
X48425Y82814D01*
Y82378D01*
X53175D01*
Y84840D01*
X53657Y85322D01*
G02X54340Y85039I283J-283D01*
G01Y68400D01*
X42268D01*
X41555Y69114D01*
X41516D01*
X40192Y70356D01*
X39871Y70092D01*
X37295D01*
X36973Y70356D01*
X36142Y69576D01*
X35424Y70295D01*
X33330D01*
Y70485D01*
X27005D01*
Y67704D01*
X33330D01*
Y67894D01*
X34430D01*
X35611Y66713D01*
X35649D01*
X36973Y65471D01*
X37295Y65735D01*
X39871D01*
X40192Y65471D01*
X41023Y66250D01*
X41274Y66000D01*
X55850D01*
G02X56087Y65278I0J-400D01*
G03X58050Y61864I1173J-1596D01*
G01X58089Y61881D01*
X61798D01*
Y61601D01*
X64851D01*
X65324Y61129D01*
G02X65041Y60446I-283J-283D01*
G01X61798D01*
Y60010D01*
X61289Y59566D01*
X54135D01*
G02X53755Y60089I0J400D01*
G03X50453Y62084I-1885J611D01*
G01X50452Y62084D01*
X50268Y61900D01*
X49292D01*
X48702Y61310D01*
X26077D01*
X15850Y71537D01*
Y77461D01*
X11627Y81685D01*
X11627Y83702D01*
Y83703D01*
G03Y83777I-3753J37D01*
G01Y84540D01*
X11544D01*
X11505Y84690D01*
G03X6944Y80104I-3631J-950D01*
G01X7090Y80067D01*
X7092Y79987D01*
X9930D01*
X13450Y76467D01*
Y70543D01*
X24085Y59908D01*
G02X23944Y59566I-141J-141D01*
G01X23745D01*
X11627Y71685D01*
X11627Y73702D01*
Y73703D01*
G03Y73777I-3753J37D01*
G01Y74540D01*
X11544D01*
X11505Y74690D01*
G03X6944Y70104I-3631J-950D01*
G01X7090Y70067D01*
X7092Y69987D01*
X9930D01*
G37*
G36*
G01X13614Y23111D02*
X10827Y25512D01*
X7624Y22559D01*
X10827Y19606D01*
X13614Y22008D01*
G03Y23111I-834J552D01*
G37*
G36*
G01Y44292D02*
X10827Y46693D01*
X7624Y43740D01*
X10827Y40787D01*
X13614Y43189D01*
G03Y44292I-834J552D01*
G37*
G36*
G01X10827Y61187D02*
X10827Y63740D01*
X7803Y63811D01*
X7874Y60788D01*
X10427Y60787D01*
G03X10827Y61187I0J400D01*
G37*
G36*
G01Y71187D02*
X10827Y73740D01*
X7803Y73811D01*
X7874Y70788D01*
X10427Y70787D01*
G03X10827Y71187I0J400D01*
G37*
G36*
G01Y81187D02*
X10827Y83740D01*
X7803Y83811D01*
X7874Y80788D01*
X10427Y80787D01*
G03X10827Y81187I0J400D01*
G37*
G36*
G01X11767Y94023D02*
X9962Y95828D01*
X7774Y93740D01*
X9962Y91652D01*
X11767Y93457D01*
G03Y94023I-283J283D01*
G37*
G36*
G01X27993Y13881D02*
X25339Y13413D01*
X24926Y10429D01*
X27914Y10023D01*
X28468Y13411D01*
G03X27993Y13881I-405J66D01*
G37*
G36*
G01X15123Y25766D02*
X12623Y23266D01*
X14830Y22309D01*
X16830D01*
X19037Y23266D01*
X16537Y25766D01*
G03X15123I-707J-707D01*
G37*
G36*
G01X21578Y21932D02*
X22835Y20866D01*
X24659Y22146D01*
X22835Y23425D01*
X21578Y22359D01*
G03Y21932I977J-213D01*
G37*
G36*
G01X27193Y27687D02*
X25984Y28740D01*
X24309Y27461D01*
X25984Y26181D01*
X27193Y27234D01*
G03Y27687I-330J227D01*
G37*
G36*
G01X27137Y27234D02*
X28346Y26181D01*
X30021Y27461D01*
X28346Y28740D01*
X27137Y27687D01*
G03Y27234I330J-227D01*
G37*
G36*
G01X14867Y43033D02*
X14995Y42905D01*
X16080Y43740D01*
X14995Y44575D01*
X14867Y44447D01*
G03Y43033I707J-707D01*
G37*
G36*
G01X16537Y42777D02*
X16665Y42905D01*
X15830Y43990D01*
X14995Y42905D01*
X15123Y42777D01*
G03X16537I707J707D01*
G37*
G36*
G01X33101Y69217D02*
X32530Y69685D01*
X30067Y69094D01*
X32530Y68504D01*
X33101Y68972D01*
G03Y69217I-381J123D01*
G37*
G36*
G01X23150Y90872D02*
X23150Y93425D01*
X20126Y93496D01*
X20197Y90472D01*
X22750Y90472D01*
G03X23150Y90872I0J400D01*
G37*
G36*
G01X16304Y93142D02*
X18109Y91337D01*
X20297Y93425D01*
X18109Y95513D01*
X16304Y93708D01*
G03Y93142I283J-283D01*
G37*
G36*
G01X47109Y14701D02*
X44844Y13339D01*
X44947Y10412D01*
X47730Y10722D01*
X47730Y14350D01*
G03X47109Y14701I-410J0D01*
G37*
G36*
G01X31632Y10210D02*
X32912Y8931D01*
X35102Y10500D01*
X32912Y12070D01*
X31632Y10790D01*
G03Y10210I290J-290D01*
G37*
G36*
G01X41392Y68132D02*
X40158Y69291D01*
X38483Y67913D01*
X40158Y66535D01*
X41392Y67695D01*
G03Y68132I-335J219D01*
G37*
G36*
G01X35773Y67695D02*
X37008Y66535D01*
X38683Y67913D01*
X37008Y69291D01*
X35773Y68132D01*
G03Y67695I335J-219D01*
G37*
G36*
G01X50483Y60417D02*
X51035Y59865D01*
X51970Y60700D01*
X51035Y61535D01*
X50483Y60983D01*
G03Y60417I283J-283D01*
G37*
G36*
G01X50600Y87690D02*
Y114500D01*
X67300D01*
Y103200D01*
X66500D01*
Y107600D01*
X59320D01*
Y89420D01*
X54065D01*
X52335Y87690D01*
X50600D01*
G37*
G36*
G01X48016Y84231D02*
X49225Y83178D01*
X50900Y84458D01*
X49225Y85737D01*
X48016Y84684D01*
G03Y84231I330J-227D01*
G37*
G36*
G01X59390Y73740D02*
Y80430D01*
X64340D01*
Y75550D01*
X71430D01*
Y85450D01*
X85510D01*
Y93470D01*
X92040D01*
Y102840D01*
X78600D01*
Y106580D01*
X86310D01*
Y122290D01*
X68900D01*
Y104000D01*
X68100D01*
Y116900D01*
X50500D01*
Y124120D01*
X97750D01*
Y84080D01*
X93300D01*
Y79290D01*
X87540D01*
Y73740D01*
X59390D01*
G37*
G36*
G01X51759Y11710D02*
X52912Y10557D01*
X55091Y10454D01*
X53165Y12512D01*
X52012Y12408D01*
G03X51759Y11710I37J-408D01*
G37*
G36*
G01X67382Y14712D02*
X64830Y13408D01*
X64943Y10415D01*
X67953Y10481D01*
X67978Y14344D01*
G03X67382Y14712I-410J3D01*
G37*
G36*
G01X71258Y49987D02*
X71382Y49740D01*
G03X71691Y49679I179J90D01*
G01X72956Y50768D01*
X76640D01*
Y50276D01*
X77431D01*
X77960Y49815D01*
Y43580D01*
X58390D01*
Y49528D01*
X58577Y49716D01*
X58578Y49716D01*
G03X56991Y53101I-1388J1414D01*
G02X56551Y53504I-40J398D01*
G03X56340Y54420I-1981J26D01*
G02X56698Y55000I357J180D01*
G01X60738D01*
X62185Y53553D01*
X61975Y53310D01*
X62093Y53001D01*
Y49987D01*
X71258D01*
G37*
G36*
G01X65428Y39279D02*
X65846Y39764D01*
X65354Y41045D01*
X64862Y39764D01*
X65281Y39279D01*
G03X65428I73J393D01*
G37*
G36*
G01X61779Y40724D02*
X62894Y39764D01*
X63486Y40945D01*
X62894Y42126D01*
X61779Y41166D01*
G03Y40724I334J-221D01*
G37*
G36*
G01X57473Y49743D02*
X58025Y50295D01*
X57190Y51230D01*
X56355Y50295D01*
X56907Y49743D01*
G03X57473I283J283D01*
G37*
G36*
G01X67084Y37716D02*
X65748Y36221D01*
X67323Y34841D01*
X68898Y36221D01*
X67562Y37716D01*
G03X67084I-239J-321D01*
G37*
G36*
G01X67396Y39279D02*
X67815Y39764D01*
X67323Y41045D01*
X66831Y39764D01*
X67249Y39279D01*
G03X67396I73J393D01*
G37*
G36*
G01X72867Y41166D02*
X71752Y42126D01*
X71160Y40945D01*
X71752Y39764D01*
X72867Y40724D01*
G03Y41166I-334J221D01*
G37*
G36*
G01X69365Y39279D02*
X69783Y39764D01*
X69291Y41045D01*
X68799Y39764D01*
X69218Y39279D01*
G03X69365I74J393D01*
G37*
G36*
G01X73175Y60335D02*
Y60589D01*
X68523D01*
Y61324D01*
X66548Y63299D01*
Y65761D01*
X61798D01*
Y65481D01*
X58089D01*
X58050Y65498D01*
G03X57731Y65606I-790J-1817D01*
G01X57579Y65643D01*
Y66000D01*
X61347D01*
X64357Y69010D01*
X79712D01*
Y68133D01*
X79125Y67539D01*
X79115D01*
X79106Y67530D01*
X76533D01*
X74580Y65577D01*
Y61257D01*
X73516Y60194D01*
G02X73175Y60335I-141J141D01*
G37*
G36*
G01X54853Y52143D02*
X55405Y52695D01*
X54570Y53630D01*
X53735Y52695D01*
X54287Y52143D01*
G03X54853I283J283D01*
G37*
G36*
G01X55140Y69240D02*
Y86710D01*
X64940D01*
Y94490D01*
X65700D01*
Y86200D01*
X65740D01*
Y82960D01*
X58280D01*
Y69240D01*
X55140D01*
G37*
G36*
G01X72867Y52189D02*
X71752Y53150D01*
X71160Y51968D01*
X71752Y50787D01*
X72867Y51748D01*
G03Y52189I-334J221D01*
G37*
G36*
G01X63312Y53635D02*
X62894Y53150D01*
X63386Y51868D01*
X63878Y53150D01*
X63459Y53635D01*
G03X63312I-74J-393D01*
G37*
G36*
G01X65281D02*
X64862Y53150D01*
X65354Y51868D01*
X65846Y53150D01*
X65428Y53635D01*
G03X65281I-74J-393D01*
G37*
G36*
G01X61389Y58140D02*
X62598Y57087D01*
X64273Y58366D01*
X62598Y59646D01*
X61389Y58593D01*
G03Y58140I330J-227D01*
G37*
G36*
G01X64383Y55846D02*
X65639Y57087D01*
X64173Y58466D01*
X62707Y57087D01*
X63964Y55846D01*
G03X64383I209J341D01*
G37*
G36*
G01X58223Y64388D02*
X58095Y64516D01*
X57010Y63681D01*
X58095Y62846D01*
X58223Y62974D01*
G03Y64388I-707J707D01*
G37*
G36*
G01X61342Y63468D02*
X62598Y62402D01*
X64423Y63681D01*
X62598Y64961D01*
X61342Y63894D01*
G03Y63468I977J-213D01*
G37*
G36*
G01X67249Y53635D02*
X66831Y53150D01*
X67323Y51868D01*
X67815Y53150D01*
X67396Y53635D01*
G03X67249I-74J-393D01*
G37*
G36*
G01X69218D02*
X68799Y53150D01*
X69291Y51868D01*
X69783Y53150D01*
X69365Y53635D01*
G03X69218I-74J-393D01*
G37*
G36*
G01X71009Y55792D02*
X72266Y57033D01*
X70800Y58511D01*
X69334Y57033D01*
X70591Y55792D01*
G03X71009I209J341D01*
G37*
G36*
G01X73679Y58642D02*
X72375Y59789D01*
X70700Y58411D01*
X72375Y57033D01*
X73679Y58179D01*
G03Y58642I-326J232D01*
G37*
G36*
G01X66700Y76800D02*
Y87000D01*
X66500D01*
Y94500D01*
X67300D01*
Y88700D01*
X69900D01*
Y76800D01*
X66700D01*
G37*
G36*
G01X83000Y88500D02*
X76500D01*
Y89500D01*
X68100D01*
Y94500D01*
X68900D01*
Y90900D01*
X76500D01*
Y93500D01*
X83000D01*
Y88500D01*
G37*
G36*
G01X69700Y104100D02*
Y120900D01*
X74000D01*
Y112200D01*
X70500D01*
Y104100D01*
X69700D01*
G37*
G36*
G01X69700Y92100D02*
Y94500D01*
X72700D01*
Y111400D01*
X74800D01*
X80300Y111400D01*
Y120900D01*
X83500D01*
Y108700D01*
X77200D01*
Y100300D01*
X89200D01*
Y96600D01*
X75400D01*
Y92100D01*
X69700D01*
G37*
G36*
G01X87579Y14468D02*
X84978Y13419D01*
X84938Y10418D01*
X87949Y10347D01*
X88142Y14067D01*
G03X87579Y14468I-409J21D01*
G37*
G36*
G01X91114Y10210D02*
X92912Y8412D01*
X95102Y10500D01*
X92912Y12588D01*
X91114Y10790D01*
G03Y10210I290J-290D01*
G37*
G36*
G01X71627D02*
X72912Y8925D01*
X75102Y10500D01*
X72912Y12075D01*
X71627Y10790D01*
G03Y10210I290J-290D01*
G37*
G36*
G01X74878Y29839D02*
X73622Y30906D01*
X71797Y29626D01*
X73622Y28346D01*
X74878Y29413D01*
G03Y29839I-977J213D01*
G37*
G36*
G01X77531Y51250D02*
X78740Y50197D01*
X81202Y51476D01*
X78740Y52756D01*
X77531Y51703D01*
G03Y51250I330J-227D01*
G37*
G36*
G01X74831Y35168D02*
X73622Y36221D01*
X71947Y34941D01*
X73622Y33661D01*
X74831Y34714D01*
G03Y35168I-330J227D01*
G37*
G36*
G01X74694Y34658D02*
X75246Y34106D01*
X76181Y34941D01*
X75246Y35776D01*
X74694Y35224D01*
G03Y34658I283J-283D01*
G37*
G36*
G01X74663Y40667D02*
X75215Y40115D01*
X76150Y40950D01*
X75215Y41785D01*
X74663Y41233D01*
G03Y40667I283J-283D01*
G37*
G36*
G01X79254Y38097D02*
X80820Y36532D01*
X81202Y37980D01*
Y38780D01*
X80820Y40229D01*
X79254Y38663D01*
G03Y38097I283J-283D01*
G37*
G36*
G01X81564Y32516D02*
X82677Y33858D01*
X81299Y35683D01*
X79921Y33858D01*
X81035Y32516D01*
G03X81564I264J964D01*
G37*
G36*
G01X80665Y38482D02*
X79921Y37008D01*
X81322Y35184D01*
X82677Y37008D01*
X81445Y38522D01*
G03X80665Y38482I-343J-939D01*
G37*
G36*
G01X81489Y37458D02*
X83465Y39370D01*
X81102Y40900D01*
X78740Y39370D01*
X80716Y37458D01*
G03X81489I387J922D01*
G37*
G36*
G01X80847Y55026D02*
X78740Y52756D01*
X81102Y51376D01*
X83465Y52756D01*
X81358Y55026D01*
G03X80847I-256J-308D01*
G37*
G36*
G01X81225Y53563D02*
X81693Y54134D01*
X81102Y56596D01*
X80512Y54134D01*
X80980Y53563D01*
G03X81225I123J381D01*
G37*
G36*
G01X83963Y66594D02*
X81693Y68701D01*
X81002Y66339D01*
X81693Y63976D01*
X83963Y66083D01*
G03Y66594I-308J256D01*
G37*
G36*
G01X79271Y66129D02*
X80512Y64873D01*
X81202Y66339D01*
X80512Y67804D01*
X79271Y66548D01*
G03Y66129I341J-209D01*
G37*
G36*
G01X91627Y77233D02*
X91075Y77785D01*
X90140Y76950D01*
X91075Y76115D01*
X91627Y76667D01*
G03Y77233I-283J283D01*
G37*
G36*
G01X111430Y10210D02*
X112912Y8728D01*
X115103Y10500D01*
X112912Y12272D01*
X111430Y10790D01*
G03Y10210I290J-290D01*
G37*
G36*
G01X98951Y58729D02*
Y59510D01*
X97699Y59581D01*
X97770Y58329D01*
X98551D01*
G03X98951Y58729I0J400D01*
G37*
G36*
G01X109217Y53457D02*
X111022Y51652D01*
X113210Y53740D01*
X111022Y55828D01*
X109217Y54023D01*
G03Y53457I283J-283D01*
G37*
G36*
G01Y83457D02*
X111022Y81652D01*
X113210Y83740D01*
X111022Y85828D01*
X109217Y84023D01*
G03Y83457I283J-283D01*
G37*
G36*
G01Y73457D02*
X111022Y71652D01*
X113210Y73740D01*
X111022Y75828D01*
X109217Y74023D01*
G03Y73457I283J-283D01*
G37*
G36*
G01Y103457D02*
X111022Y101652D01*
X113210Y103740D01*
X111022Y105828D01*
X109217Y104023D01*
G03Y103457I283J-283D01*
G37*
G36*
G01Y93457D02*
X111022Y91652D01*
X113210Y93740D01*
X111022Y95828D01*
X109217Y94023D01*
G03Y93457I283J-283D01*
G37*
G36*
G01X128886Y10790D02*
X127088Y12588D01*
X124898Y10500D01*
X127088Y8412D01*
X128886Y10210D01*
G03Y10790I-290J290D01*
G37*
G36*
G01X131834Y12685D02*
X132242Y10608D01*
X135079Y10435D01*
X134721Y13174D01*
X132236Y13174D01*
G03X131834Y12685I0J-410D01*
G37*
G36*
G01X170490Y57443D02*
X173264Y60217D01*
X176181D01*
G03X176854Y60423I0J1200D01*
G01X179931D01*
Y63986D01*
X176854D01*
G03X176181Y64192I-673J-994D01*
G01X175250D01*
Y64942D01*
X176181D01*
G03X176854Y65148I0J1200D01*
G01X179931D01*
Y67136D01*
X176854D01*
G03X176181Y67342I-673J-994D01*
G01X175250D01*
Y68081D01*
X176181D01*
G03X176872Y68297I0J1210D01*
G01X179931D01*
Y71860D01*
X176872D01*
G03X176181Y72076I-690J-994D01*
G01X175250D01*
Y72806D01*
X176181D01*
G03X176872Y73022I0J1210D01*
G01X179931D01*
Y76584D01*
X176872D01*
G03X176181Y76801I-690J-994D01*
G01X175250D01*
Y77530D01*
X176181D01*
G03X176872Y77746I0J1210D01*
G01X179931D01*
Y81309D01*
X176872D01*
G03X176181Y81525I-690J-994D01*
G01X175250D01*
Y82254D01*
X176181D01*
G03X176872Y82471I0J1210D01*
G01X179931D01*
Y86033D01*
X176872D01*
G03X176181Y86250I-690J-994D01*
G01X175250D01*
Y86979D01*
X176181D01*
G03X176872Y87195I0J1210D01*
G01X179931D01*
Y90758D01*
X176872D01*
G03X176181Y90974I-690J-994D01*
G01X175250D01*
Y91713D01*
X176181D01*
G03X176854Y91920I0J1200D01*
G01X179931D01*
Y97057D01*
X172431D01*
Y96851D01*
G02X171748Y96569I-400J0D01*
G01X170710Y97607D01*
Y99708D01*
X170898Y99896D01*
G03X170490Y103032I-1387J1414D01*
G01Y105990D01*
X189983D01*
X190520Y105453D01*
Y98207D01*
X189576Y97263D01*
X186024D01*
G03X185351Y97057I0J-1200D01*
G01X182274D01*
Y95069D01*
X185351D01*
G03X186024Y94863I673J994D01*
G01X186290D01*
Y93907D01*
X182274D01*
Y91920D01*
X186290D01*
Y90974D01*
X186024D01*
G03X185333Y90758I0J-1210D01*
G01X182274D01*
Y87195D01*
X185333D01*
G03X186024Y86979I691J994D01*
G01X186290D01*
Y86250D01*
X186024D01*
G03X185333Y86033I0J-1210D01*
G01X182274D01*
Y82471D01*
X185333D01*
G03X186024Y82254I691J994D01*
G01X186290D01*
Y81525D01*
X186024D01*
G03X185333Y81309I0J-1210D01*
G01X182274D01*
Y77746D01*
X185333D01*
G03X186024Y77530I691J994D01*
G01X186290D01*
Y76801D01*
X186024D01*
G03X185333Y76584I0J-1210D01*
G01X182274D01*
Y73022D01*
X185333D01*
G03X186024Y72806I691J994D01*
G01X186290D01*
Y72076D01*
X186024D01*
G03X185333Y71860I0J-1210D01*
G01X182274D01*
Y68297D01*
X185333D01*
G03X186024Y68081I691J994D01*
G01X186290D01*
Y67342D01*
X186024D01*
G03X185351Y67136I0J-1200D01*
G01X182274D01*
Y60423D01*
X185351D01*
G03X186024Y60217I673J994D01*
G01X189580D01*
Y58753D01*
X190520Y57813D01*
Y52945D01*
G03X187454Y49840I1660J-4706D01*
G01X170490D01*
Y57443D01*
G37*
G36*
G01X170587Y61883D02*
X170035Y62435D01*
X169100Y61600D01*
X170035Y60765D01*
X170587Y61317D01*
G03Y61883I-283J283D01*
G37*
G36*
G01X167887Y59003D02*
X167335Y59555D01*
X166400Y58720D01*
X167335Y57885D01*
X167887Y58437D01*
G03Y59003I-283J283D01*
G37*
G36*
G01X161857Y101257D02*
X160645Y100045D01*
X161445Y99116D01*
X162140Y99870D01*
Y100975D01*
X161857Y101257D01*
G37*
G36*
G01X166873Y97563D02*
X167425Y98115D01*
X166590Y99050D01*
X165755Y98115D01*
X166307Y97563D01*
G03X166873I283J283D01*
G37*
G36*
G01X169793Y99923D02*
X170345Y100475D01*
X169510Y101410D01*
X168675Y100475D01*
X169227Y99923D01*
G03X169793I283J283D01*
G37*
G36*
G01X174710Y14386D02*
X172912Y12588D01*
X175000Y10398D01*
X177088Y12588D01*
X175290Y14386D01*
G03X174710I-290J-290D01*
G37*
G36*
G01X191149Y62143D02*
X192144Y61148D01*
X193075Y61956D01*
X192384Y62933D01*
X191388Y62824D01*
G03X191149Y62143I44J-398D01*
G37*
G36*
G01X191403Y58267D02*
X191955Y57715D01*
X192890Y58550D01*
X191955Y59385D01*
X191403Y58833D01*
G03Y58267I283J-283D01*
G37*
G36*
G01X208496Y10790D02*
X207088Y12198D01*
X204898Y10500D01*
X207088Y8802D01*
X208496Y10210D01*
G03Y10790I-290J290D01*
G37*
G36*
G01X194323Y66697D02*
X194945Y66075D01*
X195880Y66904D01*
X194983Y67778D01*
X194360Y67296D01*
G03X194323Y66697I245J-316D01*
G37*
%LPC*%
G75*
G36*
G01X23698Y76480D02*
X25411Y74636D01*
G02X25320Y74308I-147J-136D01*
G01X24964Y74203D01*
Y72822D01*
X18639D01*
Y75603D01*
X19090D01*
X20311Y76919D01*
X20108Y77153D01*
X19672D01*
Y81903D01*
X20108D01*
X20552Y82412D01*
Y83951D01*
X18363Y86140D01*
X16282D01*
X16094Y85952D01*
G02X16094Y88728I-1414J1387D01*
G01X16282Y88540D01*
X19357D01*
X22952Y84945D01*
Y82412D01*
X23396Y81903D01*
X23832D01*
Y77119D01*
G03X23698Y76480I160J-367D01*
G37*
G36*
G01X32824Y100745D02*
X31997Y99918D01*
Y98942D01*
X34221Y96360D01*
X33950Y96066D01*
Y89672D01*
X26444D01*
Y97178D01*
X26877D01*
X28397Y98942D01*
Y99918D01*
X27570Y100745D01*
G02X32824I2627J2680D01*
G37*
G36*
G01X17521Y100793D02*
X16090Y102225D01*
X15847D01*
X15532Y102540D01*
X11981D01*
X10550Y101108D01*
G02Y106372I-2676J2632D01*
G01X11981Y104940D01*
X16405D01*
X17521Y106057D01*
G02Y100793I2676J-2632D01*
G37*
G36*
G01X42750Y146931D02*
X41397Y145578D01*
Y142572D01*
X42829Y141140D01*
G02X37566Y141141I-2632J-2676D01*
G01X38997Y142572D01*
Y145178D01*
X38918Y145256D01*
Y145499D01*
X37486Y146931D01*
G02X42750I2632J2676D01*
G37*
G36*
G01X48918Y145499D02*
X47486Y146931D01*
G02X52750I2632J2676D01*
G01X51318Y145499D01*
Y142893D01*
X51397Y142814D01*
Y142572D01*
X52829Y141140D01*
G02X47566Y141141I-2632J-2676D01*
G01X48918Y142493D01*
Y145499D01*
G37*
G36*
G01X62750Y146931D02*
X61397Y145578D01*
Y142572D01*
X62828Y141141D01*
G02X57565Y141140I-2631J-2676D01*
G01X58997Y142572D01*
Y145178D01*
X58918Y145256D01*
Y145499D01*
X57487Y146930D01*
G02X62750Y146931I2631J2676D01*
G37*
G36*
G01X72750D02*
X71318Y145499D01*
Y142893D01*
X71397Y142814D01*
Y142572D01*
X72828Y141141D01*
G02X67565Y141140I-2631J-2676D01*
G01X68918Y142493D01*
Y145499D01*
X67487Y146930D01*
G02X72750Y146931I2631J2676D01*
G37*
G36*
G01X82750D02*
X81397Y145578D01*
Y142572D01*
X82828Y141141D01*
G02X77565Y141140I-2631J-2676D01*
G01X78997Y142572D01*
Y145178D01*
X78918Y145256D01*
Y145499D01*
X77487Y146930D01*
G02X82750Y146931I2631J2676D01*
G37*
G36*
G01X92750D02*
X91318Y145499D01*
Y142893D01*
X91397Y142814D01*
Y142572D01*
X92828Y141141D01*
G02X87565Y141140I-2631J-2676D01*
G01X88918Y142493D01*
Y145499D01*
X87487Y146930D01*
G02X92750Y146931I2631J2676D01*
G37*
G36*
G01X102750D02*
X101318Y145499D01*
Y142893D01*
X101397Y142814D01*
Y142572D01*
X102828Y141141D01*
G02X97565Y141140I-2631J-2676D01*
G01X98918Y142493D01*
Y145499D01*
X97487Y146930D01*
G02X102750Y146931I2631J2676D01*
G37*
G36*
G01X45060Y73123D02*
X45021Y73140D01*
X40830D01*
X40181Y72602D01*
X39889Y72822D01*
X37276D01*
X36985Y72602D01*
X36269Y73196D01*
X36255D01*
X35468Y72408D01*
X30167D01*
G02X29018Y72822I0J1804D01*
G01X27005D01*
Y75603D01*
X29018D01*
G02X30167Y76017I1150J-1391D01*
G01X33973D01*
X34761Y76804D01*
X36269D01*
X36985Y77398D01*
X37276Y77178D01*
X39889D01*
X40181Y77398D01*
X40902Y76800D01*
X42403D01*
X42463Y76740D01*
X45021D01*
X45060Y76757D01*
G02Y73123I790J-1817D01*
G37*
G54D33*
X90197Y128465D03*
X100197D03*
X60197D03*
X70197D03*
X80197D03*
X50197D03*
X7874Y113740D03*
G54D34*
X30118Y149606D03*
X20118D03*
X7874Y32559D03*
Y53740D03*
G54D35*
X40197Y128465D03*
G54D37*
X176181Y101181D03*
X186024D03*
G54D36*
X176181Y56299D03*
X186024D03*
%LPD*%
G75*
G36*
G01X11767Y104023D02*
X9962Y105828D01*
X7774Y103740D01*
X9962Y101652D01*
X11767Y103457D01*
G03Y104023I-283J283D01*
G37*
G36*
G01X21525Y82311D02*
X20472Y81102D01*
X21752Y79428D01*
X23031Y81102D01*
X21978Y82311D01*
G03X21525I-227J-330D01*
G37*
G36*
G01X21978Y76744D02*
X23031Y77953D01*
X21752Y79628D01*
X20472Y77953D01*
X21525Y76744D01*
G03X21978I227J330D01*
G37*
G36*
G01X21546Y77073D02*
X19439Y74803D01*
X21801Y74113D01*
X24163Y74803D01*
X22057Y77073D01*
G03X21546I-256J-308D01*
G37*
G36*
G01X16067Y87623D02*
X15515Y88175D01*
X14580Y87340D01*
X15515Y86505D01*
X16067Y87057D01*
G03Y87623I-283J283D01*
G37*
G36*
G01X29645Y99165D02*
X27244Y96378D01*
X30197Y93175D01*
X33150Y96378D01*
X30748Y99165D01*
G03X29645I-552J-834D01*
G37*
G36*
G01X30904Y99956D02*
X32285Y101337D01*
X30197Y103675D01*
X28109Y101337D01*
X29490Y99956D01*
G03X30904I707J707D01*
G37*
G36*
G01X16304Y103142D02*
X18109Y101337D01*
X20297Y103425D01*
X18109Y105513D01*
X16304Y103708D01*
G03Y103142I283J-283D01*
G37*
G36*
G01X44887Y74233D02*
X45015Y74105D01*
X46100Y74940D01*
X45015Y75775D01*
X44887Y75647D01*
G03Y74233I707J-707D01*
G37*
G36*
G01X41500Y75264D02*
X40158Y76378D01*
X38333Y75000D01*
X40158Y73622D01*
X41500Y74736D01*
G03Y75264I-964J265D01*
G37*
G36*
G01X35666Y74736D02*
X37008Y73622D01*
X38833Y75000D01*
X37008Y76378D01*
X35666Y75264D01*
G03Y74736I964J-265D01*
G37*
G36*
G01X49914Y142358D02*
X48109Y140552D01*
X50197Y138365D01*
X52285Y140552D01*
X50480Y142358D01*
G03X49914I-283J-283D01*
G37*
G36*
G01X50401Y145713D02*
X52206Y147518D01*
X50118Y149706D01*
X48030Y147518D01*
X49835Y145713D01*
G03X50401I283J283D01*
G37*
G36*
G01X40401D02*
X42206Y147518D01*
X40118Y149706D01*
X38030Y147518D01*
X39835Y145713D01*
G03X40401I283J283D01*
G37*
G36*
G01X39914Y142358D02*
X38109Y140552D01*
X40197Y138365D01*
X42285Y140552D01*
X40480Y142358D01*
G03X39914I-283J-283D01*
G37*
G36*
G01X60401Y145713D02*
X62206Y147518D01*
X60118Y149706D01*
X58030Y147518D01*
X59835Y145713D01*
G03X60401I283J283D01*
G37*
G36*
G01X59914Y142358D02*
X58109Y140552D01*
X60197Y138365D01*
X62285Y140552D01*
X60480Y142358D01*
G03X59914I-283J-283D01*
G37*
G36*
G01X69914D02*
X68109Y140552D01*
X70197Y138365D01*
X72285Y140552D01*
X70480Y142358D01*
G03X69914I-283J-283D01*
G37*
G36*
G01X70401Y145713D02*
X72206Y147518D01*
X70118Y149706D01*
X68030Y147518D01*
X69835Y145713D01*
G03X70401I283J283D01*
G37*
G36*
G01X89914Y142358D02*
X88109Y140552D01*
X90197Y138365D01*
X92285Y140552D01*
X90480Y142358D01*
G03X89914I-283J-283D01*
G37*
G36*
G01X90401Y145713D02*
X92206Y147518D01*
X90118Y149706D01*
X88030Y147518D01*
X89835Y145713D01*
G03X90401I283J283D01*
G37*
G36*
G01X80401D02*
X82206Y147518D01*
X80118Y149706D01*
X78030Y147518D01*
X79835Y145713D01*
G03X80401I283J283D01*
G37*
G36*
G01X79914Y142358D02*
X78109Y140552D01*
X80197Y138365D01*
X82285Y140552D01*
X80480Y142358D01*
G03X79914I-283J-283D01*
G37*
G36*
G01X99914D02*
X98109Y140552D01*
X100197Y138365D01*
X102285Y140552D01*
X100480Y142358D01*
G03X99914I-283J-283D01*
G37*
G36*
G01X100401Y145713D02*
X102206Y147518D01*
X100118Y149706D01*
X98030Y147518D01*
X99835Y145713D01*
G03X100401I283J283D01*
G37*
G54D10*
X7874Y22559D03*
Y43740D03*
X10118Y149606D03*
X30197Y93425D03*
X40197Y128465D03*
X123110Y53740D03*
X215000Y10500D03*
X227000Y149400D03*
G54D11*
X7874Y32559D03*
Y53740D03*
Y73740D03*
Y63740D03*
Y93740D03*
Y83740D03*
Y113740D03*
Y103740D03*
X25000Y10500D03*
X20197Y93425D03*
Y103425D03*
X30197D03*
X30118Y149606D03*
X20118D03*
X35000Y10500D03*
X45000D03*
X50197Y128465D03*
Y138465D03*
X40197D03*
X50118Y149606D03*
X40118D03*
X55000Y10500D03*
X65000D03*
X70197Y128465D03*
X60197D03*
X70197Y138465D03*
X60197D03*
X70118Y149606D03*
X60118D03*
X75000Y10500D03*
X85000D03*
X90197Y128465D03*
X80197D03*
X90197Y138465D03*
X80197D03*
X90118Y149606D03*
X80118D03*
X95000Y10500D03*
X105000D03*
X113110Y53740D03*
Y73740D03*
Y63740D03*
Y93740D03*
Y83740D03*
Y103740D03*
X110197Y128465D03*
X100197D03*
X110197Y138465D03*
X100197D03*
X100118Y149606D03*
X115000Y10500D03*
X125000D03*
X123110Y73740D03*
Y63740D03*
Y93740D03*
Y83740D03*
Y103740D03*
X135000Y10500D03*
X145000D03*
X155000D03*
X165000D03*
X175000D03*
X185000D03*
X195000D03*
X205000D03*
X227000Y119400D03*
Y129400D03*
Y139400D03*
G54D20*
X61900Y78570D03*
Y84830D03*
X61024Y112618D03*
Y118878D03*
X81102Y104705D03*
Y98445D03*
G54D30*
G01X176181Y89764D02*
X171669D01*
X171542Y89636D01*
X141836D01*
G03X134300Y82100I0J-7536D01*
G01Y55400D01*
G02X126300Y47400I-8000J0D01*
G01X100300D01*
G03X91200Y38300I0J-9100D01*
G02X79200Y26300I-12000J0D01*
G01X58903D01*
G03X55459Y25615I0J-9000D01*
G01X50500Y23561D01*
G02X49201Y23156I-2878J6948D01*
G01X49157Y23146D01*
G03X49016Y23102I172J-802D01*
G01X43844Y20960D01*
G02X43690Y20914I-314J758D01*
G01X43145Y20805D01*
G03X41439Y20288I1776J-8923D01*
G01X32301Y16503D01*
G03X30597Y15364I2011J-4854D01*
G01X30552Y15325D01*
X30204D01*
X30092Y15213D01*
G03X30012Y15119I572J-572D01*
G01X29581Y14689D01*
G02X28657Y13904I-5294J5294D01*
G01X26514Y12364D01*
G02X26076Y12222I-438J610D01*
G01X26007D01*
G02X25887Y11828I-711J0D01*
G01X25000Y10500D01*
G01X176181Y88189D02*
X171669D01*
X171542Y88316D01*
X141836D01*
G03X135620Y82100I0J-6216D01*
G01Y55400D01*
G02X126300Y46080I-9320J0D01*
G01X100300D01*
G03X92520Y38300I0J-7780D01*
G02X79200Y24980I-13320J0D01*
G01X58903D01*
G03X55964Y24395I0J-7680D01*
G01X51005Y22341D01*
G02X49479Y21866I-3383J8168D01*
G01X44154Y19660D01*
X43403Y19511D01*
G03X41944Y19068I1518J-7628D01*
G01X32807Y15283D01*
G03X31530Y14430I1505J-3634D01*
G02X31341Y14266I-1225J1225D01*
G01X31352Y14252D01*
G03X30420Y12002I2249J-2250D01*
G03X30860Y10940I1502J0D01*
G03X31922Y10500I1062J1062D01*
G01X35000D01*
G01X176181Y85039D02*
X171669D01*
X171542Y84912D01*
X140612D01*
G03X137900Y82200I0J-2712D01*
G01Y73200D01*
G03X140860Y70240I2960J0D01*
G01X142440D01*
G02Y66960I0J-1640D01*
G01X140860D01*
G03Y61040I0J-2960D01*
G01X142440D01*
G02Y57760I0J-1640D01*
G01X140860D01*
G03X137900Y54800I0J-2960D01*
G02X126500Y43400I-11400J0D01*
G01X101800D01*
G03X95600Y37200I0J-6200D01*
G02X81700Y23300I-13900J0D01*
G01X59728D01*
G03X53364Y20664I0J-9000D01*
G01X47999Y15299D01*
G03X47773Y14753I546J-546D01*
G01X47677Y14657D01*
G02X47504Y14497I-2252J2252D01*
G02X47320Y14350I-2086J2416D01*
G01X46081Y13110D01*
X45000Y10500D01*
G01X176181Y83465D02*
X171669D01*
X171542Y83592D01*
X140612D01*
G03X139220Y82200I0J-1392D01*
G01Y73200D01*
G03X140860Y71560I1640J0D01*
G01X142440D01*
G02Y65640I0J-2960D01*
G01X140860D01*
G03Y62360I0J-1640D01*
G01X142440D01*
G02Y56440I0J-2960D01*
G01X140860D01*
G03X139220Y54800I0J-1640D01*
G02X126500Y42080I-12720J0D01*
G01X101800D01*
G03X96920Y37200I0J-4880D01*
G02X81700Y21980I-15220J0D01*
G01X59728D01*
G03X54297Y19731I0J-7680D01*
G01X51469Y16902D01*
G03X50100Y13597I3304J-3304D01*
G03X50984Y12275I1432J0D01*
G01X51275Y12154D01*
G03X52049Y12000I774J1867D01*
G01X53500D01*
G02X55000Y10500I0J-1500D01*
G01X176181Y78740D02*
X171669D01*
X171542Y78868D01*
X145244D01*
G03Y74220I0J-2324D01*
G01X146200D01*
G02X151520Y68900I0J-5320D01*
G01Y57923D01*
G02X149773Y53707I-5963J0D01*
G02X145557Y51960I-4217J4217D01*
G01X145180D01*
G03X143120Y49900I0J-2060D01*
G01Y49440D01*
G03X145640Y46920I2520J0D01*
G01X149420D01*
G02Y38480I0J-4220D01*
G01X103700D01*
G03X102320Y37100I0J-1380D01*
G02X83600Y18380I-18720J0D01*
G01X76869D01*
X71444Y16330D01*
X70457Y15343D01*
X70275Y15163D01*
X70248Y15136D01*
G03X69800Y13745I1938J-1391D01*
G01Y12617D01*
G03X71917Y10500I2117J0D01*
G01X75000D01*
G01X176181Y80315D02*
X171669D01*
X171542Y80188D01*
X145244D01*
G03Y72900I0J-3644D01*
G01X146200D01*
G02X150200Y68900I0J-4000D01*
G01Y57923D01*
G02X148840Y54640I-4643J0D01*
G02X145557Y53280I-3283J3283D01*
G01X145180D01*
G03X141800Y49900I0J-3380D01*
G01Y49440D01*
G03X145640Y45600I3840J0D01*
G01X149420D01*
G02Y39800I0J-2900D01*
G01X103700D01*
G03X101000Y37100I0J-2700D01*
G02X83600Y19700I-17400J0D01*
G01X76628D01*
X70712Y17465D01*
X69527Y16279D01*
X69348Y16103D01*
X69250Y16006D01*
X65919Y12719D01*
G03X65000Y10500I2219J-2219D01*
G01X176181Y75591D02*
X171669D01*
X171542Y75463D01*
X157663D01*
G03X154700Y72500I0J-2963D01*
G01Y51900D01*
G03X157700Y48900I3000J0D01*
G02X159000Y47600I0J-1300D01*
G01Y42300D01*
G02X153100Y36400I-5900J0D01*
G01X107600D01*
G03X104800Y33600I0J-2800D01*
G01Y32540D01*
G03X106940Y30400I2140J0D01*
G01X129600D01*
G02Y27200I0J-1600D01*
G01X109028D01*
G03X102664Y24564I0J-9000D01*
G01X98936Y20836D01*
X94307Y18896D01*
X92784Y18259D01*
G02X92495Y18200I-289J690D01*
G01X92365D01*
G03X91785Y17960I0J-820D01*
G01X90667Y16842D01*
G03X89695Y15870I5341J-6314D01*
G01X89787Y15803D01*
X89566Y15740D01*
X89380Y15573D01*
X85623Y12187D01*
G03X85212Y11196I991J-991D01*
G02X85142Y10843I-922J0D01*
G01X85000Y10500D01*
G01X176181Y74016D02*
X171669D01*
X171542Y74143D01*
X157663D01*
G03X156020Y72500I0J-1643D01*
G01Y51900D01*
G03X157700Y50220I1680J0D01*
G02X160320Y47600I0J-2620D01*
G01Y42300D01*
G02X153100Y35080I-7220J0D01*
G01X107600D01*
G03X106120Y33600I0J-1480D01*
G01Y32540D01*
G03X106940Y31720I820J0D01*
G01X129600D01*
G02Y25880I0J-2920D01*
G01X109028D01*
G03X103597Y23631I0J-7680D01*
G01X99686Y19719D01*
X94817Y17679D01*
X93295Y17041D01*
G02X93283Y17036I-811J1903D01*
G01X92911Y16880D01*
X92572D01*
X91600Y15908D01*
G03X90102Y13666I4887J-4887D01*
G01X89697Y12688D01*
G03X89600Y12201I1176J-487D01*
G01Y11927D01*
G03X89973Y11027I1272J0D01*
G01X90050Y10950D01*
G03X91136Y10500I1086J1086D01*
G01X95000D01*
G01X176181Y70866D02*
X171669D01*
X171542Y70739D01*
X162439D01*
G03X160000Y68300I0J-2439D01*
G01Y56600D01*
G03X164000Y52600I4000J0D01*
G02X165700Y50900I0J-1700D01*
G01Y49580D01*
G03X168660Y46620I2960J0D01*
G01X182460D01*
G02X184100Y44980I0J-1640D01*
G01Y33060D01*
G02X180820I-1640J0D01*
G01Y40380D01*
G03X174900I-2960J0D01*
G01Y32860D01*
G02X171620I-1640J0D01*
G01Y40380D01*
G03X165700I-2960J0D01*
G01Y37900D01*
G02X160300Y32500I-5400J0D01*
G01X139700D01*
G03X136300Y29100I0J-3400D01*
G01Y26900D01*
G02X132300Y22900I-4000J0D01*
G01X114500D01*
G03X109300Y17700I0J-5200D01*
G01X106745Y15145D01*
G03X105778Y12810I2335J-2335D01*
G02X105612Y11978I-2173J0D01*
G01X105000Y10500D01*
G01X176181Y69291D02*
X171669D01*
X171542Y69419D01*
X162439D01*
G03X161320Y68300I0J-1119D01*
G01Y56600D01*
G03X164000Y53920I2680J0D01*
G02X167020Y50900I0J-3020D01*
G01Y49580D01*
G03X168660Y47940I1640J0D01*
G01X182460D01*
G02X185420Y44980I0J-2960D01*
G01Y33060D01*
G02X179500I-2960J0D01*
G01Y40380D01*
G03X176220I-1640J0D01*
G01Y32860D01*
G02X170300I-2960J0D01*
G01Y40380D01*
G03X167020I-1640J0D01*
G01Y37900D01*
G02X160300Y31180I-6720J0D01*
G01X139700D01*
G03X137620Y29100I0J-2080D01*
G01Y26900D01*
G02X132300Y21580I-5320J0D01*
G01X114500D01*
G03X110620Y17700I0J-3880D01*
G01Y11600D01*
G03X111720Y10500I1100J0D01*
G01X115000D01*
G01X186024Y69291D02*
X190536D01*
X190663Y69419D01*
X215940D01*
G02Y64499I0J-2460D01*
G01X199180D01*
G03Y56939I0J-3780D01*
G01X205040D01*
G02Y52019I0J-2460D01*
G01X192180D01*
G03X188400Y48239I0J-3780D01*
G01Y33100D01*
G02X183200Y27900I-5200J0D01*
G01X143140D01*
G03X141000Y25760I0J-2140D01*
G01Y25000D01*
G02X135700Y19700I-5300J0D01*
G01X132100D01*
G03X129200Y16800I0J-2900D01*
G01Y15996D01*
G03X129224Y15643I2598J-1D01*
G03Y15640I2574J-2D01*
G01X129200D01*
G03X130119Y13045I4121J0D01*
G01Y11773D01*
G02X128847Y10500I-1273J0D01*
G01X125000D01*
G01X186024Y70866D02*
X190536D01*
X190663Y70739D01*
X215940D01*
G02Y63179I0J-3780D01*
G01X199180D01*
G03Y58259I0J-2460D01*
G01X205040D01*
G02Y50699I0J-3780D01*
G01X192180D01*
G03X189720Y48239I0J-2460D01*
G01Y33100D01*
G02X183200Y26580I-6520J0D01*
G01X143140D01*
G03X142320Y25760I0J-820D01*
G01Y25000D01*
G02X135700Y18380I-6620J0D01*
G01X132100D01*
G03X130520Y16800I0J-1580D01*
G01Y15996D01*
G03X130617Y15507I1278J0D01*
G01X130966Y14665D01*
G03X132236Y12764I5414J2242D01*
G01X134146Y10854D01*
G03X135000Y10500I854J854D01*
G01X186024Y74016D02*
X190536D01*
X190663Y74143D01*
X207657D01*
G03Y80063I0J2960D01*
G01X204460D01*
G02Y83343I0J1640D01*
G01X219115D01*
G02Y79413I0J-1965D01*
G01X216904D01*
G03X214187Y76697I0J-2717D01*
G01Y76055D01*
G03X214641Y74959I1549J0D01*
G01X215143Y74457D01*
G03X217453Y73500I2309J2309D01*
G01X218543D01*
G02X219203Y73369I0J-1726D01*
G01X220487Y72168D01*
G02X221900Y68912I-3044J-3256D01*
G01Y61541D01*
X221306Y60865D01*
G02X220290Y59995I-3558J3128D01*
G02X218909Y59593I-1381J2171D01*
G01X216493D01*
G03X211700Y54800I0J-4793D01*
G02X205600Y48700I-6100J0D01*
G01X195500D01*
G03X192600Y45800I0J-2900D01*
G01Y33700D01*
G02X182700Y23800I-9900J0D01*
G01X161900D01*
G03X158200Y20100I0J-3700D01*
G02X156700Y18600I-1500J0D01*
G01X153140D01*
G03X151000Y16460I0J-2140D01*
G01Y14000D01*
G02X147500Y10500I-3500J0D01*
G01X145000D01*
G01X186024Y75591D02*
X190536D01*
X190663Y75463D01*
X207657D01*
G03Y78743I0J1640D01*
G01X204460D01*
G02Y84663I0J2960D01*
G01X219115D01*
G02Y78093I0J-3285D01*
G01X216904D01*
G03X215507Y76697I0J-1397D01*
G01Y76055D01*
X215574Y75893D01*
X216077Y75390D01*
G03X217453Y74820I1376J1376D01*
G01X218543D01*
G02X219955Y74473I0J-3046D01*
G01X221389Y73132D01*
G02X223220Y68912I-3946J-4220D01*
G01Y61352D01*
G02X223016Y60811I-820J0D01*
G01X222298Y59994D01*
G02X220999Y58882I-4550J3999D01*
G02X218909Y58273I-2089J3285D01*
G01X216493D01*
G03X213020Y54800I0J-3473D01*
G02X205600Y47380I-7420J0D01*
G01X195500D01*
G03X193920Y45800I0J-1580D01*
G01Y33700D01*
G02X182700Y22480I-11220J0D01*
G01X161900D01*
G03X159520Y20100I0J-2380D01*
G02X156700Y17280I-2820J0D01*
G01X153140D01*
G03X152320Y16460I0J-820D01*
G01Y12250D01*
G03X154070Y10500I1750J0D01*
G01X155000D01*
G01X186024Y78740D02*
X190536D01*
X190663Y78868D01*
X197360D01*
G03X199500Y81008I0J2140D01*
G01Y86280D01*
G02X200320Y87100I820J0D01*
G01X221760D01*
G02X224617Y85917I0J-4040D01*
G02X225800Y83060I-2857J-2857D01*
G01Y60500D01*
G02X219600Y54300I-6200J0D01*
G03X216700Y51400I0J-2900D01*
G01Y49450D01*
G02X215321Y46121I-4708J0D01*
G01X215100Y45900D01*
G02X211237Y44300I-3863J3863D01*
G01X210127D01*
G03X207696Y41869I0J-2431D01*
G01Y40811D01*
G03X210127Y38380I2431J0D01*
G01X216540D01*
G02Y35100I0J-1640D01*
G01X206056D01*
G02X204416Y36740I0J1640D01*
G01Y41340D01*
G03X201456Y44300I-2960J0D01*
G01X199440D01*
G03X197300Y42160I0J-2140D01*
G01Y32800D01*
G02X184600Y20100I-12700J0D01*
G01X175900D01*
G03X171400Y15600I0J-4500D01*
G02X166300Y10500I-5100J0D01*
G01X165000D01*
G01X186024Y80315D02*
X190536D01*
X190663Y80188D01*
X197360D01*
G03X198180Y81008I0J820D01*
G01Y86280D01*
G02X200320Y88420I2140J0D01*
G01X221760D01*
G02X225550Y86850I0J-5360D01*
G02X227120Y83060I-3790J-3790D01*
G01Y60500D01*
G02X219600Y52980I-7520J0D01*
G03X218020Y51400I0J-1580D01*
G01Y49450D01*
G02X216255Y45188I-6028J0D01*
G01X216033Y44967D01*
G02X211237Y42980I-4796J4796D01*
G01X210127D01*
G03X209016Y41869I0J-1111D01*
G01Y40811D01*
G03X210127Y39700I1111J0D01*
G01X216540D01*
G02Y33780I0J-2960D01*
G01X206056D01*
G02X203096Y36740I0J2960D01*
G01Y41340D01*
G03X201456Y42980I-1640J0D01*
G01X199440D01*
G03X198620Y42160I0J-820D01*
G01Y32800D01*
G02X184600Y18780I-14020J0D01*
G01X175900D01*
G03X172720Y15600I0J-3180D01*
G01X173860D01*
G02X175000Y14460I0J-1140D01*
G01Y10500D01*
G01X186024Y83465D02*
X190536D01*
X190663Y83592D01*
X193582D01*
G03X196500Y86510I0J2918D01*
G01Y87196D01*
G02X200104Y90800I3604J0D01*
G01X217199D01*
G03Y96720I0J2960D01*
G01X214660D01*
G02Y100000I0J1640D01*
G01X221799D01*
G02X223439Y98360I0J-1640D01*
G01Y93760D01*
G03X226399Y90800I2960J0D01*
G02X228800Y88399I0J-2401D01*
G01Y51139D01*
G02X227950Y50289I-850J0D01*
G01X227100D01*
G03X224600Y47789I0J-2500D01*
G01Y47329D01*
G03X227560Y44369I2960J0D01*
G01X227960D01*
G02Y41089I0J-1640D01*
G01X227100D01*
G03X224600Y38589I0J-2500D01*
G01Y38129D01*
G03X227560Y35169I2960J0D01*
G01X227960D01*
G02X229600Y33529I0J-1640D01*
G02X226371Y30300I-3229J0D01*
G01X205350D01*
G03X201800Y26750I0J-3550D01*
G01Y23200D01*
G02X195200Y16600I-6600J0D01*
G01X192800D01*
G03X190500Y14300I0J-2300D01*
G01Y13500D01*
G02X187500Y10500I-3000J0D01*
G01X185000D01*
G01X186024Y85039D02*
X190536D01*
X190663Y84912D01*
X193582D01*
G03X195180Y86510I0J1598D01*
G01Y87196D01*
G02X200104Y92120I4924J0D01*
G01X217199D01*
G03Y95400I0J1640D01*
G01X214660D01*
G02Y101320I0J2960D01*
G01X221799D01*
G02X224759Y98360I0J-2960D01*
G01Y93760D01*
G03X226399Y92120I1640J0D01*
G02X230120Y88399I0J-3721D01*
G01Y51139D01*
G02X227950Y48969I-2170J0D01*
G01X227100D01*
G03X225920Y47789I0J-1180D01*
G01Y47329D01*
G03X227560Y45689I1640J0D01*
G01X227960D01*
G02Y39769I0J-2960D01*
G01X227100D01*
G03X225920Y38589I0J-1180D01*
G01Y38129D01*
G03X227560Y36489I1640J0D01*
G01X227960D01*
G02X230920Y33529I0J-2960D01*
G02X226371Y28980I-4549J0D01*
G01X205350D01*
G03X203120Y26750I0J-2230D01*
G01Y23200D01*
G02X195200Y15280I-7920J0D01*
G01X192800D01*
G03X191820Y14300I0J-980D01*
G01Y12000D01*
G03X193320Y10500I1500J0D01*
G01X195000D01*
G01X186024Y89764D02*
X190536D01*
X190663Y89636D01*
X191483D01*
G03X192680Y90833I0J1197D01*
G01Y93280D01*
G02X194820Y95420I2140J0D01*
G01X207860D01*
G03X208680Y96240I0J820D01*
G01Y102180D01*
G02X210820Y104320I2140J0D01*
G01X228800D01*
G02X234020Y99100I0J-5220D01*
G01Y28900D01*
G02X230500Y25380I-3520J0D01*
G01X225743D01*
G03Y22100I0J-1640D01*
G01X230760D01*
G02Y16180I0J-2960D01*
G01X221143D01*
G02X218183Y19140I0J2960D01*
G01Y23740D01*
G03X216543Y25380I-1640J0D01*
G01X213200D01*
G03X210420Y22600I0J-2780D01*
G01Y15080D01*
G03X210978Y13377I2880J0D01*
G03X213300Y12200I2323J1703D01*
G02X215000Y10500I0J-1700D01*
G01X186024Y88189D02*
X190536D01*
X190663Y88316D01*
X191483D01*
G03X194000Y90833I0J2517D01*
G01Y93280D01*
G02X194820Y94100I820J0D01*
G01X207860D01*
G03X210000Y96240I0J2140D01*
G01Y102180D01*
G02X210820Y103000I820J0D01*
G01X228800D01*
G02X232700Y99100I0J-3900D01*
G01Y28900D01*
G02X230500Y26700I-2200J0D01*
G01X225743D01*
G03Y20780I0J-2960D01*
G01X230760D01*
G02Y17500I0J-1640D01*
G01X221143D01*
G02X219503Y19140I0J1640D01*
G01Y23740D01*
G03X216543Y26700I-2960J0D01*
G01X213200D01*
G03X209100Y22600I0J-4100D01*
G01Y15080D01*
G03X209913Y12596I4200J0D01*
G03Y12000I3387J-298D01*
G01Y11750D01*
G02X209736Y11323I-604J0D01*
G01X209413Y11000D01*
G02X208206Y10500I-1207J1207D01*
G01X205000D01*
G54D21*
X68276Y81100D03*
X72441Y116535D03*
X77724Y81100D03*
X81890Y116535D03*
G54D12*
X29921Y27461D03*
Y22146D03*
X24409D03*
Y27461D03*
X50800Y79142D03*
Y84458D03*
X72047Y29626D03*
X67323D03*
X72047Y34941D03*
X67323D03*
X64173Y58366D03*
Y63681D03*
G54D31*
G01X7874Y22559D02*
X15830D01*
G01X7874Y43740D02*
X15830D01*
G01Y22559D02*
X20921D01*
X21335Y22146D01*
X24409D01*
G01X15830Y43740D02*
Y22559D01*
G01X30167Y74213D02*
X34720D01*
X35508Y75000D01*
X38583D01*
G01X30197Y103425D02*
Y93425D01*
G01X45850Y74940D02*
X41718D01*
X41658Y75000D01*
X38583D01*
G01X80051Y31110D02*
X78567Y29626D01*
X72047D01*
G01X64173Y63681D02*
X57260D01*
G01X81299Y35433D02*
Y32358D01*
X80051Y31110D01*
G01D02*
X80080D01*
G01X81102Y40650D02*
Y38380D01*
G01D02*
Y35630D01*
X81299Y35433D01*
G54D22*
X66142Y98819D03*
G54D13*
X15830Y43740D03*
X14680Y87340D03*
X50170Y45830D03*
X51870Y60700D03*
X52030Y90000D03*
X45850Y74940D03*
X60710Y45830D03*
X57190Y51130D03*
X67650Y67280D03*
X54570Y53530D03*
X57260Y63681D03*
X80080Y31110D03*
X73510Y45640D03*
X76050Y40950D03*
X76081Y34941D03*
X72580Y67330D03*
X90240Y76950D03*
X77900Y91000D03*
X86500Y98700D03*
X97770Y59510D03*
X169745Y66725D03*
X169200Y61600D03*
X166500Y58720D03*
X161480Y99210D03*
X166590Y98950D03*
X169510Y101310D03*
X179060Y52230D03*
X174470D03*
X192979Y61983D03*
X183750Y52380D03*
X192790Y58550D03*
X192697Y65133D03*
X174370Y104460D03*
X179840Y104680D03*
X195780Y66910D03*
G54D32*
G01X7874Y0D02*
X228346D01*
G03X236220Y7874I0J7874D01*
G01Y149606D01*
G03X228346Y157480I-7874J0D01*
G01X7874D01*
G03X0Y149606I0J-7874D01*
G01Y7874D01*
G03X7874Y0I7874J0D01*
G54D14*
X21801Y69488D03*
G54D23*
X62205Y104331D03*
X63780D03*
X65354D03*
X66929D03*
X68504D03*
X70079D03*
Y93307D03*
X68504D03*
X66929D03*
X65354D03*
X63780D03*
X62205D03*
G54D24*
X86417Y35433D03*
X81299D03*
G54D15*
X30167Y69094D03*
Y74213D03*
X21801D03*
X176181Y56299D03*
X186024D03*
X176181Y101181D03*
X186024D03*
G54D16*
X27067Y79528D03*
X21752D03*
G54D25*
X81102Y51476D03*
Y40650D03*
G54D17*
X38583Y62795D03*
Y67913D03*
Y80118D03*
Y75000D03*
X70800Y63529D03*
Y58411D03*
G54D26*
X81102Y66339D03*
Y56496D03*
G54D18*
X67323Y46457D03*
G54D27*
X87382Y90945D03*
X81122D03*
G54D28*
X176181Y70866D03*
Y69291D03*
Y67716D03*
Y66142D03*
Y64567D03*
Y62992D03*
Y61417D03*
Y59842D03*
X186024D03*
Y61417D03*
Y62992D03*
Y64567D03*
Y66142D03*
Y67716D03*
Y69291D03*
Y70866D03*
X176181Y91339D03*
Y89764D03*
Y88189D03*
Y86614D03*
Y85039D03*
Y83465D03*
Y81890D03*
Y80315D03*
Y78740D03*
Y77165D03*
Y75591D03*
Y74016D03*
Y72441D03*
X186024D03*
Y74016D03*
Y75591D03*
Y77165D03*
Y78740D03*
Y80315D03*
Y81890D03*
Y83465D03*
Y85039D03*
Y86614D03*
Y88189D03*
Y89764D03*
Y91339D03*
X176181Y97638D03*
Y96063D03*
Y94488D03*
Y92913D03*
X186024D03*
Y94488D03*
Y96063D03*
Y97638D03*
G54D19*
X71260Y40945D03*
X69291D03*
X67323D03*
X65354D03*
X63386D03*
Y51968D03*
X65354D03*
X67323D03*
X69291D03*
X71260D03*
G54D29*
G01X7874Y28906D02*
Y32559D01*
G01D02*
Y36212D01*
G01X4221Y32559D02*
X7874D01*
G01D02*
X11527D01*
G01X7874Y50087D02*
Y53740D01*
G01D02*
Y57393D01*
G01X4221Y53740D02*
X7874D01*
G01D02*
X11527D01*
G01X7874Y63740D02*
X15414Y56200D01*
X61235D01*
X63386Y54050D01*
Y51968D01*
G01X64173Y58366D02*
X52904D01*
X52856Y58319D01*
X50884D01*
X50836Y58366D01*
X23248D01*
X7874Y73740D01*
G01Y83740D02*
X14650Y76964D01*
Y71040D01*
X25580Y60110D01*
X49199D01*
X49789Y60700D01*
X51870D01*
G01X20197Y93425D02*
X12042D01*
X11727Y93740D01*
X7874D01*
G01Y103740D02*
X16029D01*
X16344Y103425D01*
X20197D01*
G01X10118Y145953D02*
Y149606D01*
G01D02*
Y153259D01*
G01X6465Y149606D02*
X10118D01*
G01D02*
X13771D01*
G01X34180Y31190D02*
Y22870D01*
X33456Y22146D01*
X29921D01*
G01Y27461D02*
X24409D01*
G01X30167Y69094D02*
X34927D01*
X36108Y67913D01*
X38583D01*
G01X50800Y84458D02*
X30032D01*
X29890Y84600D01*
X29022D01*
X20197Y93425D01*
G01X21801Y74213D02*
Y77004D01*
X21752Y77053D01*
Y79528D01*
G01X14680Y87340D02*
X18860D01*
X21752Y84448D01*
Y79528D01*
G01X30118Y145953D02*
Y149606D01*
G01D02*
Y153259D01*
G01X26465Y149606D02*
X30118D01*
G01D02*
X33771D01*
G01X20118Y145953D02*
Y149606D01*
G01D02*
Y153259D01*
G01X16465Y149606D02*
X20118D01*
G01D02*
X23771D01*
G01X50650Y29626D02*
X67323D01*
G01X50650Y29810D02*
Y29626D01*
G01X34140Y31230D02*
X34180Y31190D01*
G01X113110Y83740D02*
X106480D01*
X104070Y81330D01*
Y74130D01*
X100150Y70210D01*
X63860D01*
X60850Y67200D01*
X41771D01*
X41058Y67913D01*
X38583D01*
G01X50800Y84458D02*
X51095D01*
X53011Y86374D01*
Y86669D01*
X54562Y88220D01*
X60680D01*
X62205Y89745D01*
Y93307D01*
G01X50118Y149606D02*
Y142396D01*
X50197Y142317D01*
Y138465D01*
G01X40197D02*
Y145675D01*
X40118Y145754D01*
Y149606D01*
G01X54570Y53530D02*
Y40880D01*
X57930Y37520D01*
X64470D01*
X65354Y38404D01*
Y40945D01*
G01X57190Y51130D02*
Y42760D01*
X59005Y40945D01*
X63386D01*
G01X67323D02*
Y34941D01*
G01X76050Y40950D02*
X73819D01*
X73814Y40945D01*
X71260D01*
G01X81102Y38380D02*
X69270D01*
Y38530D01*
X69291D01*
Y40945D01*
G01X71260Y51968D02*
X77840D01*
Y51476D01*
X81102D01*
G01X64173Y58366D02*
Y56187D01*
X64470Y55890D01*
Y55770D01*
X65354Y54886D01*
Y51968D01*
G01X67323D02*
Y60827D01*
X64468Y63681D01*
X64173D01*
G01X81102Y66339D02*
X79612D01*
X79603Y66330D01*
X77030D01*
X75780Y65080D01*
Y60760D01*
X73431Y58411D01*
X70800D01*
G01X69291Y51968D02*
Y54624D01*
X70800Y56133D01*
Y58411D01*
G01X56680Y72450D02*
X56770Y72540D01*
G01D02*
X99240D01*
X102380Y75680D01*
Y91820D01*
X104300Y93740D01*
X113110D01*
G01X63780Y98819D02*
Y93307D01*
G01X66142Y98819D02*
X65354D01*
G01X62205Y104331D02*
X62200D01*
Y98819D01*
X63780D01*
G01D02*
Y104331D01*
G01X65354Y98819D02*
Y104331D01*
G01Y98819D02*
X63780D01*
G01X60197Y138465D02*
Y145675D01*
X60118Y145754D01*
Y149606D01*
G01X70118D02*
Y142396D01*
X70197Y142317D01*
Y138465D01*
G01X73510Y45640D02*
X75591D01*
X75661Y45710D01*
G01D02*
X83800D01*
X86417Y43093D01*
Y35433D01*
G01X81102Y56496D02*
Y51476D01*
G01X72047Y34941D02*
X76081D01*
G01X113110Y73740D02*
X108860D01*
X101459Y66339D01*
X81102D01*
G01X90240Y76950D02*
X95650D01*
X99960Y81260D01*
Y99140D01*
X104560Y103740D01*
X113110D01*
G01X90118Y149606D02*
Y142396D01*
X90197Y142317D01*
Y138465D01*
G01X80197D02*
Y145675D01*
X80118Y145754D01*
Y149606D01*
G01X113110Y53740D02*
X104120D01*
X103540Y53740D01*
X97770Y59510D01*
G01X100118Y149606D02*
Y142396D01*
X100197Y142317D01*
Y138465D01*
G01X176181Y66142D02*
X170328D01*
X169745Y66725D01*
G01X176181Y62992D02*
X172132D01*
X170739Y61600D01*
X169200D01*
G01X176181Y61417D02*
X172767D01*
X170070Y58720D01*
X166500D01*
G01X186024Y96063D02*
X190073D01*
X193100Y99090D01*
Y104570D01*
X190480Y107190D01*
X166150D01*
X162140Y103180D01*
Y99870D01*
X161480Y99210D01*
G01X176181Y92913D02*
X170545D01*
X166590Y96869D01*
Y98950D01*
G01X176181Y94488D02*
X172132D01*
X169510Y97110D01*
Y101310D01*
G01X186024Y62992D02*
X190678D01*
X191244Y62426D01*
X192507D01*
X192950Y61983D01*
X192979D01*
G01X186024Y61417D02*
X190113D01*
X190780Y60750D01*
Y59250D01*
X191480Y58550D01*
X192790D01*
G01X186024Y66142D02*
X190073D01*
X190912Y66980D01*
X191445Y67514D01*
X193684D01*
X194218Y66980D01*
X195710D01*
X195780Y66910D01*
G01X186024Y64567D02*
X190887D01*
X191453Y65133D01*
X192697D01*
M02*
